<ttFont>
<head>
    <!-- Most of this table will be recalculated by the compiler -->
    <tableVersion value="1.0"/>
    <fontRevision value="1.0"/>
    <checkSumAdjustment value="0xcec03887"/>
    <magicNumber value="0x5f0f3cf5"/>
    <flags value="00001000 00000011"/>
    <unitsPerEm value="1000"/>
    <created value="Fri Jul 19 04:36:31 2024"/>
    <modified value="Fri Aug 16 08:55:34 2024"/>
    <xMin value="37"/>
    <yMin value="-92"/>
    <xMax value="1043"/>
    <yMax value="902"/>
    <macStyle value="00000000 00000000"/>
    <lowestRecPPEM value="3"/>
    <fontDirectionHint value="2"/>
    <indexToLocFormat value="0"/>
    <glyphDataFormat value="0"/>
  </head>
    <TTGlyph name="eight" xMin="48" yMin="-11" xMax="523" yMax="745">
      <contour>
        <pt x="523" y="180" on="0"/>
        <pt x="400" y="-11" on="0"/>
        <pt x="285" y="-11" on="1"/>
        <pt x="171" y="-11" on="0"/>
        <pt x="48" y="181" on="0"/>
        <pt x="48" y="366" on="1"/>
        <pt x="48" y="552" on="0"/>
        <pt x="171" y="745" on="0"/>
        <pt x="285" y="745" on="1"/>
        <pt x="400" y="745" on="0"/>
        <pt x="523" y="553" on="0"/>
        <pt x="523" y="366" on="1"/>
      </contour>
      <contour>
        <pt x="143" y="217" on="0"/>
        <pt x="212" y="71" on="0"/>
        <pt x="285" y="71" on="1"/>
        <pt x="358" y="71" on="0"/>
        <pt x="428" y="216" on="0"/>
        <pt x="428" y="366" on="1"/>
        <pt x="428" y="517" on="0"/>
        <pt x="358" y="664" on="0"/>
        <pt x="285" y="664" on="1"/>
        <pt x="212" y="664" on="0"/>
        <pt x="143" y="517" on="0"/>
        <pt x="143" y="366" on="1"/>
      </contour>
    </TTGlyph>
    <TTGlyph name="five" xMin="48" yMin="-11" xMax="522" yMax="745">
      <contour>
        <pt x="457" y="372" on="0"/>
        <pt x="522" y="272" on="0"/>
        <pt x="522" y="207" on="1"/>
        <pt x="522" y="145" on="0"/>
        <pt x="463" y="46" on="0"/>
        <pt x="356" y="-11" on="0"/>
        <pt x="287" y="-11" on="1"/>
        <pt x="216" y="-11" on="0"/>
        <pt x="108" y="45" on="0"/>
        <pt x="48" y="145" on="0"/>
        <pt x="48" y="207" on="1"/>
        <pt x="48" y="272" on="0"/>
        <pt x="113" y="372" on="0"/>
        <pt x="171" y="398" on="1"/>
        <pt x="125" y="422" on="0"/>
        <pt x="73" y="503" on="0"/>
        <pt x="73" y="554" on="1"/>
        <pt x="73" y="606" on="0"/>
        <pt x="127" y="694" on="0"/>
        <pt x="225" y="745" on="0"/>
        <pt x="287" y="745" on="1"/>
        <pt x="348" y="745" on="0"/>
        <pt x="443" y="694" on="0"/>
        <pt x="495" y="607" on="0"/>
        <pt x="495" y="554" on="1"/>
        <pt x="495" y="503" on="0"/>
        <pt x="445" y="422" on="0"/>
        <pt x="400" y="398" on="1"/>
      </contour>
      <contour>
        <pt x="231" y="667" on="0"/>
        <pt x="166" y="603" on="0"/>
        <pt x="166" y="551" on="1"/>
        <pt x="166" y="500" on="0"/>
        <pt x="231" y="436" on="0"/>
        <pt x="287" y="436" on="1"/>
        <pt x="342" y="436" on="0"/>
        <pt x="406" y="501" on="0"/>
        <pt x="406" y="551" on="1"/>
        <pt x="406" y="602" on="0"/>
        <pt x="342" y="667" on="0"/>
        <pt x="287" y="667" on="1"/>
      </contour>
      <contour>
        <pt x="351" y="69" on="0"/>
        <pt x="429" y="145" on="0"/>
        <pt x="429" y="210" on="1"/>
        <pt x="429" y="276" on="0"/>
        <pt x="353" y="354" on="0"/>
        <pt x="287" y="354" on="1"/>
        <pt x="220" y="354" on="0"/>
        <pt x="143" y="276" on="0"/>
        <pt x="143" y="210" on="1"/>
        <pt x="143" y="144" on="0"/>
        <pt x="221" y="69" on="0"/>
        <pt x="287" y="69" on="1"/>
      </contour>
    </TTGlyph>
    <TTGlyph name="four" xMin="99" yMin="0" xMax="380" yMax="733">
      <contour>
        <pt x="99" y="517" on="1"/>
        <pt x="99" y="609" on="1"/>
        <pt x="312" y="733" on="1"/>
        <pt x="380" y="733" on="1"/>
        <pt x="380" y="0" on="1"/>
        <pt x="290" y="0" on="1"/>
        <pt x="290" y="626" on="1"/>
      </contour>
    </TTGlyph>
    <TTGlyph name="nine" xMin="55" yMin="-11" xMax="529" yMax="733">
      <contour>
        <pt x="370" y="456" on="0"/>
        <pt x="472" y="394" on="0"/>
        <pt x="529" y="288" on="0"/>
        <pt x="529" y="224" on="1"/>
        <pt x="529" y="158" on="0"/>
        <pt x="468" y="50" on="0"/>
        <pt x="359" y="-11" on="0"/>
        <pt x="292" y="-11" on="1"/>
        <pt x="223" y="-11" on="0"/>
        <pt x="115" y="49" on="0"/>
        <pt x="55" y="157" on="0"/>
        <pt x="55" y="226" on="1"/>
        <pt x="55" y="280" on="0"/>
        <pt x="94" y="371" on="0"/>
        <pt x="139" y="445" on="1"/>
        <pt x="314" y="733" on="1"/>
        <pt x="415" y="733" on="1"/>
        <pt x="264" y="487" on="1"/>
        <pt x="250" y="465" on="0"/>
        <pt x="236" y="446" on="1"/>
        <pt x="267" y="456" on="0"/>
        <pt x="305" y="456" on="1"/>
      </contour>
      <contour>
        <pt x="356" y="70" on="0"/>
        <pt x="433" y="154" on="0"/>
        <pt x="433" y="221" on="1"/>
        <pt x="433" y="289" on="0"/>
        <pt x="357" y="374" on="0"/>
        <pt x="292" y="374" on="1"/>
        <pt x="227" y="374" on="0"/>
        <pt x="150" y="289" on="0"/>
        <pt x="150" y="221" on="1"/>
        <pt x="150" y="153" on="0"/>
        <pt x="227" y="70" on="0"/>
        <pt x="292" y="70" on="1"/>
      </contour>
    </TTGlyph>
    <TTGlyph name="one" xMin="37" yMin="0" xMax="555" yMax="733">
      <contour>
        <pt x="450" y="444" on="1"/>
        <pt x="450" y="239" on="1"/>
        <pt x="555" y="239" on="1"/>
        <pt x="555" y="162" on="1"/>
        <pt x="450" y="162" on="1"/>
        <pt x="450" y="0" on="1"/>
        <pt x="361" y="0" on="1"/>
        <pt x="361" y="162" on="1"/>
        <pt x="37" y="162" on="1"/>
        <pt x="37" y="224" on="1"/>
        <pt x="312" y="733" on="1"/>
        <pt x="409" y="733" on="1"/>
        <pt x="141" y="239" on="1"/>
        <pt x="361" y="239" on="1"/>
        <pt x="361" y="444" on="1"/>
      </contour>
    </TTGlyph>
    <TTGlyph name="seven" xMin="46" yMin="-11" xMax="517" yMax="744">
      <contour>
        <pt x="452" y="370" on="0"/>
        <pt x="517" y="276" on="0"/>
        <pt x="517" y="207" on="1"/>
        <pt x="517" y="139" on="0"/>
        <pt x="453" y="40" on="0"/>
        <pt x="347" y="-11" on="0"/>
        <pt x="284" y="-11" on="1"/>
        <pt x="204" y="-11" on="0"/>
        <pt x="69" y="71" on="0"/>
        <pt x="46" y="150" on="1"/>
        <pt x="118" y="191" on="1"/>
        <pt x="137" y="131" on="0"/>
        <pt x="230" y="70" on="0"/>
        <pt x="284" y="70" on="1"/>
        <pt x="343" y="70" on="0"/>
        <pt x="422" y="143" on="0"/>
        <pt x="422" y="208" on="1"/>
        <pt x="422" y="342" on="0"/>
        <pt x="239" y="342" on="1"/>
        <pt x="208" y="342" on="1"/>
        <pt x="209" y="422" on="1"/>
        <pt x="244" y="422" on="1"/>
        <pt x="318" y="422" on="0"/>
        <pt x="395" y="494" on="0"/>
        <pt x="395" y="550" on="1"/>
        <pt x="395" y="603" on="0"/>
        <pt x="329" y="663" on="0"/>
        <pt x="277" y="663" on="1"/>
        <pt x="223" y="663" on="0"/>
        <pt x="148" y="599" on="0"/>
        <pt x="128" y="539" on="1"/>
        <pt x="56" y="580" on="1"/>
        <pt x="80" y="661" on="0"/>
        <pt x="201" y="744" on="0"/>
        <pt x="282" y="744" on="1"/>
        <pt x="376" y="744" on="0"/>
        <pt x="490" y="638" on="0"/>
        <pt x="490" y="552" on="1"/>
        <pt x="490" y="497" on="0"/>
        <pt x="439" y="413" on="0"/>
        <pt x="386" y="391" on="1"/>
      </contour>
    </TTGlyph>
    <TTGlyph name="six" xMin="50" yMin="0" xMax="517" yMax="745">
      <contour>
        <pt x="186" y="79" on="1"/>
        <pt x="517" y="79" on="1"/>
        <pt x="517" y="0" on="1"/>
        <pt x="50" y="0" on="1"/>
        <pt x="50" y="57" on="1"/>
        <pt x="287" y="321" on="1"/>
        <pt x="354" y="395" on="0"/>
        <pt x="404" y="480" on="0"/>
        <pt x="404" y="530" on="1"/>
        <pt x="404" y="594" on="0"/>
        <pt x="334" y="664" on="0"/>
        <pt x="281" y="664" on="1"/>
        <pt x="227" y="664" on="0"/>
        <pt x="145" y="591" on="0"/>
        <pt x="127" y="531" on="1"/>
        <pt x="55" y="572" on="1"/>
        <pt x="77" y="654" on="0"/>
        <pt x="207" y="745" on="0"/>
        <pt x="287" y="745" on="1"/>
        <pt x="345" y="745" on="0"/>
        <pt x="441" y="696" on="0"/>
        <pt x="498" y="601" on="0"/>
        <pt x="498" y="534" on="1"/>
        <pt x="498" y="469" on="0"/>
        <pt x="434" y="353" on="0"/>
        <pt x="354" y="265" on="1"/>
      </contour>
    </TTGlyph>
    <TTGlyph name="three" xMin="56" yMin="0" xMax="512" yMax="733">
      <contour>
        <pt x="411" y="656" on="1"/>
        <pt x="56" y="656" on="1"/>
        <pt x="56" y="733" on="1"/>
        <pt x="512" y="733" on="1"/>
        <pt x="512" y="678" on="1"/>
        <pt x="238" y="0" on="1"/>
        <pt x="140" y="0" on="1"/>
      </contour>
    </TTGlyph>
    <TTGlyph name="two" xMin="43" yMin="1" xMax="517" yMax="745">
      <contour>
        <pt x="349" y="745" on="0"/>
        <pt x="457" y="685" on="0"/>
        <pt x="517" y="577" on="0"/>
        <pt x="517" y="508" on="1"/>
        <pt x="517" y="454" on="0"/>
        <pt x="478" y="363" on="0"/>
        <pt x="433" y="289" on="1"/>
        <pt x="258" y="1" on="1"/>
        <pt x="157" y="1" on="1"/>
        <pt x="308" y="247" on="1"/>
        <pt x="322" y="269" on="0"/>
        <pt x="336" y="288" on="1"/>
        <pt x="305" y="278" on="0"/>
        <pt x="267" y="278" on="1"/>
        <pt x="202" y="278" on="0"/>
        <pt x="100" y="340" on="0"/>
        <pt x="43" y="446" on="0"/>
        <pt x="43" y="510" on="1"/>
        <pt x="43" y="576" on="0"/>
        <pt x="104" y="684" on="0"/>
        <pt x="213" y="745" on="0"/>
        <pt x="280" y="745" on="1"/>
      </contour>
      <contour>
        <pt x="345" y="360" on="0"/>
        <pt x="422" y="445" on="0"/>
        <pt x="422" y="513" on="1"/>
        <pt x="422" y="581" on="0"/>
        <pt x="345" y="664" on="0"/>
        <pt x="280" y="664" on="1"/>
        <pt x="216" y="664" on="0"/>
        <pt x="139" y="580" on="0"/>
        <pt x="139" y="513" on="1"/>
        <pt x="139" y="445" on="0"/>
        <pt x="215" y="360" on="0"/>
        <pt x="280" y="360" on="1"/>
      </contour>
    </TTGlyph>
    <TTGlyph name="uni3041" xMin="178" yMin="-66" xMax="826" yMax="617">
      <contour>
        <pt x="677" y="381" on="0"/>
        <pt x="826" y="273" on="0"/>
        <pt x="826" y="170" on="1"/>
        <pt x="826" y="78" on="0"/>
        <pt x="699" y="-47" on="0"/>
        <pt x="585" y="-66" on="1"/>
        <pt x="555" y="-8" on="1"/>
        <pt x="650" y="6" on="0"/>
        <pt x="750" y="97" on="0"/>
        <pt x="750" y="170" on="1"/>
        <pt x="750" y="224" on="0"/>
        <pt x="687" y="295" on="0"/>
        <pt x="630" y="308" on="1"/>
        <pt x="622" y="214" on="0"/>
        <pt x="545" y="59" on="0"/>
        <pt x="413" y="-31" on="0"/>
        <pt x="327" y="-31" on="1"/>
        <pt x="258" y="-31" on="0"/>
        <pt x="178" y="44" on="0"/>
        <pt x="178" y="108" on="1"/>
        <pt x="178" y="181" on="0"/>
        <pt x="278" y="307" on="0"/>
        <pt x="363" y="343" on="1"/>
        <pt x="363" y="346" on="1"/>
        <pt x="363" y="464" on="1"/>
        <pt x="207" y="464" on="1"/>
        <pt x="207" y="528" on="1"/>
        <pt x="363" y="528" on="1"/>
        <pt x="363" y="617" on="1"/>
        <pt x="435" y="617" on="1"/>
        <pt x="435" y="528" on="1"/>
        <pt x="803" y="528" on="1"/>
        <pt x="803" y="464" on="1"/>
        <pt x="435" y="464" on="1"/>
        <pt x="435" y="367" on="1"/>
        <pt x="496" y="381" on="0"/>
        <pt x="560" y="381" on="1"/>
      </contour>
      <contour>
        <pt x="546" y="188" on="0"/>
        <pt x="555" y="315" on="1"/>
        <pt x="493" y="314" on="0"/>
        <pt x="436" y="298" on="1"/>
        <pt x="440" y="236" on="0"/>
        <pt x="462" y="148" on="0"/>
        <pt x="484" y="111" on="1"/>
      </contour>
      <contour>
        <pt x="254" y="77" on="0"/>
        <pt x="296" y="35" on="0"/>
        <pt x="333" y="35" on="1"/>
        <pt x="388" y="35" on="0"/>
        <pt x="432" y="64" on="1"/>
        <pt x="377" y="157" on="0"/>
        <pt x="366" y="269" on="1"/>
        <pt x="314" y="241" on="0"/>
        <pt x="254" y="160" on="0"/>
        <pt x="254" y="114" on="1"/>
      </contour>
    </TTGlyph>
    <TTGlyph name="uni3042" xMin="103" yMin="-54" xMax="897" yMax="792">
      <contour>
        <pt x="667" y="495" on="0"/>
        <pt x="813" y="438" on="0"/>
        <pt x="897" y="322" on="0"/>
        <pt x="897" y="237" on="1"/>
        <pt x="897" y="123" on="0"/>
        <pt x="748" y="-30" on="0"/>
        <pt x="607" y="-54" on="1"/>
        <pt x="573" y="10" on="1"/>
        <pt x="693" y="29" on="0"/>
        <pt x="819" y="147" on="0"/>
        <pt x="819" y="237" on="1"/>
        <pt x="819" y="306" on="0"/>
        <pt x="732" y="399" on="0"/>
        <pt x="653" y="414" on="1"/>
        <pt x="645" y="296" on="0"/>
        <pt x="552" y="105" on="0"/>
        <pt x="391" y="-7" on="0"/>
        <pt x="284" y="-7" on="1"/>
        <pt x="201" y="-7" on="0"/>
        <pt x="103" y="83" on="0"/>
        <pt x="103" y="160" on="1"/>
        <pt x="103" y="253" on="0"/>
        <pt x="227" y="405" on="0"/>
        <pt x="333" y="449" on="1"/>
        <pt x="333" y="456" on="1"/>
        <pt x="333" y="605" on="1"/>
        <pt x="136" y="605" on="1"/>
        <pt x="136" y="679" on="1"/>
        <pt x="333" y="679" on="1"/>
        <pt x="333" y="792" on="1"/>
        <pt x="411" y="792" on="1"/>
        <pt x="411" y="679" on="1"/>
        <pt x="876" y="679" on="1"/>
        <pt x="876" y="605" on="1"/>
        <pt x="411" y="605" on="1"/>
        <pt x="411" y="475" on="1"/>
        <pt x="489" y="495" on="0"/>
        <pt x="575" y="495" on="1"/>
      </contour>
      <contour>
        <pt x="521" y="201" on="0"/>
        <pt x="571" y="338" on="0"/>
        <pt x="576" y="421" on="1"/>
        <pt x="493" y="421" on="0"/>
        <pt x="413" y="397" on="1"/>
        <pt x="418" y="317" on="0"/>
        <pt x="449" y="201" on="0"/>
        <pt x="479" y="153" on="1"/>
      </contour>
      <contour>
        <pt x="181" y="119" on="0"/>
        <pt x="240" y="65" on="0"/>
        <pt x="293" y="65" on="1"/>
        <pt x="360" y="65" on="0"/>
        <pt x="419" y="101" on="1"/>
        <pt x="383" y="161" on="0"/>
        <pt x="343" y="289" on="0"/>
        <pt x="336" y="367" on="1"/>
        <pt x="264" y="332" on="0"/>
        <pt x="181" y="227" on="0"/>
        <pt x="181" y="167" on="1"/>
      </contour>
    </TTGlyph>
    <TTGlyph name="uni3043" xMin="183" yMin="-22" xMax="834" yMax="527">
      <contour>
        <pt x="754" y="88" on="1"/>
        <pt x="752" y="221" on="0"/>
        <pt x="685" y="408" on="0"/>
        <pt x="606" y="481" on="1"/>
        <pt x="672" y="527" on="1"/>
        <pt x="756" y="446" on="0"/>
        <pt x="831" y="232" on="0"/>
        <pt x="834" y="88" on="1"/>
      </contour>
      <contour>
        <pt x="268" y="-22" on="0"/>
        <pt x="183" y="132" on="0"/>
        <pt x="183" y="293" on="1"/>
        <pt x="183" y="509" on="1"/>
        <pt x="263" y="509" on="1"/>
        <pt x="263" y="296" on="1"/>
        <pt x="263" y="171" on="0"/>
        <pt x="309" y="55" on="0"/>
        <pt x="357" y="55" on="1"/>
        <pt x="418" y="55" on="0"/>
        <pt x="453" y="195" on="1"/>
        <pt x="529" y="173" on="1"/>
        <pt x="504" y="78" on="0"/>
        <pt x="416" y="-22" on="0"/>
        <pt x="357" y="-22" on="1"/>
      </contour>
    </TTGlyph>
    <TTGlyph name="uni3044" xMin="107" yMin="13" xMax="907" yMax="679">
      <contour>
        <pt x="823" y="150" on="1"/>
        <pt x="821" y="316" on="0"/>
        <pt x="740" y="546" on="0"/>
        <pt x="644" y="636" on="1"/>
        <pt x="715" y="679" on="1"/>
        <pt x="817" y="579" on="0"/>
        <pt x="902" y="328" on="0"/>
        <pt x="907" y="150" on="1"/>
      </contour>
      <contour>
        <pt x="107" y="13" on="0"/>
        <pt x="107" y="419" on="1"/>
        <pt x="107" y="669" on="1"/>
        <pt x="191" y="669" on="1"/>
        <pt x="191" y="431" on="1"/>
        <pt x="191" y="268" on="0"/>
        <pt x="255" y="95" on="0"/>
        <pt x="319" y="95" on="1"/>
        <pt x="400" y="95" on="0"/>
        <pt x="445" y="269" on="1"/>
        <pt x="518" y="244" on="1"/>
        <pt x="487" y="130" on="0"/>
        <pt x="388" y="13" on="0"/>
        <pt x="315" y="13" on="1"/>
      </contour>
    </TTGlyph>
    <TTGlyph name="uni3045" xMin="240" yMin="-76" xMax="769" yMax="620">
      <contour>
        <pt x="684" y="467" on="1"/>
        <pt x="615" y="492" on="0"/>
        <pt x="436" y="533" on="0"/>
        <pt x="351" y="544" on="1"/>
        <pt x="364" y="620" on="1"/>
        <pt x="449" y="608" on="0"/>
        <pt x="630" y="567" on="0"/>
        <pt x="706" y="542" on="1"/>
      </contour>
      <contour>
        <pt x="345" y="-2" on="1"/>
        <pt x="446" y="-3" on="0"/>
        <pt x="604" y="51" on="0"/>
        <pt x="691" y="151" on="0"/>
        <pt x="691" y="217" on="1"/>
        <pt x="691" y="275" on="0"/>
        <pt x="625" y="330" on="0"/>
        <pt x="554" y="330" on="1"/>
        <pt x="498" y="330" on="0"/>
        <pt x="339" y="305" on="0"/>
        <pt x="258" y="284" on="1"/>
        <pt x="240" y="362" on="1"/>
        <pt x="321" y="381" on="0"/>
        <pt x="494" y="404" on="0"/>
        <pt x="557" y="404" on="1"/>
        <pt x="665" y="404" on="0"/>
        <pt x="769" y="316" on="0"/>
        <pt x="769" y="224" on="1"/>
        <pt x="769" y="131" on="0"/>
        <pt x="671" y="-4" on="0"/>
        <pt x="487" y="-76" on="0"/>
        <pt x="362" y="-75" on="1"/>
      </contour>
    </TTGlyph>
    <TTGlyph name="uni3046" xMin="183" yMin="-61" xMax="827" yMax="793">
      <contour>
        <pt x="725" y="621" on="1"/>
        <pt x="644" y="651" on="0"/>
        <pt x="423" y="702" on="0"/>
        <pt x="324" y="715" on="1"/>
        <pt x="340" y="793" on="1"/>
        <pt x="440" y="778" on="0"/>
        <pt x="660" y="728" on="0"/>
        <pt x="745" y="699" on="1"/>
      </contour>
      <contour>
        <pt x="318" y="16" on="1"/>
        <pt x="447" y="16" on="0"/>
        <pt x="641" y="91" on="0"/>
        <pt x="744" y="221" on="0"/>
        <pt x="744" y="302" on="1"/>
        <pt x="744" y="380" on="0"/>
        <pt x="655" y="451" on="0"/>
        <pt x="566" y="451" on="1"/>
        <pt x="495" y="451" on="0"/>
        <pt x="300" y="421" on="0"/>
        <pt x="201" y="395" on="1"/>
        <pt x="183" y="476" on="1"/>
        <pt x="289" y="499" on="0"/>
        <pt x="496" y="529" on="0"/>
        <pt x="571" y="529" on="1"/>
        <pt x="704" y="529" on="0"/>
        <pt x="827" y="420" on="0"/>
        <pt x="827" y="311" on="1"/>
        <pt x="827" y="200" on="0"/>
        <pt x="709" y="31" on="0"/>
        <pt x="486" y="-61" on="0"/>
        <pt x="333" y="-61" on="1"/>
      </contour>
    </TTGlyph>
    <TTGlyph name="uni3047" xMin="162" yMin="-85" xMax="825" yMax="626">
      <contour>
        <pt x="656" y="474" on="1"/>
        <pt x="585" y="500" on="0"/>
        <pt x="412" y="541" on="0"/>
        <pt x="326" y="552" on="1"/>
        <pt x="340" y="626" on="1"/>
        <pt x="425" y="614" on="0"/>
        <pt x="603" y="573" on="0"/>
        <pt x="677" y="547" on="1"/>
      </contour>
      <contour>
        <pt x="825" y="4" on="1"/>
        <pt x="825" y="-68" on="1"/>
        <pt x="674" y="-68" on="1"/>
        <pt x="600" y="-68" on="0"/>
        <pt x="536" y="-10" on="0"/>
        <pt x="536" y="57" on="1"/>
        <pt x="535" y="98" on="0"/>
        <pt x="520" y="145" on="0"/>
        <pt x="497" y="145" on="1"/>
        <pt x="472" y="145" on="0"/>
        <pt x="444" y="129" on="1"/>
        <pt x="219" y="-85" on="1"/>
        <pt x="162" y="-30" on="1"/>
        <pt x="563" y="337" on="1"/>
        <pt x="245" y="335" on="1"/>
        <pt x="245" y="408" on="1"/>
        <pt x="662" y="408" on="1"/>
        <pt x="685" y="359" on="1"/>
        <pt x="524" y="206" on="1"/>
        <pt x="531" y="206" on="1"/>
        <pt x="610" y="206" on="0"/>
        <pt x="610" y="73" on="1"/>
        <pt x="610" y="34" on="0"/>
        <pt x="643" y="4" on="0"/>
        <pt x="685" y="4" on="1"/>
      </contour>
    </TTGlyph>
    <TTGlyph name="uni3048" xMin="93" yMin="-65" xMax="899" yMax="797">
      <contour>
        <pt x="691" y="626" on="1"/>
        <pt x="602" y="657" on="0"/>
        <pt x="393" y="707" on="0"/>
        <pt x="293" y="719" on="1"/>
        <pt x="309" y="797" on="1"/>
        <pt x="408" y="782" on="0"/>
        <pt x="621" y="733" on="0"/>
        <pt x="712" y="703" on="1"/>
      </contour>
      <contour>
        <pt x="899" y="25" on="1"/>
        <pt x="899" y="-51" on="1"/>
        <pt x="719" y="-51" on="1"/>
        <pt x="631" y="-51" on="0"/>
        <pt x="552" y="21" on="0"/>
        <pt x="552" y="100" on="1"/>
        <pt x="551" y="155" on="0"/>
        <pt x="531" y="218" on="0"/>
        <pt x="496" y="218" on="1"/>
        <pt x="471" y="218" on="0"/>
        <pt x="430" y="200" on="1"/>
        <pt x="153" y="-65" on="1"/>
        <pt x="93" y="-9" on="1"/>
        <pt x="589" y="454" on="1"/>
        <pt x="191" y="452" on="1"/>
        <pt x="191" y="530" on="1"/>
        <pt x="699" y="530" on="1"/>
        <pt x="722" y="478" on="1"/>
        <pt x="514" y="280" on="1"/>
        <pt x="530" y="283" on="0"/>
        <pt x="547" y="283" on="1"/>
        <pt x="584" y="280" on="0"/>
        <pt x="620" y="222" on="0"/>
        <pt x="629" y="159" on="0"/>
        <pt x="632" y="110" on="1"/>
        <pt x="633" y="64" on="0"/>
        <pt x="678" y="25" on="0"/>
        <pt x="731" y="25" on="1"/>
      </contour>
    </TTGlyph>
    <TTGlyph name="uni3049" xMin="159" yMin="-60" xMax="855" yMax="619">
      <contour>
        <pt x="644" y="332" on="0"/>
        <pt x="778" y="227" on="0"/>
        <pt x="778" y="134" on="1"/>
        <pt x="778" y="42" on="0"/>
        <pt x="668" y="-59" on="0"/>
        <pt x="568" y="-59" on="1"/>
        <pt x="548" y="-59" on="0"/>
        <pt x="494" y="-53" on="1"/>
        <pt x="494" y="16" on="1"/>
        <pt x="528" y="9" on="0"/>
        <pt x="565" y="9" on="1"/>
        <pt x="633" y="9" on="0"/>
        <pt x="704" y="72" on="0"/>
        <pt x="704" y="132" on="1"/>
        <pt x="704" y="196" on="0"/>
        <pt x="606" y="264" on="0"/>
        <pt x="516" y="264" on="1"/>
        <pt x="477" y="264" on="0"/>
        <pt x="430" y="254" on="1"/>
        <pt x="430" y="75" on="1"/>
        <pt x="430" y="4" on="0"/>
        <pt x="375" y="-60" on="0"/>
        <pt x="315" y="-60" on="1"/>
        <pt x="245" y="-60" on="0"/>
        <pt x="159" y="14" on="0"/>
        <pt x="159" y="75" on="1"/>
        <pt x="159" y="148" on="0"/>
        <pt x="268" y="269" on="0"/>
        <pt x="356" y="302" on="1"/>
        <pt x="356" y="436" on="1"/>
        <pt x="207" y="436" on="1"/>
        <pt x="207" y="504" on="1"/>
        <pt x="356" y="504" on="1"/>
        <pt x="356" y="619" on="1"/>
        <pt x="430" y="619" on="1"/>
        <pt x="430" y="504" on="1"/>
        <pt x="628" y="504" on="1"/>
        <pt x="628" y="436" on="1"/>
        <pt x="430" y="436" on="1"/>
        <pt x="430" y="323" on="1"/>
        <pt x="477" y="332" on="0"/>
        <pt x="526" y="332" on="1"/>
      </contour>
      <contour>
        <pt x="706" y="559" on="1"/>
        <pt x="743" y="533" on="0"/>
        <pt x="824" y="448" on="0"/>
        <pt x="855" y="408" on="1"/>
        <pt x="797" y="366" on="1"/>
        <pt x="776" y="400" on="0"/>
        <pt x="692" y="488" on="0"/>
        <pt x="655" y="515" on="1"/>
      </contour>
      <contour>
        <pt x="356" y="228" on="1"/>
        <pt x="299" y="202" on="0"/>
        <pt x="231" y="122" on="0"/>
        <pt x="231" y="76" on="1"/>
        <pt x="231" y="45" on="0"/>
        <pt x="275" y="8" on="0"/>
        <pt x="310" y="8" on="1"/>
        <pt x="335" y="8" on="0"/>
        <pt x="356" y="38" on="0"/>
        <pt x="356" y="73" on="1"/>
      </contour>
    </TTGlyph>
    <TTGlyph name="uni304A" xMin="79" yMin="-57" xMax="933" yMax="780">
      <contour>
        <pt x="676" y="421" on="0"/>
        <pt x="840" y="292" on="0"/>
        <pt x="840" y="180" on="1"/>
        <pt x="840" y="73" on="0"/>
        <pt x="709" y="-55" on="0"/>
        <pt x="583" y="-55" on="1"/>
        <pt x="553" y="-55" on="0"/>
        <pt x="497" y="-48" on="1"/>
        <pt x="497" y="25" on="1"/>
        <pt x="536" y="18" on="0"/>
        <pt x="580" y="18" on="1"/>
        <pt x="669" y="18" on="0"/>
        <pt x="760" y="102" on="0"/>
        <pt x="760" y="177" on="1"/>
        <pt x="760" y="260" on="0"/>
        <pt x="633" y="349" on="0"/>
        <pt x="519" y="349" on="1"/>
        <pt x="463" y="349" on="0"/>
        <pt x="405" y="335" on="1"/>
        <pt x="405" y="106" on="1"/>
        <pt x="405" y="20" on="0"/>
        <pt x="339" y="-57" on="0"/>
        <pt x="267" y="-57" on="1"/>
        <pt x="183" y="-57" on="0"/>
        <pt x="79" y="31" on="0"/>
        <pt x="79" y="106" on="1"/>
        <pt x="79" y="196" on="0"/>
        <pt x="214" y="345" on="0"/>
        <pt x="324" y="385" on="1"/>
        <pt x="324" y="563" on="1"/>
        <pt x="139" y="563" on="1"/>
        <pt x="139" y="636" on="1"/>
        <pt x="324" y="636" on="1"/>
        <pt x="324" y="780" on="1"/>
        <pt x="405" y="780" on="1"/>
        <pt x="405" y="636" on="1"/>
        <pt x="651" y="636" on="1"/>
        <pt x="651" y="563" on="1"/>
        <pt x="405" y="563" on="1"/>
        <pt x="405" y="408" on="1"/>
        <pt x="463" y="421" on="0"/>
        <pt x="530" y="421" on="1"/>
      </contour>
      <contour>
        <pt x="757" y="701" on="1"/>
        <pt x="801" y="670" on="0"/>
        <pt x="899" y="569" on="0"/>
        <pt x="933" y="524" on="1"/>
        <pt x="872" y="480" on="1"/>
        <pt x="843" y="522" on="0"/>
        <pt x="744" y="625" on="0"/>
        <pt x="702" y="656" on="1"/>
      </contour>
      <contour>
        <pt x="324" y="307" on="1"/>
        <pt x="249" y="274" on="0"/>
        <pt x="156" y="168" on="0"/>
        <pt x="156" y="108" on="1"/>
        <pt x="156" y="66" on="0"/>
        <pt x="214" y="15" on="0"/>
        <pt x="261" y="15" on="1"/>
        <pt x="295" y="15" on="0"/>
        <pt x="324" y="56" on="0"/>
        <pt x="324" y="103" on="1"/>
      </contour>
    </TTGlyph>
    <TTGlyph name="uni304B" xMin="83" yMin="-57" xMax="934" yMax="775">
      <contour>
        <pt x="457" y="569" on="1"/>
        <pt x="465" y="570" on="0"/>
        <pt x="480" y="570" on="1"/>
        <pt x="575" y="570" on="0"/>
        <pt x="662" y="463" on="0"/>
        <pt x="662" y="353" on="1"/>
        <pt x="662" y="169" on="0"/>
        <pt x="584" y="-39" on="0"/>
        <pt x="476" y="-39" on="1"/>
        <pt x="406" y="-39" on="0"/>
        <pt x="336" y="-22" on="1"/>
        <pt x="342" y="53" on="1"/>
        <pt x="389" y="37" on="0"/>
        <pt x="457" y="37" on="1"/>
        <pt x="511" y="37" on="0"/>
        <pt x="565" y="120" on="0"/>
        <pt x="581" y="249" on="0"/>
        <pt x="581" y="345" on="1"/>
        <pt x="581" y="426" on="0"/>
        <pt x="511" y="497" on="0"/>
        <pt x="431" y="492" on="1"/>
        <pt x="373" y="489" on="1"/>
        <pt x="344" y="333" on="0"/>
        <pt x="234" y="55" on="0"/>
        <pt x="159" y="-57" on="1"/>
        <pt x="83" y="-25" on="1"/>
        <pt x="155" y="80" on="0"/>
        <pt x="261" y="340" on="0"/>
        <pt x="289" y="483" on="1"/>
        <pt x="99" y="472" on="1"/>
        <pt x="95" y="547" on="1"/>
        <pt x="302" y="560" on="1"/>
        <pt x="319" y="668" on="0"/>
        <pt x="319" y="775" on="1"/>
        <pt x="403" y="775" on="1"/>
        <pt x="400" y="667" on="0"/>
        <pt x="385" y="565" on="1"/>
      </contour>
      <contour>
        <pt x="781" y="645" on="1"/>
        <pt x="849" y="563" on="0"/>
        <pt x="918" y="356" on="0"/>
        <pt x="934" y="233" on="1"/>
        <pt x="856" y="217" on="1"/>
        <pt x="841" y="339" on="0"/>
        <pt x="779" y="531" on="0"/>
        <pt x="714" y="607" on="1"/>
      </contour>
    </TTGlyph>
    <TTGlyph name="uni304C" xMin="83" yMin="-57" xMax="997" yMax="812">
      <contour>
        <pt x="892" y="812" on="1"/>
        <pt x="952" y="750" on="0"/>
        <pt x="997" y="661" on="1"/>
        <pt x="944" y="633" on="1"/>
        <pt x="927" y="669" on="0"/>
        <pt x="871" y="753" on="0"/>
        <pt x="841" y="784" on="1"/>
      </contour>
      <contour>
        <pt x="457" y="569" on="1"/>
        <pt x="465" y="570" on="0"/>
        <pt x="480" y="570" on="1"/>
        <pt x="575" y="570" on="0"/>
        <pt x="662" y="463" on="0"/>
        <pt x="662" y="353" on="1"/>
        <pt x="662" y="169" on="0"/>
        <pt x="584" y="-39" on="0"/>
        <pt x="476" y="-39" on="1"/>
        <pt x="406" y="-39" on="0"/>
        <pt x="336" y="-22" on="1"/>
        <pt x="342" y="53" on="1"/>
        <pt x="389" y="37" on="0"/>
        <pt x="457" y="37" on="1"/>
        <pt x="511" y="37" on="0"/>
        <pt x="565" y="120" on="0"/>
        <pt x="581" y="249" on="0"/>
        <pt x="581" y="345" on="1"/>
        <pt x="581" y="426" on="0"/>
        <pt x="511" y="497" on="0"/>
        <pt x="431" y="492" on="1"/>
        <pt x="373" y="489" on="1"/>
        <pt x="344" y="333" on="0"/>
        <pt x="234" y="55" on="0"/>
        <pt x="159" y="-57" on="1"/>
        <pt x="83" y="-25" on="1"/>
        <pt x="155" y="80" on="0"/>
        <pt x="261" y="340" on="0"/>
        <pt x="289" y="483" on="1"/>
        <pt x="99" y="472" on="1"/>
        <pt x="95" y="547" on="1"/>
        <pt x="302" y="560" on="1"/>
        <pt x="319" y="668" on="0"/>
        <pt x="319" y="775" on="1"/>
        <pt x="403" y="775" on="1"/>
        <pt x="400" y="667" on="0"/>
        <pt x="385" y="565" on="1"/>
      </contour>
      <contour>
        <pt x="821" y="573" on="1"/>
        <pt x="802" y="611" on="0"/>
        <pt x="747" y="693" on="0"/>
        <pt x="720" y="722" on="1"/>
        <pt x="771" y="751" on="1"/>
        <pt x="822" y="696" on="0"/>
        <pt x="876" y="601" on="1"/>
      </contour>
      <contour>
        <pt x="828" y="541" on="1"/>
        <pt x="891" y="419" on="0"/>
        <pt x="915" y="233" on="1"/>
        <pt x="837" y="217" on="1"/>
        <pt x="825" y="306" on="0"/>
        <pt x="791" y="446" on="0"/>
        <pt x="759" y="508" on="1"/>
      </contour>
    </TTGlyph>
    <TTGlyph name="uni304D" xMin="113" yMin="-65" xMax="892" yMax="790">
      <contour>
        <pt x="663" y="210" on="1"/>
        <pt x="582" y="197" on="1"/>
        <pt x="529" y="382" on="1"/>
        <pt x="117" y="356" on="1"/>
        <pt x="113" y="430" on="1"/>
        <pt x="508" y="455" on="1"/>
        <pt x="471" y="583" on="1"/>
        <pt x="150" y="562" on="1"/>
        <pt x="146" y="636" on="1"/>
        <pt x="450" y="656" on="1"/>
        <pt x="415" y="779" on="1"/>
        <pt x="498" y="790" on="1"/>
        <pt x="535" y="661" on="1"/>
        <pt x="830" y="680" on="1"/>
        <pt x="836" y="606" on="1"/>
        <pt x="555" y="588" on="1"/>
        <pt x="592" y="460" on="1"/>
        <pt x="886" y="478" on="1"/>
        <pt x="892" y="404" on="1"/>
        <pt x="613" y="387" on="1"/>
      </contour>
      <contour>
        <pt x="314" y="56" on="0"/>
        <pt x="430" y="6" on="0"/>
        <pt x="563" y="6" on="1"/>
        <pt x="786" y="6" on="1"/>
        <pt x="786" y="-65" on="1"/>
        <pt x="571" y="-65" on="1"/>
        <pt x="393" y="-65" on="0"/>
        <pt x="234" y="10" on="0"/>
        <pt x="234" y="93" on="1"/>
        <pt x="234" y="161" on="0"/>
        <pt x="270" y="220" on="1"/>
        <pt x="352" y="220" on="1"/>
        <pt x="314" y="160" on="0"/>
        <pt x="314" y="113" on="1"/>
      </contour>
    </TTGlyph>
    <TTGlyph name="uni304E" xMin="98" yMin="-65" xMax="941" yMax="902">
      <contour>
        <pt x="876" y="902" on="1"/>
        <pt x="895" y="871" on="0"/>
        <pt x="930" y="777" on="0"/>
        <pt x="941" y="734" on="1"/>
        <pt x="882" y="725" on="1"/>
        <pt x="856" y="830" on="0"/>
        <pt x="820" y="893" on="1"/>
      </contour>
      <contour>
        <pt x="751" y="701" on="1"/>
        <pt x="725" y="801" on="0"/>
        <pt x="687" y="869" on="1"/>
        <pt x="744" y="879" on="1"/>
        <pt x="775" y="826" on="0"/>
        <pt x="810" y="710" on="1"/>
      </contour>
      <contour>
        <pt x="540" y="588" on="1"/>
        <pt x="577" y="460" on="1"/>
        <pt x="871" y="478" on="1"/>
        <pt x="877" y="404" on="1"/>
        <pt x="598" y="387" on="1"/>
        <pt x="648" y="210" on="1"/>
        <pt x="567" y="197" on="1"/>
        <pt x="514" y="382" on="1"/>
        <pt x="102" y="356" on="1"/>
        <pt x="98" y="430" on="1"/>
        <pt x="493" y="455" on="1"/>
        <pt x="456" y="583" on="1"/>
        <pt x="135" y="562" on="1"/>
        <pt x="131" y="636" on="1"/>
        <pt x="435" y="656" on="1"/>
        <pt x="400" y="779" on="1"/>
        <pt x="483" y="790" on="1"/>
        <pt x="520" y="661" on="1"/>
        <pt x="815" y="680" on="1"/>
        <pt x="821" y="606" on="1"/>
      </contour>
      <contour>
        <pt x="299" y="56" on="0"/>
        <pt x="415" y="6" on="0"/>
        <pt x="548" y="6" on="1"/>
        <pt x="771" y="6" on="1"/>
        <pt x="771" y="-65" on="1"/>
        <pt x="556" y="-65" on="1"/>
        <pt x="378" y="-65" on="0"/>
        <pt x="219" y="10" on="0"/>
        <pt x="219" y="93" on="1"/>
        <pt x="219" y="161" on="0"/>
        <pt x="255" y="220" on="1"/>
        <pt x="337" y="220" on="1"/>
        <pt x="299" y="160" on="0"/>
        <pt x="299" y="113" on="1"/>
      </contour>
    </TTGlyph>
    <TTGlyph name="uni304F" xMin="214" yMin="-84" xMax="798" yMax="789">
      <contour>
        <pt x="732" y="-84" on="1"/>
        <pt x="651" y="-6" on="0"/>
        <pt x="390" y="192" on="0"/>
        <pt x="268" y="271" on="1"/>
        <pt x="240" y="290" on="0"/>
        <pt x="214" y="327" on="0"/>
        <pt x="214" y="349" on="1"/>
        <pt x="214" y="366" on="0"/>
        <pt x="233" y="397" on="0"/>
        <pt x="255" y="417" on="1"/>
        <pt x="347" y="497" on="0"/>
        <pt x="560" y="703" on="0"/>
        <pt x="641" y="789" on="1"/>
        <pt x="710" y="737" on="1"/>
        <pt x="641" y="664" on="0"/>
        <pt x="413" y="453" on="0"/>
        <pt x="323" y="377" on="1"/>
        <pt x="316" y="371" on="0"/>
        <pt x="306" y="358" on="0"/>
        <pt x="306" y="352" on="1"/>
        <pt x="306" y="345" on="0"/>
        <pt x="314" y="336" on="0"/>
        <pt x="325" y="329" on="1"/>
        <pt x="463" y="240" on="0"/>
        <pt x="729" y="46" on="0"/>
        <pt x="798" y="-19" on="1"/>
      </contour>
    </TTGlyph>
    <TTGlyph name="uni3050" xMin="214" yMin="-84" xMax="863" yMax="789">
      <contour>
        <pt x="732" y="-84" on="1"/>
        <pt x="651" y="-6" on="0"/>
        <pt x="390" y="192" on="0"/>
        <pt x="268" y="271" on="1"/>
        <pt x="240" y="290" on="0"/>
        <pt x="214" y="327" on="0"/>
        <pt x="214" y="349" on="1"/>
        <pt x="214" y="366" on="0"/>
        <pt x="233" y="397" on="0"/>
        <pt x="255" y="417" on="1"/>
        <pt x="347" y="497" on="0"/>
        <pt x="560" y="703" on="0"/>
        <pt x="641" y="789" on="1"/>
        <pt x="710" y="737" on="1"/>
        <pt x="633" y="660" on="0"/>
        <pt x="421" y="462" on="0"/>
        <pt x="323" y="377" on="1"/>
        <pt x="316" y="371" on="0"/>
        <pt x="306" y="358" on="0"/>
        <pt x="306" y="352" on="1"/>
        <pt x="306" y="345" on="0"/>
        <pt x="314" y="336" on="0"/>
        <pt x="325" y="329" on="1"/>
        <pt x="463" y="240" on="0"/>
        <pt x="729" y="46" on="0"/>
        <pt x="798" y="-19" on="1"/>
      </contour>
      <contour>
        <pt x="809" y="414" on="1"/>
        <pt x="790" y="453" on="0"/>
        <pt x="736" y="536" on="0"/>
        <pt x="709" y="565" on="1"/>
        <pt x="760" y="593" on="1"/>
        <pt x="817" y="532" on="0"/>
        <pt x="863" y="441" on="1"/>
      </contour>
      <contour>
        <pt x="685" y="354" on="1"/>
        <pt x="666" y="394" on="0"/>
        <pt x="612" y="476" on="0"/>
        <pt x="586" y="505" on="1"/>
        <pt x="637" y="532" on="1"/>
        <pt x="693" y="471" on="0"/>
        <pt x="740" y="381" on="1"/>
      </contour>
    </TTGlyph>
    <TTGlyph name="uni3051" xMin="115" yMin="-85" xMax="896" yMax="780">
      <contour>
        <pt x="896" y="558" on="1"/>
        <pt x="896" y="480" on="1"/>
        <pt x="747" y="480" on="1"/>
        <pt x="747" y="413" on="1"/>
        <pt x="747" y="278" on="0"/>
        <pt x="710" y="97" on="0"/>
        <pt x="624" y="-33" on="0"/>
        <pt x="548" y="-85" on="1"/>
        <pt x="481" y="-26" on="1"/>
        <pt x="553" y="23" on="0"/>
        <pt x="632" y="134" on="0"/>
        <pt x="665" y="289" on="0"/>
        <pt x="665" y="412" on="1"/>
        <pt x="665" y="480" on="1"/>
        <pt x="341" y="480" on="1"/>
        <pt x="341" y="558" on="1"/>
        <pt x="665" y="558" on="1"/>
        <pt x="665" y="779" on="1"/>
        <pt x="747" y="780" on="1"/>
        <pt x="747" y="558" on="1"/>
      </contour>
      <contour>
        <pt x="228" y="747" on="1"/>
        <pt x="197" y="581" on="0"/>
        <pt x="197" y="368" on="1"/>
        <pt x="197" y="178" on="0"/>
        <pt x="239" y="12" on="1"/>
        <pt x="158" y="12" on="1"/>
        <pt x="138" y="82" on="0"/>
        <pt x="115" y="260" on="0"/>
        <pt x="115" y="361" on="1"/>
        <pt x="115" y="462" on="0"/>
        <pt x="131" y="667" on="0"/>
        <pt x="146" y="747" on="1"/>
      </contour>
    </TTGlyph>
    <TTGlyph name="uni3052" xMin="85" yMin="-85" xMax="1010" yMax="853">
      <contour>
        <pt x="953" y="853" on="1"/>
        <pt x="970" y="818" on="0"/>
        <pt x="1002" y="721" on="0"/>
        <pt x="1010" y="679" on="1"/>
        <pt x="950" y="668" on="1"/>
        <pt x="928" y="773" on="0"/>
        <pt x="896" y="841" on="1"/>
      </contour>
      <contour>
        <pt x="821" y="823" on="1"/>
        <pt x="855" y="757" on="0"/>
        <pt x="879" y="649" on="1"/>
        <pt x="819" y="638" on="1"/>
        <pt x="811" y="681" on="0"/>
        <pt x="781" y="774" on="0"/>
        <pt x="764" y="811" on="1"/>
      </contour>
      <contour>
        <pt x="717" y="780" on="1"/>
        <pt x="717" y="558" on="1"/>
        <pt x="866" y="558" on="1"/>
        <pt x="866" y="480" on="1"/>
        <pt x="717" y="480" on="1"/>
        <pt x="717" y="413" on="1"/>
        <pt x="717" y="278" on="0"/>
        <pt x="680" y="97" on="0"/>
        <pt x="594" y="-33" on="0"/>
        <pt x="518" y="-85" on="1"/>
        <pt x="451" y="-26" on="1"/>
        <pt x="523" y="23" on="0"/>
        <pt x="602" y="134" on="0"/>
        <pt x="635" y="289" on="0"/>
        <pt x="635" y="412" on="1"/>
        <pt x="635" y="480" on="1"/>
        <pt x="311" y="480" on="1"/>
        <pt x="311" y="558" on="1"/>
        <pt x="635" y="558" on="1"/>
        <pt x="635" y="779" on="1"/>
      </contour>
      <contour>
        <pt x="198" y="747" on="1"/>
        <pt x="167" y="581" on="0"/>
        <pt x="167" y="368" on="1"/>
        <pt x="167" y="178" on="0"/>
        <pt x="209" y="12" on="1"/>
        <pt x="128" y="12" on="1"/>
        <pt x="108" y="82" on="0"/>
        <pt x="85" y="260" on="0"/>
        <pt x="85" y="361" on="1"/>
        <pt x="85" y="462" on="0"/>
        <pt x="101" y="667" on="0"/>
        <pt x="116" y="747" on="1"/>
      </contour>
    </TTGlyph>
    <TTGlyph name="uni3053" xMin="161" yMin="-26" xMax="838" yMax="714">
      <contour>
        <pt x="487" y="529" on="1"/>
        <pt x="583" y="591" on="0"/>
        <pt x="684" y="636" on="1"/>
        <pt x="209" y="636" on="1"/>
        <pt x="209" y="714" on="1"/>
        <pt x="785" y="714" on="1"/>
        <pt x="808" y="622" on="1"/>
        <pt x="648" y="543" on="0"/>
        <pt x="530" y="466" on="1"/>
      </contour>
      <contour>
        <pt x="535" y="-26" on="1"/>
        <pt x="352" y="-26" on="0"/>
        <pt x="161" y="70" on="0"/>
        <pt x="161" y="161" on="1"/>
        <pt x="161" y="218" on="0"/>
        <pt x="216" y="317" on="0"/>
        <pt x="276" y="365" on="1"/>
        <pt x="333" y="311" on="1"/>
        <pt x="288" y="274" on="0"/>
        <pt x="245" y="208" on="0"/>
        <pt x="245" y="172" on="1"/>
        <pt x="245" y="52" on="0"/>
        <pt x="539" y="52" on="1"/>
        <pt x="838" y="52" on="1"/>
        <pt x="838" y="-26" on="1"/>
      </contour>
    </TTGlyph>
    <TTGlyph name="uni3054" xMin="161" yMin="-26" xMax="937" yMax="714">
      <contour>
        <pt x="487" y="529" on="1"/>
        <pt x="583" y="591" on="0"/>
        <pt x="684" y="636" on="1"/>
        <pt x="209" y="636" on="1"/>
        <pt x="209" y="714" on="1"/>
        <pt x="785" y="714" on="1"/>
        <pt x="808" y="622" on="1"/>
        <pt x="648" y="543" on="0"/>
        <pt x="530" y="466" on="1"/>
      </contour>
      <contour>
        <pt x="884" y="382" on="1"/>
        <pt x="865" y="420" on="0"/>
        <pt x="809" y="503" on="0"/>
        <pt x="781" y="532" on="1"/>
        <pt x="832" y="561" on="1"/>
        <pt x="889" y="501" on="0"/>
        <pt x="937" y="412" on="1"/>
      </contour>
      <contour>
        <pt x="769" y="313" on="1"/>
        <pt x="749" y="352" on="0"/>
        <pt x="694" y="433" on="0"/>
        <pt x="667" y="462" on="1"/>
        <pt x="717" y="492" on="1"/>
        <pt x="770" y="434" on="0"/>
        <pt x="823" y="342" on="1"/>
      </contour>
      <contour>
        <pt x="535" y="-26" on="1"/>
        <pt x="352" y="-26" on="0"/>
        <pt x="161" y="70" on="0"/>
        <pt x="161" y="161" on="1"/>
        <pt x="161" y="218" on="0"/>
        <pt x="216" y="317" on="0"/>
        <pt x="276" y="365" on="1"/>
        <pt x="335" y="311" on="1"/>
        <pt x="289" y="274" on="0"/>
        <pt x="245" y="208" on="0"/>
        <pt x="245" y="172" on="1"/>
        <pt x="245" y="52" on="0"/>
        <pt x="541" y="52" on="1"/>
        <pt x="838" y="52" on="1"/>
        <pt x="838" y="-26" on="1"/>
      </contour>
    </TTGlyph>
    <TTGlyph name="uni3055" xMin="112" yMin="-47" xMax="892" yMax="790">
      <contour>
        <pt x="681" y="258" on="1"/>
        <pt x="598" y="242" on="1"/>
        <pt x="517" y="521" on="1"/>
        <pt x="116" y="496" on="1"/>
        <pt x="112" y="575" on="1"/>
        <pt x="494" y="599" on="1"/>
        <pt x="442" y="776" on="1"/>
        <pt x="523" y="790" on="1"/>
        <pt x="578" y="604" on="1"/>
        <pt x="887" y="623" on="1"/>
        <pt x="892" y="544" on="1"/>
        <pt x="601" y="526" on="1"/>
      </contour>
      <contour>
        <pt x="302" y="93" on="0"/>
        <pt x="422" y="30" on="0"/>
        <pt x="556" y="30" on="1"/>
        <pt x="801" y="30" on="1"/>
        <pt x="801" y="-47" on="1"/>
        <pt x="552" y="-47" on="1"/>
        <pt x="381" y="-47" on="0"/>
        <pt x="219" y="47" on="0"/>
        <pt x="219" y="141" on="1"/>
        <pt x="219" y="221" on="0"/>
        <pt x="261" y="292" on="1"/>
        <pt x="347" y="292" on="1"/>
        <pt x="302" y="220" on="0"/>
        <pt x="302" y="160" on="1"/>
      </contour>
    </TTGlyph>
    <TTGlyph name="uni3056" xMin="97" yMin="-47" xMax="992" yMax="858">
      <contour>
        <pt x="927" y="858" on="1"/>
        <pt x="946" y="826" on="0"/>
        <pt x="982" y="731" on="0"/>
        <pt x="992" y="689" on="1"/>
        <pt x="933" y="680" on="1"/>
        <pt x="907" y="786" on="0"/>
        <pt x="870" y="848" on="1"/>
      </contour>
      <contour>
        <pt x="802" y="657" on="1"/>
        <pt x="776" y="756" on="0"/>
        <pt x="738" y="825" on="1"/>
        <pt x="795" y="835" on="1"/>
        <pt x="814" y="803" on="0"/>
        <pt x="844" y="721" on="0"/>
        <pt x="861" y="666" on="1"/>
      </contour>
      <contour>
        <pt x="508" y="790" on="1"/>
        <pt x="563" y="604" on="1"/>
        <pt x="872" y="623" on="1"/>
        <pt x="877" y="544" on="1"/>
        <pt x="586" y="526" on="1"/>
        <pt x="666" y="258" on="1"/>
        <pt x="583" y="242" on="1"/>
        <pt x="502" y="521" on="1"/>
        <pt x="101" y="496" on="1"/>
        <pt x="97" y="575" on="1"/>
        <pt x="479" y="599" on="1"/>
        <pt x="427" y="776" on="1"/>
      </contour>
      <contour>
        <pt x="287" y="93" on="0"/>
        <pt x="407" y="30" on="0"/>
        <pt x="541" y="30" on="1"/>
        <pt x="786" y="30" on="1"/>
        <pt x="786" y="-47" on="1"/>
        <pt x="537" y="-47" on="1"/>
        <pt x="366" y="-47" on="0"/>
        <pt x="204" y="47" on="0"/>
        <pt x="204" y="141" on="1"/>
        <pt x="204" y="221" on="0"/>
        <pt x="246" y="292" on="1"/>
        <pt x="332" y="292" on="1"/>
        <pt x="287" y="220" on="0"/>
        <pt x="287" y="160" on="1"/>
      </contour>
    </TTGlyph>
    <TTGlyph name="uni3057" xMin="209" yMin="-46" xMax="845" yMax="784">
      <contour>
        <pt x="323" y="-46" on="0"/>
        <pt x="209" y="119" on="0"/>
        <pt x="210" y="274" on="1"/>
        <pt x="212" y="784" on="1"/>
        <pt x="297" y="784" on="1"/>
        <pt x="296" y="283" on="1"/>
        <pt x="296" y="37" on="0"/>
        <pt x="443" y="37" on="1"/>
        <pt x="535" y="37" on="0"/>
        <pt x="709" y="174" on="0"/>
        <pt x="781" y="298" on="1"/>
        <pt x="845" y="239" on="1"/>
        <pt x="758" y="103" on="0"/>
        <pt x="551" y="-46" on="0"/>
        <pt x="434" y="-46" on="1"/>
      </contour>
    </TTGlyph>
    <TTGlyph name="uni3058" xMin="212" yMin="-46" xMax="848" yMax="792">
      <contour>
        <pt x="794" y="612" on="1"/>
        <pt x="775" y="651" on="0"/>
        <pt x="721" y="734" on="0"/>
        <pt x="694" y="764" on="1"/>
        <pt x="745" y="792" on="1"/>
        <pt x="801" y="732" on="0"/>
        <pt x="848" y="641" on="1"/>
      </contour>
      <contour>
        <pt x="323" y="-46" on="0"/>
        <pt x="212" y="118" on="0"/>
        <pt x="212" y="274" on="1"/>
        <pt x="213" y="784" on="1"/>
        <pt x="297" y="784" on="1"/>
        <pt x="296" y="283" on="1"/>
        <pt x="296" y="37" on="0"/>
        <pt x="443" y="37" on="1"/>
        <pt x="535" y="37" on="0"/>
        <pt x="709" y="174" on="0"/>
        <pt x="781" y="298" on="1"/>
        <pt x="844" y="240" on="1"/>
        <pt x="757" y="103" on="0"/>
        <pt x="551" y="-46" on="0"/>
        <pt x="434" y="-46" on="1"/>
      </contour>
      <contour>
        <pt x="678" y="546" on="1"/>
        <pt x="659" y="585" on="0"/>
        <pt x="604" y="667" on="0"/>
        <pt x="578" y="696" on="1"/>
        <pt x="629" y="724" on="1"/>
        <pt x="683" y="665" on="0"/>
        <pt x="733" y="573" on="1"/>
      </contour>
    </TTGlyph>
    <TTGlyph name="uni3059" xMin="94" yMin="-71" xMax="910" yMax="789">
      <contour>
        <pt x="910" y="594" on="1"/>
        <pt x="648" y="594" on="1"/>
        <pt x="648" y="356" on="1"/>
        <pt x="652" y="327" on="0"/>
        <pt x="652" y="274" on="1"/>
        <pt x="652" y="152" on="0"/>
        <pt x="513" y="-24" on="0"/>
        <pt x="332" y="-71" on="1"/>
        <pt x="307" y="-3" on="1"/>
        <pt x="435" y="30" on="0"/>
        <pt x="564" y="144" on="0"/>
        <pt x="569" y="224" on="1"/>
        <pt x="554" y="209" on="0"/>
        <pt x="494" y="188" on="0"/>
        <pt x="461" y="188" on="1"/>
        <pt x="420" y="188" on="0"/>
        <pt x="349" y="226" on="0"/>
        <pt x="306" y="296" on="0"/>
        <pt x="306" y="341" on="1"/>
        <pt x="306" y="385" on="0"/>
        <pt x="347" y="456" on="0"/>
        <pt x="418" y="497" on="0"/>
        <pt x="460" y="497" on="1"/>
        <pt x="521" y="497" on="0"/>
        <pt x="566" y="463" on="1"/>
        <pt x="566" y="594" on="1"/>
        <pt x="94" y="594" on="1"/>
        <pt x="94" y="672" on="1"/>
        <pt x="566" y="672" on="1"/>
        <pt x="566" y="789" on="1"/>
        <pt x="648" y="789" on="1"/>
        <pt x="648" y="672" on="1"/>
        <pt x="910" y="672" on="1"/>
      </contour>
      <contour>
        <pt x="517" y="255" on="0"/>
        <pt x="569" y="303" on="0"/>
        <pt x="569" y="340" on="1"/>
        <pt x="569" y="378" on="0"/>
        <pt x="514" y="430" on="0"/>
        <pt x="474" y="430" on="1"/>
        <pt x="434" y="430" on="0"/>
        <pt x="382" y="379" on="0"/>
        <pt x="382" y="341" on="1"/>
        <pt x="382" y="304" on="0"/>
        <pt x="436" y="255" on="0"/>
        <pt x="477" y="255" on="1"/>
      </contour>
    </TTGlyph>
    <TTGlyph name="uni305A" xMin="89" yMin="-71" xMax="968" yMax="902">
      <contour>
        <pt x="903" y="902" on="1"/>
        <pt x="921" y="871" on="0"/>
        <pt x="956" y="778" on="0"/>
        <pt x="968" y="734" on="1"/>
        <pt x="909" y="725" on="1"/>
        <pt x="879" y="837" on="0"/>
        <pt x="846" y="893" on="1"/>
      </contour>
      <contour>
        <pt x="777" y="701" on="1"/>
        <pt x="750" y="804" on="0"/>
        <pt x="714" y="869" on="1"/>
        <pt x="771" y="879" on="1"/>
        <pt x="805" y="819" on="0"/>
        <pt x="836" y="710" on="1"/>
      </contour>
      <contour>
        <pt x="643" y="789" on="1"/>
        <pt x="643" y="672" on="1"/>
        <pt x="905" y="672" on="1"/>
        <pt x="905" y="594" on="1"/>
        <pt x="643" y="594" on="1"/>
        <pt x="643" y="356" on="1"/>
        <pt x="647" y="327" on="0"/>
        <pt x="647" y="274" on="1"/>
        <pt x="647" y="152" on="0"/>
        <pt x="508" y="-24" on="0"/>
        <pt x="327" y="-71" on="1"/>
        <pt x="302" y="-3" on="1"/>
        <pt x="430" y="30" on="0"/>
        <pt x="559" y="144" on="0"/>
        <pt x="564" y="224" on="1"/>
        <pt x="549" y="209" on="0"/>
        <pt x="489" y="188" on="0"/>
        <pt x="456" y="188" on="1"/>
        <pt x="415" y="188" on="0"/>
        <pt x="344" y="226" on="0"/>
        <pt x="301" y="296" on="0"/>
        <pt x="301" y="341" on="1"/>
        <pt x="301" y="385" on="0"/>
        <pt x="342" y="456" on="0"/>
        <pt x="413" y="497" on="0"/>
        <pt x="455" y="497" on="1"/>
        <pt x="516" y="497" on="0"/>
        <pt x="561" y="463" on="1"/>
        <pt x="561" y="594" on="1"/>
        <pt x="89" y="594" on="1"/>
        <pt x="89" y="672" on="1"/>
        <pt x="561" y="672" on="1"/>
        <pt x="561" y="789" on="1"/>
      </contour>
      <contour>
        <pt x="512" y="255" on="0"/>
        <pt x="564" y="303" on="0"/>
        <pt x="564" y="340" on="1"/>
        <pt x="564" y="378" on="0"/>
        <pt x="509" y="430" on="0"/>
        <pt x="469" y="430" on="1"/>
        <pt x="429" y="430" on="0"/>
        <pt x="377" y="379" on="0"/>
        <pt x="377" y="341" on="1"/>
        <pt x="377" y="304" on="0"/>
        <pt x="431" y="255" on="0"/>
        <pt x="472" y="255" on="1"/>
      </contour>
    </TTGlyph>
    <TTGlyph name="uni305B" xMin="59" yMin="-51" xMax="938" yMax="786">
      <contour>
        <pt x="357" y="219" on="1"/>
        <pt x="357" y="144" on="0"/>
        <pt x="393" y="62" on="0"/>
        <pt x="484" y="27" on="0"/>
        <pt x="570" y="27" on="1"/>
        <pt x="789" y="27" on="1"/>
        <pt x="789" y="-51" on="1"/>
        <pt x="571" y="-51" on="1"/>
        <pt x="460" y="-51" on="0"/>
        <pt x="334" y="-5" on="0"/>
        <pt x="275" y="110" on="0"/>
        <pt x="275" y="216" on="1"/>
        <pt x="275" y="442" on="1"/>
        <pt x="63" y="427" on="1"/>
        <pt x="59" y="505" on="1"/>
        <pt x="274" y="520" on="1"/>
        <pt x="274" y="752" on="1"/>
        <pt x="356" y="752" on="1"/>
        <pt x="356" y="526" on="1"/>
        <pt x="647" y="547" on="1"/>
        <pt x="647" y="786" on="1"/>
        <pt x="729" y="786" on="1"/>
        <pt x="729" y="553" on="1"/>
        <pt x="935" y="568" on="1"/>
        <pt x="938" y="490" on="1"/>
        <pt x="729" y="475" on="1"/>
        <pt x="729" y="406" on="1"/>
        <pt x="729" y="321" on="0"/>
        <pt x="708" y="236" on="0"/>
        <pt x="650" y="203" on="0"/>
        <pt x="593" y="205" on="1"/>
        <pt x="487" y="209" on="1"/>
        <pt x="479" y="286" on="1"/>
        <pt x="561" y="282" on="1"/>
        <pt x="595" y="280" on="0"/>
        <pt x="632" y="299" on="0"/>
        <pt x="647" y="351" on="0"/>
        <pt x="647" y="402" on="1"/>
        <pt x="647" y="469" on="1"/>
        <pt x="357" y="448" on="1"/>
      </contour>
    </TTGlyph>
    <TTGlyph name="uni305C" xMin="59" yMin="-57" xMax="1030" yMax="836">
      <contour>
        <pt x="965" y="836" on="1"/>
        <pt x="983" y="805" on="0"/>
        <pt x="1019" y="711" on="0"/>
        <pt x="1030" y="667" on="1"/>
        <pt x="971" y="658" on="1"/>
        <pt x="942" y="765" on="0"/>
        <pt x="908" y="826" on="1"/>
      </contour>
      <contour>
        <pt x="839" y="635" on="1"/>
        <pt x="812" y="737" on="0"/>
        <pt x="776" y="803" on="1"/>
        <pt x="832" y="813" on="1"/>
        <pt x="866" y="755" on="0"/>
        <pt x="898" y="644" on="1"/>
      </contour>
      <contour>
        <pt x="561" y="275" on="1"/>
        <pt x="595" y="273" on="0"/>
        <pt x="631" y="292" on="0"/>
        <pt x="646" y="345" on="0"/>
        <pt x="646" y="396" on="1"/>
        <pt x="646" y="463" on="1"/>
        <pt x="357" y="442" on="1"/>
        <pt x="357" y="213" on="1"/>
        <pt x="358" y="138" on="0"/>
        <pt x="393" y="56" on="0"/>
        <pt x="484" y="20" on="0"/>
        <pt x="570" y="20" on="1"/>
        <pt x="789" y="20" on="1"/>
        <pt x="789" y="-57" on="1"/>
        <pt x="571" y="-57" on="1"/>
        <pt x="460" y="-57" on="0"/>
        <pt x="335" y="-12" on="0"/>
        <pt x="277" y="103" on="0"/>
        <pt x="277" y="209" on="1"/>
        <pt x="276" y="436" on="1"/>
        <pt x="63" y="421" on="1"/>
        <pt x="59" y="497" on="1"/>
        <pt x="276" y="513" on="1"/>
        <pt x="275" y="745" on="1"/>
        <pt x="356" y="745" on="1"/>
        <pt x="356" y="519" on="1"/>
        <pt x="646" y="540" on="1"/>
        <pt x="646" y="780" on="1"/>
        <pt x="727" y="780" on="1"/>
        <pt x="727" y="546" on="1"/>
        <pt x="935" y="561" on="1"/>
        <pt x="938" y="484" on="1"/>
        <pt x="727" y="469" on="1"/>
        <pt x="727" y="400" on="1"/>
        <pt x="727" y="315" on="0"/>
        <pt x="707" y="230" on="0"/>
        <pt x="650" y="196" on="0"/>
        <pt x="593" y="199" on="1"/>
        <pt x="487" y="203" on="1"/>
        <pt x="479" y="280" on="1"/>
      </contour>
    </TTGlyph>
    <TTGlyph name="uni305D" xMin="93" yMin="-63" xMax="903" yMax="748">
      <contour>
        <pt x="425" y="63" on="0"/>
        <pt x="550" y="16" on="0"/>
        <pt x="688" y="16" on="1"/>
        <pt x="759" y="16" on="1"/>
        <pt x="749" y="-63" on="1"/>
        <pt x="684" y="-63" on="1"/>
        <pt x="506" y="-63" on="0"/>
        <pt x="341" y="17" on="0"/>
        <pt x="341" y="109" on="1"/>
        <pt x="341" y="171" on="0"/>
        <pt x="431" y="311" on="0"/>
        <pt x="508" y="363" on="1"/>
        <pt x="99" y="326" on="1"/>
        <pt x="93" y="404" on="1"/>
        <pt x="280" y="421" on="1"/>
        <pt x="454" y="530" on="0"/>
        <pt x="639" y="670" on="1"/>
        <pt x="234" y="670" on="1"/>
        <pt x="233" y="748" on="1"/>
        <pt x="753" y="748" on="1"/>
        <pt x="771" y="678" on="1"/>
        <pt x="612" y="555" on="0"/>
        <pt x="429" y="435" on="1"/>
        <pt x="897" y="477" on="1"/>
        <pt x="903" y="399" on="1"/>
        <pt x="648" y="376" on="1"/>
        <pt x="538" y="314" on="0"/>
        <pt x="425" y="184" on="0"/>
        <pt x="425" y="123" on="1"/>
      </contour>
    </TTGlyph>
    <TTGlyph name="uni305E" xMin="79" yMin="-63" xMax="1030" yMax="791">
      <contour>
        <pt x="965" y="791" on="1"/>
        <pt x="983" y="760" on="0"/>
        <pt x="1018" y="667" on="0"/>
        <pt x="1030" y="623" on="1"/>
        <pt x="971" y="614" on="1"/>
        <pt x="942" y="721" on="0"/>
        <pt x="908" y="782" on="1"/>
      </contour>
      <contour>
        <pt x="832" y="768" on="1"/>
        <pt x="867" y="708" on="0"/>
        <pt x="898" y="599" on="1"/>
        <pt x="839" y="590" on="1"/>
        <pt x="812" y="693" on="0"/>
        <pt x="776" y="758" on="1"/>
      </contour>
      <contour>
        <pt x="634" y="376" on="1"/>
        <pt x="524" y="314" on="0"/>
        <pt x="411" y="184" on="0"/>
        <pt x="411" y="123" on="1"/>
        <pt x="411" y="63" on="0"/>
        <pt x="536" y="16" on="0"/>
        <pt x="674" y="16" on="1"/>
        <pt x="745" y="16" on="1"/>
        <pt x="735" y="-63" on="1"/>
        <pt x="670" y="-63" on="1"/>
        <pt x="492" y="-63" on="0"/>
        <pt x="327" y="17" on="0"/>
        <pt x="327" y="109" on="1"/>
        <pt x="327" y="171" on="0"/>
        <pt x="417" y="311" on="0"/>
        <pt x="494" y="363" on="1"/>
        <pt x="85" y="326" on="1"/>
        <pt x="79" y="404" on="1"/>
        <pt x="266" y="421" on="1"/>
        <pt x="440" y="530" on="0"/>
        <pt x="625" y="670" on="1"/>
        <pt x="220" y="670" on="1"/>
        <pt x="219" y="748" on="1"/>
        <pt x="739" y="748" on="1"/>
        <pt x="757" y="678" on="1"/>
        <pt x="598" y="555" on="0"/>
        <pt x="415" y="435" on="1"/>
        <pt x="883" y="477" on="1"/>
        <pt x="889" y="399" on="1"/>
      </contour>
    </TTGlyph>
    <TTGlyph name="uni305F" xMin="92" yMin="-66" xMax="907" yMax="784">
      <contour>
        <pt x="682" y="579" on="1"/>
        <pt x="384" y="579" on="1"/>
        <pt x="361" y="408" on="0"/>
        <pt x="246" y="73" on="0"/>
        <pt x="162" y="-66" on="1"/>
        <pt x="92" y="-26" on="1"/>
        <pt x="170" y="105" on="0"/>
        <pt x="279" y="417" on="0"/>
        <pt x="302" y="579" on="1"/>
        <pt x="105" y="579" on="1"/>
        <pt x="105" y="655" on="1"/>
        <pt x="311" y="655" on="1"/>
        <pt x="318" y="730" on="0"/>
        <pt x="318" y="784" on="1"/>
        <pt x="399" y="784" on="1"/>
        <pt x="399" y="721" on="0"/>
        <pt x="393" y="655" on="1"/>
        <pt x="682" y="655" on="1"/>
      </contour>
      <contour>
        <pt x="516" y="431" on="1"/>
        <pt x="578" y="436" on="0"/>
        <pt x="756" y="442" on="0"/>
        <pt x="828" y="442" on="1"/>
        <pt x="875" y="442" on="0"/>
        <pt x="894" y="441" on="1"/>
        <pt x="894" y="365" on="1"/>
        <pt x="876" y="366" on="0"/>
        <pt x="830" y="366" on="1"/>
        <pt x="756" y="366" on="0"/>
        <pt x="577" y="359" on="0"/>
        <pt x="520" y="354" on="1"/>
      </contour>
      <contour>
        <pt x="907" y="28" on="1"/>
        <pt x="907" y="-48" on="1"/>
        <pt x="757" y="-48" on="1"/>
        <pt x="601" y="-48" on="0"/>
        <pt x="458" y="22" on="0"/>
        <pt x="458" y="97" on="1"/>
        <pt x="458" y="130" on="0"/>
        <pt x="475" y="190" on="0"/>
        <pt x="493" y="224" on="1"/>
        <pt x="572" y="224" on="1"/>
        <pt x="538" y="163" on="0"/>
        <pt x="538" y="117" on="1"/>
        <pt x="538" y="70" on="0"/>
        <pt x="642" y="28" on="0"/>
        <pt x="763" y="28" on="1"/>
      </contour>
    </TTGlyph>
    <TTGlyph name="uni3060" xMin="92" yMin="-66" xMax="987" yMax="812">
      <contour>
        <pt x="901" y="812" on="1"/>
        <pt x="924" y="781" on="0"/>
        <pt x="972" y="691" on="0"/>
        <pt x="987" y="651" on="1"/>
        <pt x="931" y="627" on="1"/>
        <pt x="889" y="731" on="0"/>
        <pt x="847" y="788" on="1"/>
      </contour>
      <contour>
        <pt x="682" y="579" on="1"/>
        <pt x="384" y="579" on="1"/>
        <pt x="361" y="408" on="0"/>
        <pt x="246" y="73" on="0"/>
        <pt x="162" y="-66" on="1"/>
        <pt x="92" y="-26" on="1"/>
        <pt x="170" y="105" on="0"/>
        <pt x="279" y="417" on="0"/>
        <pt x="302" y="579" on="1"/>
        <pt x="105" y="579" on="1"/>
        <pt x="105" y="655" on="1"/>
        <pt x="311" y="655" on="1"/>
        <pt x="318" y="730" on="0"/>
        <pt x="318" y="784" on="1"/>
        <pt x="399" y="784" on="1"/>
        <pt x="399" y="721" on="0"/>
        <pt x="393" y="655" on="1"/>
        <pt x="682" y="655" on="1"/>
      </contour>
      <contour>
        <pt x="803" y="587" on="1"/>
        <pt x="787" y="628" on="0"/>
        <pt x="742" y="715" on="0"/>
        <pt x="719" y="747" on="1"/>
        <pt x="772" y="771" on="1"/>
        <pt x="820" y="705" on="0"/>
        <pt x="859" y="610" on="1"/>
      </contour>
      <contour>
        <pt x="516" y="431" on="1"/>
        <pt x="578" y="436" on="0"/>
        <pt x="756" y="442" on="0"/>
        <pt x="828" y="442" on="1"/>
        <pt x="875" y="442" on="0"/>
        <pt x="894" y="441" on="1"/>
        <pt x="894" y="365" on="1"/>
        <pt x="876" y="366" on="0"/>
        <pt x="830" y="366" on="1"/>
        <pt x="756" y="366" on="0"/>
        <pt x="577" y="359" on="0"/>
        <pt x="520" y="354" on="1"/>
      </contour>
      <contour>
        <pt x="538" y="70" on="0"/>
        <pt x="642" y="28" on="0"/>
        <pt x="763" y="28" on="1"/>
        <pt x="907" y="28" on="1"/>
        <pt x="907" y="-48" on="1"/>
        <pt x="757" y="-48" on="1"/>
        <pt x="601" y="-48" on="0"/>
        <pt x="458" y="22" on="0"/>
        <pt x="458" y="97" on="1"/>
        <pt x="458" y="130" on="0"/>
        <pt x="475" y="190" on="0"/>
        <pt x="493" y="224" on="1"/>
        <pt x="572" y="224" on="1"/>
        <pt x="538" y="163" on="0"/>
        <pt x="538" y="117" on="1"/>
      </contour>
    </TTGlyph>
    <TTGlyph name="uni3061" xMin="119" yMin="-59" xMax="880" yMax="806">
      <contour>
        <pt x="880" y="564" on="1"/>
        <pt x="433" y="564" on="1"/>
        <pt x="378" y="339" on="1"/>
        <pt x="434" y="370" on="0"/>
        <pt x="559" y="404" on="0"/>
        <pt x="620" y="404" on="1"/>
        <pt x="720" y="404" on="0"/>
        <pt x="834" y="299" on="0"/>
        <pt x="834" y="207" on="1"/>
        <pt x="834" y="76" on="0"/>
        <pt x="599" y="-59" on="0"/>
        <pt x="380" y="-59" on="1"/>
        <pt x="365" y="18" on="1"/>
        <pt x="754" y="18" on="0"/>
        <pt x="754" y="200" on="1"/>
        <pt x="754" y="261" on="0"/>
        <pt x="676" y="328" on="0"/>
        <pt x="604" y="328" on="1"/>
        <pt x="542" y="328" on="0"/>
        <pt x="413" y="284" on="0"/>
        <pt x="352" y="243" on="1"/>
        <pt x="282" y="278" on="1"/>
        <pt x="350" y="564" on="1"/>
        <pt x="119" y="564" on="1"/>
        <pt x="119" y="640" on="1"/>
        <pt x="368" y="640" on="1"/>
        <pt x="407" y="806" on="1"/>
        <pt x="488" y="792" on="1"/>
        <pt x="451" y="640" on="1"/>
        <pt x="880" y="640" on="1"/>
      </contour>
    </TTGlyph>
    <TTGlyph name="uni3062" xMin="108" yMin="-59" xMax="988" yMax="875">
      <contour>
        <pt x="923" y="875" on="1"/>
        <pt x="941" y="843" on="0"/>
        <pt x="977" y="749" on="0"/>
        <pt x="988" y="706" on="1"/>
        <pt x="929" y="697" on="1"/>
        <pt x="899" y="809" on="0"/>
        <pt x="866" y="865" on="1"/>
      </contour>
      <contour>
        <pt x="797" y="674" on="1"/>
        <pt x="769" y="777" on="0"/>
        <pt x="734" y="841" on="1"/>
        <pt x="790" y="851" on="1"/>
        <pt x="824" y="794" on="0"/>
        <pt x="856" y="682" on="1"/>
      </contour>
      <contour>
        <pt x="477" y="792" on="1"/>
        <pt x="440" y="640" on="1"/>
        <pt x="869" y="640" on="1"/>
        <pt x="869" y="564" on="1"/>
        <pt x="422" y="564" on="1"/>
        <pt x="367" y="339" on="1"/>
        <pt x="423" y="370" on="0"/>
        <pt x="548" y="404" on="0"/>
        <pt x="609" y="404" on="1"/>
        <pt x="709" y="404" on="0"/>
        <pt x="823" y="299" on="0"/>
        <pt x="823" y="207" on="1"/>
        <pt x="823" y="76" on="0"/>
        <pt x="588" y="-59" on="0"/>
        <pt x="369" y="-59" on="1"/>
        <pt x="354" y="18" on="1"/>
        <pt x="743" y="18" on="0"/>
        <pt x="743" y="200" on="1"/>
        <pt x="743" y="261" on="0"/>
        <pt x="665" y="328" on="0"/>
        <pt x="593" y="328" on="1"/>
        <pt x="531" y="328" on="0"/>
        <pt x="402" y="284" on="0"/>
        <pt x="341" y="243" on="1"/>
        <pt x="271" y="278" on="1"/>
        <pt x="339" y="564" on="1"/>
        <pt x="108" y="564" on="1"/>
        <pt x="108" y="640" on="1"/>
        <pt x="357" y="640" on="1"/>
        <pt x="396" y="806" on="1"/>
      </contour>
    </TTGlyph>
    <TTGlyph name="uni3063" xMin="167" yMin="-49" xMax="828" yMax="526">
      <contour>
        <pt x="423" y="28" on="1"/>
        <pt x="589" y="58" on="0"/>
        <pt x="747" y="173" on="0"/>
        <pt x="747" y="278" on="1"/>
        <pt x="747" y="357" on="0"/>
        <pt x="641" y="449" on="0"/>
        <pt x="551" y="449" on="1"/>
        <pt x="485" y="449" on="0"/>
        <pt x="304" y="418" on="0"/>
        <pt x="183" y="391" on="1"/>
        <pt x="167" y="468" on="1"/>
        <pt x="282" y="495" on="0"/>
        <pt x="476" y="526" on="0"/>
        <pt x="559" y="526" on="1"/>
        <pt x="684" y="526" on="0"/>
        <pt x="828" y="396" on="0"/>
        <pt x="828" y="283" on="1"/>
        <pt x="828" y="144" on="0"/>
        <pt x="641" y="-16" on="0"/>
        <pt x="440" y="-49" on="1"/>
      </contour>
    </TTGlyph>
    <TTGlyph name="uni3064" xMin="105" yMin="-47" xMax="915" yMax="653">
      <contour>
        <pt x="428" y="31" on="1"/>
        <pt x="568" y="58" on="0"/>
        <pt x="743" y="139" on="0"/>
        <pt x="830" y="263" on="0"/>
        <pt x="830" y="352" on="1"/>
        <pt x="830" y="417" on="0"/>
        <pt x="770" y="518" on="0"/>
        <pt x="655" y="575" on="0"/>
        <pt x="576" y="575" on="1"/>
        <pt x="494" y="575" on="0"/>
        <pt x="267" y="536" on="0"/>
        <pt x="124" y="503" on="1"/>
        <pt x="105" y="583" on="1"/>
        <pt x="247" y="615" on="0"/>
        <pt x="486" y="653" on="0"/>
        <pt x="586" y="653" on="1"/>
        <pt x="686" y="653" on="0"/>
        <pt x="834" y="583" on="0"/>
        <pt x="915" y="451" on="0"/>
        <pt x="915" y="359" on="1"/>
        <pt x="915" y="188" on="0"/>
        <pt x="686" y="-6" on="0"/>
        <pt x="446" y="-47" on="1"/>
      </contour>
    </TTGlyph>
    <TTGlyph name="uni3065" xMin="73" yMin="-47" xMax="1008" yMax="834">
      <contour>
        <pt x="952" y="648" on="1"/>
        <pt x="935" y="691" on="0"/>
        <pt x="891" y="778" on="0"/>
        <pt x="869" y="809" on="1"/>
        <pt x="922" y="834" on="1"/>
        <pt x="945" y="803" on="0"/>
        <pt x="992" y="713" on="0"/>
        <pt x="1008" y="672" on="1"/>
      </contour>
      <contour>
        <pt x="824" y="608" on="1"/>
        <pt x="809" y="648" on="0"/>
        <pt x="764" y="735" on="0"/>
        <pt x="740" y="768" on="1"/>
        <pt x="793" y="792" on="1"/>
        <pt x="841" y="726" on="0"/>
        <pt x="880" y="631" on="1"/>
      </contour>
      <contour>
        <pt x="395" y="31" on="1"/>
        <pt x="535" y="58" on="0"/>
        <pt x="711" y="139" on="0"/>
        <pt x="798" y="263" on="0"/>
        <pt x="798" y="352" on="1"/>
        <pt x="798" y="417" on="0"/>
        <pt x="738" y="518" on="0"/>
        <pt x="623" y="575" on="0"/>
        <pt x="544" y="575" on="1"/>
        <pt x="401" y="575" on="0"/>
        <pt x="92" y="503" on="1"/>
        <pt x="73" y="583" on="1"/>
        <pt x="214" y="615" on="0"/>
        <pt x="453" y="653" on="0"/>
        <pt x="554" y="653" on="1"/>
        <pt x="654" y="653" on="0"/>
        <pt x="802" y="583" on="0"/>
        <pt x="883" y="451" on="0"/>
        <pt x="883" y="359" on="1"/>
        <pt x="883" y="188" on="0"/>
        <pt x="653" y="-6" on="0"/>
        <pt x="413" y="-47" on="1"/>
      </contour>
    </TTGlyph>
    <TTGlyph name="uni3066" xMin="106" yMin="-66" xMax="892" yMax="710">
      <contour>
        <pt x="757" y="-66" on="1"/>
        <pt x="618" y="-66" on="0"/>
        <pt x="447" y="-15" on="0"/>
        <pt x="368" y="89" on="0"/>
        <pt x="368" y="173" on="1"/>
        <pt x="368" y="244" on="0"/>
        <pt x="431" y="412" on="0"/>
        <pt x="542" y="565" on="0"/>
        <pt x="610" y="614" on="1"/>
        <pt x="110" y="580" on="1"/>
        <pt x="106" y="663" on="1"/>
        <pt x="887" y="710" on="1"/>
        <pt x="892" y="630" on="1"/>
        <pt x="740" y="622" on="1"/>
        <pt x="666" y="585" on="0"/>
        <pt x="533" y="439" on="0"/>
        <pt x="453" y="265" on="0"/>
        <pt x="453" y="189" on="1"/>
        <pt x="453" y="123" on="0"/>
        <pt x="518" y="47" on="0"/>
        <pt x="654" y="14" on="0"/>
        <pt x="765" y="14" on="1"/>
      </contour>
    </TTGlyph>
    <TTGlyph name="uni3067" xMin="102" yMin="-66" xMax="938" yMax="710">
      <contour>
        <pt x="753" y="-66" on="1"/>
        <pt x="614" y="-66" on="0"/>
        <pt x="443" y="-15" on="0"/>
        <pt x="364" y="89" on="0"/>
        <pt x="364" y="173" on="1"/>
        <pt x="364" y="244" on="0"/>
        <pt x="427" y="412" on="0"/>
        <pt x="538" y="565" on="0"/>
        <pt x="606" y="614" on="1"/>
        <pt x="106" y="580" on="1"/>
        <pt x="102" y="663" on="1"/>
        <pt x="883" y="710" on="1"/>
        <pt x="888" y="630" on="1"/>
        <pt x="736" y="622" on="1"/>
        <pt x="662" y="585" on="0"/>
        <pt x="529" y="439" on="0"/>
        <pt x="449" y="265" on="0"/>
        <pt x="449" y="189" on="1"/>
        <pt x="449" y="123" on="0"/>
        <pt x="514" y="47" on="0"/>
        <pt x="650" y="14" on="0"/>
        <pt x="761" y="14" on="1"/>
      </contour>
      <contour>
        <pt x="882" y="367" on="1"/>
        <pt x="837" y="465" on="0"/>
        <pt x="790" y="524" on="1"/>
        <pt x="843" y="549" on="1"/>
        <pt x="867" y="520" on="0"/>
        <pt x="918" y="434" on="0"/>
        <pt x="938" y="392" on="1"/>
      </contour>
      <contour>
        <pt x="762" y="313" on="1"/>
        <pt x="745" y="352" on="0"/>
        <pt x="695" y="436" on="0"/>
        <pt x="670" y="468" on="1"/>
        <pt x="722" y="493" on="1"/>
        <pt x="770" y="437" on="0"/>
        <pt x="818" y="337" on="1"/>
      </contour>
    </TTGlyph>
    <TTGlyph name="uni3068" xMin="155" yMin="-71" xMax="785" yMax="781">
      <contour>
        <pt x="239" y="11" on="0"/>
        <pt x="582" y="11" on="1"/>
        <pt x="761" y="11" on="1"/>
        <pt x="761" y="-71" on="1"/>
        <pt x="563" y="-71" on="1"/>
        <pt x="155" y="-71" on="0"/>
        <pt x="155" y="129" on="1"/>
        <pt x="155" y="201" on="0"/>
        <pt x="262" y="328" on="0"/>
        <pt x="375" y="384" on="1"/>
        <pt x="307" y="506" on="0"/>
        <pt x="307" y="742" on="1"/>
        <pt x="307" y="781" on="1"/>
        <pt x="393" y="781" on="1"/>
        <pt x="390" y="533" on="0"/>
        <pt x="448" y="417" on="1"/>
        <pt x="574" y="470" on="0"/>
        <pt x="765" y="520" on="1"/>
        <pt x="785" y="440" on="1"/>
        <pt x="511" y="370" on="0"/>
        <pt x="239" y="217" on="0"/>
        <pt x="239" y="141" on="1"/>
      </contour>
    </TTGlyph>
    <TTGlyph name="uni3069" xMin="155" yMin="-71" xMax="925" yMax="799">
      <contour>
        <pt x="840" y="799" on="1"/>
        <pt x="862" y="769" on="0"/>
        <pt x="908" y="681" on="0"/>
        <pt x="925" y="638" on="1"/>
        <pt x="868" y="620" on="1"/>
        <pt x="824" y="728" on="0"/>
        <pt x="784" y="780" on="1"/>
      </contour>
      <contour>
        <pt x="785" y="440" on="1"/>
        <pt x="511" y="370" on="0"/>
        <pt x="239" y="217" on="0"/>
        <pt x="239" y="141" on="1"/>
        <pt x="239" y="11" on="0"/>
        <pt x="582" y="11" on="1"/>
        <pt x="761" y="11" on="1"/>
        <pt x="761" y="-71" on="1"/>
        <pt x="563" y="-71" on="1"/>
        <pt x="155" y="-71" on="0"/>
        <pt x="155" y="129" on="1"/>
        <pt x="155" y="201" on="0"/>
        <pt x="262" y="328" on="0"/>
        <pt x="375" y="384" on="1"/>
        <pt x="307" y="506" on="0"/>
        <pt x="307" y="742" on="1"/>
        <pt x="307" y="781" on="1"/>
        <pt x="393" y="781" on="1"/>
        <pt x="390" y="533" on="0"/>
        <pt x="448" y="417" on="1"/>
        <pt x="574" y="470" on="0"/>
        <pt x="765" y="520" on="1"/>
      </contour>
      <contour>
        <pt x="716" y="751" on="1"/>
        <pt x="759" y="694" on="0"/>
        <pt x="803" y="590" on="1"/>
        <pt x="745" y="573" on="1"/>
        <pt x="728" y="615" on="0"/>
        <pt x="684" y="701" on="0"/>
        <pt x="662" y="732" on="1"/>
      </contour>
    </TTGlyph>
    <TTGlyph name="uni306A" xMin="106" yMin="-69" xMax="910" yMax="786">
      <contour>
        <pt x="564" y="574" on="1"/>
        <pt x="364" y="574" on="1"/>
        <pt x="320" y="319" on="0"/>
        <pt x="174" y="106" on="1"/>
        <pt x="106" y="146" on="1"/>
        <pt x="244" y="349" on="0"/>
        <pt x="285" y="574" on="1"/>
        <pt x="140" y="574" on="1"/>
        <pt x="140" y="649" on="1"/>
        <pt x="296" y="649" on="1"/>
        <pt x="304" y="719" on="0"/>
        <pt x="304" y="786" on="1"/>
        <pt x="383" y="786" on="1"/>
        <pt x="383" y="721" on="0"/>
        <pt x="375" y="649" on="1"/>
        <pt x="564" y="649" on="1"/>
      </contour>
      <contour>
        <pt x="863" y="19" on="1"/>
        <pt x="781" y="90" on="0"/>
        <pt x="718" y="123" on="1"/>
        <pt x="718" y="108" on="1"/>
        <pt x="718" y="21" on="0"/>
        <pt x="620" y="-69" on="0"/>
        <pt x="524" y="-69" on="1"/>
        <pt x="466" y="-69" on="0"/>
        <pt x="377" y="-28" on="0"/>
        <pt x="328" y="41" on="0"/>
        <pt x="328" y="83" on="1"/>
        <pt x="328" y="157" on="0"/>
        <pt x="437" y="245" on="0"/>
        <pt x="529" y="245" on="1"/>
        <pt x="585" y="245" on="0"/>
        <pt x="639" y="231" on="1"/>
        <pt x="639" y="649" on="1"/>
        <pt x="904" y="649" on="1"/>
        <pt x="904" y="574" on="1"/>
        <pt x="718" y="574" on="1"/>
        <pt x="718" y="204" on="1"/>
        <pt x="811" y="163" on="0"/>
        <pt x="910" y="78" on="1"/>
      </contour>
      <contour>
        <pt x="639" y="156" on="1"/>
        <pt x="586" y="173" on="0"/>
        <pt x="528" y="173" on="1"/>
        <pt x="469" y="173" on="0"/>
        <pt x="407" y="127" on="0"/>
        <pt x="407" y="86" on="1"/>
        <pt x="407" y="51" on="0"/>
        <pt x="474" y="3" on="0"/>
        <pt x="525" y="3" on="1"/>
        <pt x="583" y="3" on="0"/>
        <pt x="639" y="53" on="0"/>
        <pt x="639" y="104" on="1"/>
      </contour>
    </TTGlyph>
    <TTGlyph name="uni306B" xMin="119" yMin="-65" xMax="879" yMax="768">
      <contour>
        <pt x="167" y="-65" on="1"/>
        <pt x="140" y="29" on="0"/>
        <pt x="119" y="226" on="0"/>
        <pt x="119" y="348" on="1"/>
        <pt x="119" y="447" on="0"/>
        <pt x="140" y="672" on="0"/>
        <pt x="156" y="768" on="1"/>
        <pt x="241" y="760" on="1"/>
        <pt x="223" y="673" on="0"/>
        <pt x="201" y="449" on="0"/>
        <pt x="201" y="349" on="1"/>
        <pt x="201" y="118" on="0"/>
        <pt x="250" y="-47" on="1"/>
      </contour>
      <contour>
        <pt x="391" y="638" on="1"/>
        <pt x="586" y="657" on="0"/>
        <pt x="858" y="657" on="1"/>
        <pt x="858" y="579" on="1"/>
        <pt x="556" y="579" on="0"/>
        <pt x="397" y="558" on="1"/>
      </contour>
      <contour>
        <pt x="651" y="24" on="1"/>
        <pt x="501" y="24" on="0"/>
        <pt x="370" y="100" on="0"/>
        <pt x="370" y="182" on="1"/>
        <pt x="370" y="214" on="0"/>
        <pt x="388" y="281" on="0"/>
        <pt x="405" y="310" on="1"/>
        <pt x="489" y="310" on="1"/>
        <pt x="452" y="247" on="0"/>
        <pt x="452" y="198" on="1"/>
        <pt x="452" y="149" on="0"/>
        <pt x="545" y="102" on="0"/>
        <pt x="647" y="102" on="1"/>
        <pt x="878" y="102" on="1"/>
        <pt x="879" y="24" on="1"/>
      </contour>
    </TTGlyph>
    <TTGlyph name="uni306C" xMin="60" yMin="-49" xMax="956" yMax="793">
      <contour>
        <pt x="916" y="6" on="1"/>
        <pt x="871" y="49" on="0"/>
        <pt x="835" y="75" on="1"/>
        <pt x="804" y="15" on="0"/>
        <pt x="705" y="-49" on="0"/>
        <pt x="642" y="-49" on="1"/>
        <pt x="599" y="-49" on="0"/>
        <pt x="528" y="-17" on="0"/>
        <pt x="488" y="40" on="0"/>
        <pt x="488" y="75" on="1"/>
        <pt x="488" y="113" on="0"/>
        <pt x="534" y="176" on="0"/>
        <pt x="614" y="211" on="0"/>
        <pt x="663" y="211" on="1"/>
        <pt x="727" y="211" on="0"/>
        <pt x="795" y="182" on="1"/>
        <pt x="803" y="230" on="0"/>
        <pt x="803" y="281" on="1"/>
        <pt x="803" y="401" on="0"/>
        <pt x="672" y="536" on="0"/>
        <pt x="557" y="537" on="1"/>
        <pt x="532" y="379" on="0"/>
        <pt x="434" y="126" on="0"/>
        <pt x="288" y="-24" on="0"/>
        <pt x="196" y="-24" on="1"/>
        <pt x="136" y="-24" on="0"/>
        <pt x="60" y="64" on="0"/>
        <pt x="60" y="144" on="1"/>
        <pt x="60" y="233" on="0"/>
        <pt x="133" y="398" on="0"/>
        <pt x="199" y="463" on="1"/>
        <pt x="185" y="563" on="0"/>
        <pt x="179" y="720" on="1"/>
        <pt x="257" y="720" on="1"/>
        <pt x="261" y="584" on="0"/>
        <pt x="267" y="519" on="1"/>
        <pt x="369" y="590" on="0"/>
        <pt x="491" y="606" on="1"/>
        <pt x="502" y="702" on="0"/>
        <pt x="502" y="793" on="1"/>
        <pt x="580" y="793" on="1"/>
        <pt x="577" y="695" on="0"/>
        <pt x="567" y="611" on="1"/>
        <pt x="664" y="610" on="0"/>
        <pt x="804" y="530" on="0"/>
        <pt x="879" y="382" on="0"/>
        <pt x="879" y="281" on="1"/>
        <pt x="879" y="208" on="0"/>
        <pt x="862" y="146" on="1"/>
        <pt x="907" y="118" on="0"/>
        <pt x="956" y="74" on="1"/>
      </contour>
      <contour>
        <pt x="424" y="521" on="0"/>
        <pt x="320" y="473" on="0"/>
        <pt x="277" y="437" on="1"/>
        <pt x="289" y="362" on="0"/>
        <pt x="334" y="235" on="0"/>
        <pt x="371" y="180" on="1"/>
        <pt x="408" y="246" on="0"/>
        <pt x="465" y="427" on="0"/>
        <pt x="481" y="531" on="1"/>
      </contour>
      <contour>
        <pt x="271" y="46" on="0"/>
        <pt x="326" y="113" on="1"/>
        <pt x="284" y="172" on="0"/>
        <pt x="231" y="297" on="0"/>
        <pt x="214" y="372" on="1"/>
        <pt x="177" y="324" on="0"/>
        <pt x="136" y="212" on="0"/>
        <pt x="136" y="153" on="1"/>
        <pt x="136" y="99" on="0"/>
        <pt x="177" y="46" on="0"/>
        <pt x="213" y="46" on="1"/>
      </contour>
      <contour>
        <pt x="689" y="17" on="0"/>
        <pt x="754" y="67" on="0"/>
        <pt x="774" y="114" on="1"/>
        <pt x="714" y="145" on="0"/>
        <pt x="661" y="145" on="1"/>
        <pt x="618" y="145" on="0"/>
        <pt x="564" y="107" on="0"/>
        <pt x="564" y="77" on="1"/>
        <pt x="564" y="51" on="0"/>
        <pt x="609" y="17" on="0"/>
        <pt x="645" y="17" on="1"/>
      </contour>
    </TTGlyph>
    <TTGlyph name="uni306D" xMin="47" yMin="-58" xMax="952" yMax="792">
      <contour>
        <pt x="912" y="151" on="0"/>
        <pt x="952" y="102" on="1"/>
        <pt x="922" y="20" on="1"/>
        <pt x="884" y="68" on="0"/>
        <pt x="838" y="107" on="1"/>
        <pt x="812" y="36" on="0"/>
        <pt x="715" y="-33" on="0"/>
        <pt x="642" y="-33" on="1"/>
        <pt x="556" y="-33" on="0"/>
        <pt x="455" y="41" on="0"/>
        <pt x="455" y="105" on="1"/>
        <pt x="455" y="150" on="0"/>
        <pt x="504" y="220" on="0"/>
        <pt x="593" y="259" on="0"/>
        <pt x="650" y="259" on="1"/>
        <pt x="721" y="259" on="0"/>
        <pt x="786" y="231" on="1"/>
        <pt x="790" y="268" on="0"/>
        <pt x="790" y="325" on="1"/>
        <pt x="790" y="454" on="0"/>
        <pt x="714" y="590" on="0"/>
        <pt x="643" y="590" on="1"/>
        <pt x="580" y="590" on="0"/>
        <pt x="415" y="465" on="0"/>
        <pt x="321" y="353" on="1"/>
        <pt x="321" y="-58" on="1"/>
        <pt x="241" y="-58" on="1"/>
        <pt x="241" y="252" on="1"/>
        <pt x="168" y="153" on="0"/>
        <pt x="106" y="53" on="1"/>
        <pt x="47" y="112" on="1"/>
        <pt x="149" y="264" on="0"/>
        <pt x="241" y="377" on="1"/>
        <pt x="241" y="524" on="1"/>
        <pt x="68" y="524" on="1"/>
        <pt x="68" y="602" on="1"/>
        <pt x="241" y="602" on="1"/>
        <pt x="241" y="792" on="1"/>
        <pt x="321" y="792" on="1"/>
        <pt x="321" y="468" on="1"/>
        <pt x="414" y="567" on="0"/>
        <pt x="580" y="669" on="0"/>
        <pt x="657" y="669" on="1"/>
        <pt x="760" y="669" on="0"/>
        <pt x="870" y="497" on="0"/>
        <pt x="870" y="336" on="1"/>
        <pt x="870" y="247" on="0"/>
        <pt x="859" y="189" on="1"/>
      </contour>
      <contour>
        <pt x="691" y="39" on="0"/>
        <pt x="756" y="94" on="0"/>
        <pt x="772" y="153" on="1"/>
        <pt x="714" y="187" on="0"/>
        <pt x="656" y="187" on="1"/>
        <pt x="602" y="187" on="0"/>
        <pt x="535" y="144" on="0"/>
        <pt x="535" y="109" on="1"/>
        <pt x="535" y="76" on="0"/>
        <pt x="592" y="39" on="0"/>
        <pt x="640" y="39" on="1"/>
      </contour>
    </TTGlyph>
    <TTGlyph name="uni306E" xMin="87" yMin="-60" xMax="918" yMax="702">
      <contour>
        <pt x="657" y="702" on="0"/>
        <pt x="823" y="612" on="0"/>
        <pt x="918" y="455" on="0"/>
        <pt x="918" y="358" on="1"/>
        <pt x="918" y="198" on="0"/>
        <pt x="743" y="-9" on="0"/>
        <pt x="561" y="-60" on="1"/>
        <pt x="519" y="14" on="1"/>
        <pt x="836" y="95" on="0"/>
        <pt x="836" y="346" on="1"/>
        <pt x="836" y="424" on="0"/>
        <pt x="759" y="551" on="0"/>
        <pt x="624" y="623" on="0"/>
        <pt x="541" y="623" on="1"/>
        <pt x="535" y="623" on="1"/>
        <pt x="480" y="370" on="1"/>
        <pt x="453" y="247" on="0"/>
        <pt x="390" y="93" on="0"/>
        <pt x="305" y="16" on="0"/>
        <pt x="247" y="16" on="1"/>
        <pt x="204" y="16" on="0"/>
        <pt x="131" y="73" on="0"/>
        <pt x="87" y="178" on="0"/>
        <pt x="87" y="249" on="1"/>
        <pt x="87" y="376" on="0"/>
        <pt x="204" y="583" on="0"/>
        <pt x="416" y="702" on="0"/>
        <pt x="554" y="702" on="1"/>
      </contour>
      <contour>
        <pt x="452" y="614" on="1"/>
        <pt x="369" y="596" on="0"/>
        <pt x="241" y="495" on="0"/>
        <pt x="169" y="346" on="0"/>
        <pt x="169" y="258" on="1"/>
        <pt x="169" y="215" on="0"/>
        <pt x="194" y="138" on="0"/>
        <pt x="234" y="93" on="0"/>
        <pt x="256" y="93" on="1"/>
        <pt x="297" y="93" on="0"/>
        <pt x="365" y="226" on="0"/>
        <pt x="398" y="372" on="1"/>
      </contour>
    </TTGlyph>
    <TTGlyph name="uni306F" xMin="115" yMin="-56" xMax="911" yMax="768">
      <contour>
        <pt x="873" y="-5" on="1"/>
        <pt x="791" y="73" on="0"/>
        <pt x="730" y="113" on="1"/>
        <pt x="724" y="29" on="0"/>
        <pt x="620" y="-56" on="0"/>
        <pt x="539" y="-56" on="1"/>
        <pt x="452" y="-56" on="0"/>
        <pt x="346" y="27" on="0"/>
        <pt x="346" y="96" on="1"/>
        <pt x="346" y="167" on="0"/>
        <pt x="453" y="249" on="0"/>
        <pt x="545" y="249" on="1"/>
        <pt x="596" y="249" on="0"/>
        <pt x="649" y="233" on="1"/>
        <pt x="649" y="513" on="1"/>
        <pt x="332" y="513" on="1"/>
        <pt x="332" y="591" on="1"/>
        <pt x="649" y="591" on="1"/>
        <pt x="649" y="768" on="1"/>
        <pt x="731" y="768" on="1"/>
        <pt x="731" y="591" on="1"/>
        <pt x="892" y="591" on="1"/>
        <pt x="892" y="513" on="1"/>
        <pt x="731" y="513" on="1"/>
        <pt x="731" y="199" on="1"/>
        <pt x="778" y="173" on="0"/>
        <pt x="860" y="111" on="0"/>
        <pt x="911" y="68" on="1"/>
      </contour>
      <contour>
        <pt x="226" y="743" on="1"/>
        <pt x="197" y="598" on="0"/>
        <pt x="197" y="361" on="1"/>
        <pt x="197" y="249" on="0"/>
        <pt x="219" y="25" on="0"/>
        <pt x="240" y="-55" on="1"/>
        <pt x="156" y="-55" on="1"/>
        <pt x="136" y="21" on="0"/>
        <pt x="115" y="244" on="0"/>
        <pt x="115" y="356" on="1"/>
        <pt x="115" y="593" on="0"/>
        <pt x="142" y="743" on="1"/>
      </contour>
      <contour>
        <pt x="649" y="156" on="1"/>
        <pt x="594" y="177" on="0"/>
        <pt x="544" y="177" on="1"/>
        <pt x="488" y="177" on="0"/>
        <pt x="426" y="135" on="0"/>
        <pt x="426" y="98" on="1"/>
        <pt x="426" y="59" on="0"/>
        <pt x="485" y="16" on="0"/>
        <pt x="540" y="16" on="1"/>
        <pt x="592" y="16" on="0"/>
        <pt x="649" y="77" on="0"/>
        <pt x="649" y="132" on="1"/>
      </contour>
    </TTGlyph>
    <TTGlyph name="uni3070" xMin="97" yMin="-56" xMax="1007" yMax="856">
      <contour>
        <pt x="942" y="856" on="1"/>
        <pt x="960" y="825" on="0"/>
        <pt x="995" y="732" on="0"/>
        <pt x="1007" y="688" on="1"/>
        <pt x="948" y="679" on="1"/>
        <pt x="917" y="792" on="0"/>
        <pt x="885" y="847" on="1"/>
      </contour>
      <contour>
        <pt x="816" y="655" on="1"/>
        <pt x="788" y="760" on="0"/>
        <pt x="753" y="823" on="1"/>
        <pt x="809" y="833" on="1"/>
        <pt x="844" y="773" on="0"/>
        <pt x="875" y="664" on="1"/>
      </contour>
      <contour>
        <pt x="713" y="513" on="1"/>
        <pt x="713" y="199" on="1"/>
        <pt x="760" y="173" on="0"/>
        <pt x="842" y="111" on="0"/>
        <pt x="893" y="68" on="1"/>
        <pt x="855" y="-5" on="1"/>
        <pt x="773" y="73" on="0"/>
        <pt x="712" y="113" on="1"/>
        <pt x="706" y="29" on="0"/>
        <pt x="602" y="-56" on="0"/>
        <pt x="521" y="-56" on="1"/>
        <pt x="434" y="-56" on="0"/>
        <pt x="328" y="27" on="0"/>
        <pt x="328" y="96" on="1"/>
        <pt x="328" y="167" on="0"/>
        <pt x="435" y="249" on="0"/>
        <pt x="527" y="249" on="1"/>
        <pt x="578" y="249" on="0"/>
        <pt x="631" y="233" on="1"/>
        <pt x="631" y="513" on="1"/>
        <pt x="314" y="513" on="1"/>
        <pt x="314" y="591" on="1"/>
        <pt x="631" y="591" on="1"/>
        <pt x="631" y="768" on="1"/>
        <pt x="713" y="768" on="1"/>
        <pt x="713" y="591" on="1"/>
        <pt x="874" y="591" on="1"/>
        <pt x="874" y="513" on="1"/>
      </contour>
      <contour>
        <pt x="208" y="743" on="1"/>
        <pt x="179" y="598" on="0"/>
        <pt x="179" y="361" on="1"/>
        <pt x="179" y="249" on="0"/>
        <pt x="201" y="25" on="0"/>
        <pt x="222" y="-55" on="1"/>
        <pt x="138" y="-55" on="1"/>
        <pt x="118" y="21" on="0"/>
        <pt x="97" y="244" on="0"/>
        <pt x="97" y="356" on="1"/>
        <pt x="97" y="593" on="0"/>
        <pt x="124" y="743" on="1"/>
      </contour>
      <contour>
        <pt x="631" y="156" on="1"/>
        <pt x="576" y="177" on="0"/>
        <pt x="526" y="177" on="1"/>
        <pt x="470" y="177" on="0"/>
        <pt x="408" y="135" on="0"/>
        <pt x="408" y="98" on="1"/>
        <pt x="408" y="59" on="0"/>
        <pt x="467" y="16" on="0"/>
        <pt x="522" y="16" on="1"/>
        <pt x="574" y="16" on="0"/>
        <pt x="631" y="77" on="0"/>
        <pt x="631" y="132" on="1"/>
      </contour>
    </TTGlyph>
    <TTGlyph name="uni3071" xMin="97" yMin="-56" xMax="993" yMax="850">
      <contour>
        <pt x="929" y="850" on="0"/>
        <pt x="993" y="786" on="0"/>
        <pt x="993" y="739" on="1"/>
        <pt x="993" y="692" on="0"/>
        <pt x="929" y="629" on="0"/>
        <pt x="881" y="629" on="1"/>
        <pt x="833" y="629" on="0"/>
        <pt x="769" y="692" on="0"/>
        <pt x="769" y="739" on="1"/>
        <pt x="769" y="786" on="0"/>
        <pt x="833" y="850" on="0"/>
        <pt x="881" y="850" on="1"/>
      </contour>
      <contour>
        <pt x="910" y="672" on="0"/>
        <pt x="948" y="711" on="0"/>
        <pt x="948" y="739" on="1"/>
        <pt x="948" y="768" on="0"/>
        <pt x="910" y="806" on="0"/>
        <pt x="881" y="806" on="1"/>
        <pt x="853" y="806" on="0"/>
        <pt x="814" y="768" on="0"/>
        <pt x="814" y="739" on="1"/>
        <pt x="814" y="711" on="0"/>
        <pt x="853" y="672" on="0"/>
        <pt x="881" y="672" on="1"/>
      </contour>
      <contour>
        <pt x="713" y="513" on="1"/>
        <pt x="713" y="199" on="1"/>
        <pt x="760" y="173" on="0"/>
        <pt x="842" y="111" on="0"/>
        <pt x="893" y="68" on="1"/>
        <pt x="855" y="-5" on="1"/>
        <pt x="773" y="73" on="0"/>
        <pt x="712" y="113" on="1"/>
        <pt x="706" y="29" on="0"/>
        <pt x="602" y="-56" on="0"/>
        <pt x="521" y="-56" on="1"/>
        <pt x="434" y="-56" on="0"/>
        <pt x="328" y="27" on="0"/>
        <pt x="328" y="96" on="1"/>
        <pt x="328" y="167" on="0"/>
        <pt x="435" y="249" on="0"/>
        <pt x="527" y="249" on="1"/>
        <pt x="578" y="249" on="0"/>
        <pt x="631" y="233" on="1"/>
        <pt x="631" y="513" on="1"/>
        <pt x="314" y="513" on="1"/>
        <pt x="314" y="591" on="1"/>
        <pt x="631" y="591" on="1"/>
        <pt x="631" y="768" on="1"/>
        <pt x="713" y="768" on="1"/>
        <pt x="713" y="591" on="1"/>
        <pt x="874" y="591" on="1"/>
        <pt x="874" y="513" on="1"/>
      </contour>
      <contour>
        <pt x="208" y="743" on="1"/>
        <pt x="179" y="598" on="0"/>
        <pt x="179" y="361" on="1"/>
        <pt x="179" y="249" on="0"/>
        <pt x="201" y="25" on="0"/>
        <pt x="222" y="-55" on="1"/>
        <pt x="138" y="-55" on="1"/>
        <pt x="118" y="21" on="0"/>
        <pt x="97" y="244" on="0"/>
        <pt x="97" y="356" on="1"/>
        <pt x="97" y="593" on="0"/>
        <pt x="124" y="743" on="1"/>
      </contour>
      <contour>
        <pt x="631" y="156" on="1"/>
        <pt x="576" y="177" on="0"/>
        <pt x="526" y="177" on="1"/>
        <pt x="470" y="177" on="0"/>
        <pt x="408" y="135" on="0"/>
        <pt x="408" y="98" on="1"/>
        <pt x="408" y="59" on="0"/>
        <pt x="467" y="16" on="0"/>
        <pt x="522" y="16" on="1"/>
        <pt x="574" y="16" on="0"/>
        <pt x="631" y="77" on="0"/>
        <pt x="631" y="132" on="1"/>
      </contour>
    </TTGlyph>
    <TTGlyph name="uni3072" xMin="71" yMin="-49" xMax="951" yMax="710">
      <contour>
        <pt x="878" y="94" on="1"/>
        <pt x="808" y="244" on="0"/>
        <pt x="759" y="419" on="1"/>
        <pt x="760" y="407" on="0"/>
        <pt x="760" y="385" on="1"/>
        <pt x="760" y="253" on="0"/>
        <pt x="676" y="57" on="0"/>
        <pt x="521" y="-49" on="0"/>
        <pt x="418" y="-49" on="1"/>
        <pt x="336" y="-49" on="0"/>
        <pt x="211" y="16" on="0"/>
        <pt x="141" y="142" on="0"/>
        <pt x="141" y="230" on="1"/>
        <pt x="141" y="336" on="0"/>
        <pt x="252" y="549" on="0"/>
        <pt x="352" y="632" on="1"/>
        <pt x="71" y="632" on="1"/>
        <pt x="71" y="710" on="1"/>
        <pt x="469" y="710" on="1"/>
        <pt x="480" y="640" on="1"/>
        <pt x="363" y="557" on="0"/>
        <pt x="223" y="343" on="0"/>
        <pt x="223" y="236" on="1"/>
        <pt x="223" y="137" on="0"/>
        <pt x="334" y="29" on="0"/>
        <pt x="424" y="29" on="1"/>
        <pt x="505" y="29" on="0"/>
        <pt x="624" y="123" on="0"/>
        <pt x="688" y="297" on="0"/>
        <pt x="688" y="415" on="1"/>
        <pt x="688" y="523" on="0"/>
        <pt x="670" y="619" on="1"/>
        <pt x="767" y="636" on="1"/>
        <pt x="812" y="475" on="0"/>
        <pt x="892" y="244" on="0"/>
        <pt x="951" y="130" on="1"/>
      </contour>
    </TTGlyph>
    <TTGlyph name="uni3073" xMin="51" yMin="-49" xMax="1000" yMax="802">
      <contour>
        <pt x="924" y="802" on="1"/>
        <pt x="945" y="770" on="0"/>
        <pt x="987" y="678" on="0"/>
        <pt x="1000" y="636" on="1"/>
        <pt x="943" y="619" on="1"/>
        <pt x="907" y="724" on="0"/>
        <pt x="868" y="784" on="1"/>
      </contour>
      <contour>
        <pt x="814" y="575" on="1"/>
        <pt x="801" y="616" on="0"/>
        <pt x="761" y="705" on="0"/>
        <pt x="740" y="740" on="1"/>
        <pt x="794" y="757" on="1"/>
        <pt x="837" y="693" on="0"/>
        <pt x="872" y="592" on="1"/>
      </contour>
      <contour>
        <pt x="747" y="636" on="1"/>
        <pt x="792" y="475" on="0"/>
        <pt x="872" y="243" on="0"/>
        <pt x="931" y="130" on="1"/>
        <pt x="858" y="94" on="1"/>
        <pt x="788" y="244" on="0"/>
        <pt x="739" y="419" on="1"/>
        <pt x="740" y="407" on="0"/>
        <pt x="740" y="385" on="1"/>
        <pt x="740" y="253" on="0"/>
        <pt x="656" y="57" on="0"/>
        <pt x="501" y="-49" on="0"/>
        <pt x="398" y="-49" on="1"/>
        <pt x="316" y="-49" on="0"/>
        <pt x="191" y="16" on="0"/>
        <pt x="121" y="142" on="0"/>
        <pt x="121" y="230" on="1"/>
        <pt x="121" y="336" on="0"/>
        <pt x="232" y="549" on="0"/>
        <pt x="332" y="632" on="1"/>
        <pt x="51" y="632" on="1"/>
        <pt x="51" y="710" on="1"/>
        <pt x="449" y="710" on="1"/>
        <pt x="460" y="640" on="1"/>
        <pt x="343" y="557" on="0"/>
        <pt x="203" y="343" on="0"/>
        <pt x="203" y="236" on="1"/>
        <pt x="203" y="137" on="0"/>
        <pt x="314" y="29" on="0"/>
        <pt x="404" y="29" on="1"/>
        <pt x="485" y="29" on="0"/>
        <pt x="604" y="123" on="0"/>
        <pt x="668" y="297" on="0"/>
        <pt x="668" y="415" on="1"/>
        <pt x="668" y="523" on="0"/>
        <pt x="650" y="619" on="1"/>
      </contour>
    </TTGlyph>
    <TTGlyph name="uni3074" xMin="51" yMin="-49" xMax="993" yMax="815">
      <contour>
        <pt x="929" y="815" on="0"/>
        <pt x="993" y="751" on="0"/>
        <pt x="993" y="704" on="1"/>
        <pt x="993" y="657" on="0"/>
        <pt x="929" y="594" on="0"/>
        <pt x="881" y="594" on="1"/>
        <pt x="833" y="594" on="0"/>
        <pt x="769" y="657" on="0"/>
        <pt x="769" y="704" on="1"/>
        <pt x="769" y="751" on="0"/>
        <pt x="833" y="815" on="0"/>
        <pt x="881" y="815" on="1"/>
      </contour>
      <contour>
        <pt x="910" y="637" on="0"/>
        <pt x="948" y="676" on="0"/>
        <pt x="948" y="704" on="1"/>
        <pt x="948" y="733" on="0"/>
        <pt x="910" y="771" on="0"/>
        <pt x="881" y="771" on="1"/>
        <pt x="853" y="771" on="0"/>
        <pt x="814" y="733" on="0"/>
        <pt x="814" y="704" on="1"/>
        <pt x="814" y="676" on="0"/>
        <pt x="853" y="637" on="0"/>
        <pt x="881" y="637" on="1"/>
      </contour>
      <contour>
        <pt x="747" y="636" on="1"/>
        <pt x="792" y="475" on="0"/>
        <pt x="872" y="243" on="0"/>
        <pt x="931" y="130" on="1"/>
        <pt x="858" y="94" on="1"/>
        <pt x="788" y="244" on="0"/>
        <pt x="739" y="419" on="1"/>
        <pt x="740" y="407" on="0"/>
        <pt x="740" y="385" on="1"/>
        <pt x="740" y="253" on="0"/>
        <pt x="656" y="57" on="0"/>
        <pt x="501" y="-49" on="0"/>
        <pt x="398" y="-49" on="1"/>
        <pt x="316" y="-49" on="0"/>
        <pt x="191" y="16" on="0"/>
        <pt x="121" y="142" on="0"/>
        <pt x="121" y="230" on="1"/>
        <pt x="121" y="336" on="0"/>
        <pt x="232" y="549" on="0"/>
        <pt x="332" y="632" on="1"/>
        <pt x="51" y="632" on="1"/>
        <pt x="51" y="710" on="1"/>
        <pt x="449" y="710" on="1"/>
        <pt x="460" y="640" on="1"/>
        <pt x="343" y="557" on="0"/>
        <pt x="203" y="343" on="0"/>
        <pt x="203" y="236" on="1"/>
        <pt x="203" y="137" on="0"/>
        <pt x="314" y="29" on="0"/>
        <pt x="404" y="29" on="1"/>
        <pt x="485" y="29" on="0"/>
        <pt x="604" y="123" on="0"/>
        <pt x="668" y="297" on="0"/>
        <pt x="668" y="415" on="1"/>
        <pt x="668" y="523" on="0"/>
        <pt x="650" y="619" on="1"/>
      </contour>
    </TTGlyph>
    <TTGlyph name="uni3075" xMin="64" yMin="-40" xMax="939" yMax="775">
      <contour>
        <pt x="304" y="775" on="1"/>
        <pt x="515" y="775" on="0"/>
        <pt x="688" y="707" on="1"/>
        <pt x="688" y="641" on="1"/>
        <pt x="599" y="586" on="0"/>
        <pt x="511" y="480" on="0"/>
        <pt x="511" y="423" on="1"/>
        <pt x="511" y="392" on="0"/>
        <pt x="541" y="340" on="0"/>
        <pt x="572" y="301" on="1"/>
        <pt x="612" y="252" on="0"/>
        <pt x="654" y="172" on="0"/>
        <pt x="654" y="117" on="1"/>
        <pt x="654" y="44" on="0"/>
        <pt x="556" y="-40" on="0"/>
        <pt x="465" y="-40" on="1"/>
        <pt x="369" y="-40" on="0"/>
        <pt x="276" y="-3" on="1"/>
        <pt x="293" y="73" on="1"/>
        <pt x="333" y="55" on="0"/>
        <pt x="421" y="37" on="0"/>
        <pt x="460" y="37" on="1"/>
        <pt x="574" y="37" on="0"/>
        <pt x="574" y="129" on="1"/>
        <pt x="574" y="164" on="0"/>
        <pt x="540" y="225" on="0"/>
        <pt x="505" y="269" on="1"/>
        <pt x="468" y="315" on="0"/>
        <pt x="431" y="381" on="0"/>
        <pt x="431" y="421" on="1"/>
        <pt x="431" y="550" on="0"/>
        <pt x="591" y="660" on="1"/>
        <pt x="523" y="679" on="0"/>
        <pt x="386" y="697" on="0"/>
        <pt x="304" y="697" on="1"/>
      </contour>
      <contour>
        <pt x="278" y="365" on="1"/>
        <pt x="257" y="283" on="0"/>
        <pt x="179" y="81" on="0"/>
        <pt x="139" y="11" on="1"/>
        <pt x="64" y="42" on="1"/>
        <pt x="103" y="110" on="0"/>
        <pt x="183" y="306" on="0"/>
        <pt x="202" y="385" on="1"/>
      </contour>
      <contour>
        <pt x="796" y="385" on="1"/>
        <pt x="834" y="331" on="0"/>
        <pt x="919" y="132" on="0"/>
        <pt x="939" y="54" on="1"/>
        <pt x="861" y="28" on="1"/>
        <pt x="844" y="104" on="0"/>
        <pt x="763" y="298" on="0"/>
        <pt x="723" y="357" on="1"/>
      </contour>
    </TTGlyph>
    <TTGlyph name="uni3076" xMin="64" yMin="-40" xMax="988" yMax="775">
      <contour>
        <pt x="304" y="775" on="1"/>
        <pt x="515" y="775" on="0"/>
        <pt x="688" y="707" on="1"/>
        <pt x="688" y="641" on="1"/>
        <pt x="599" y="586" on="0"/>
        <pt x="511" y="480" on="0"/>
        <pt x="511" y="423" on="1"/>
        <pt x="511" y="392" on="0"/>
        <pt x="541" y="340" on="0"/>
        <pt x="572" y="301" on="1"/>
        <pt x="612" y="252" on="0"/>
        <pt x="654" y="172" on="0"/>
        <pt x="654" y="117" on="1"/>
        <pt x="654" y="44" on="0"/>
        <pt x="556" y="-40" on="0"/>
        <pt x="465" y="-40" on="1"/>
        <pt x="369" y="-40" on="0"/>
        <pt x="276" y="-3" on="1"/>
        <pt x="293" y="73" on="1"/>
        <pt x="333" y="55" on="0"/>
        <pt x="421" y="37" on="0"/>
        <pt x="460" y="37" on="1"/>
        <pt x="574" y="37" on="0"/>
        <pt x="574" y="129" on="1"/>
        <pt x="574" y="164" on="0"/>
        <pt x="540" y="225" on="0"/>
        <pt x="505" y="269" on="1"/>
        <pt x="468" y="315" on="0"/>
        <pt x="431" y="381" on="0"/>
        <pt x="431" y="421" on="1"/>
        <pt x="431" y="550" on="0"/>
        <pt x="591" y="660" on="1"/>
        <pt x="523" y="679" on="0"/>
        <pt x="386" y="697" on="0"/>
        <pt x="304" y="697" on="1"/>
      </contour>
      <contour>
        <pt x="931" y="560" on="1"/>
        <pt x="893" y="669" on="0"/>
        <pt x="856" y="725" on="1"/>
        <pt x="912" y="743" on="1"/>
        <pt x="933" y="711" on="0"/>
        <pt x="975" y="619" on="0"/>
        <pt x="988" y="577" on="1"/>
      </contour>
      <contour>
        <pt x="802" y="516" on="1"/>
        <pt x="790" y="557" on="0"/>
        <pt x="750" y="646" on="0"/>
        <pt x="728" y="681" on="1"/>
        <pt x="783" y="699" on="1"/>
        <pt x="826" y="632" on="0"/>
        <pt x="860" y="533" on="1"/>
      </contour>
      <contour>
        <pt x="278" y="365" on="1"/>
        <pt x="257" y="283" on="0"/>
        <pt x="179" y="81" on="0"/>
        <pt x="139" y="11" on="1"/>
        <pt x="64" y="42" on="1"/>
        <pt x="103" y="110" on="0"/>
        <pt x="183" y="306" on="0"/>
        <pt x="202" y="385" on="1"/>
      </contour>
      <contour>
        <pt x="796" y="385" on="1"/>
        <pt x="834" y="331" on="0"/>
        <pt x="919" y="132" on="0"/>
        <pt x="939" y="54" on="1"/>
        <pt x="861" y="28" on="1"/>
        <pt x="844" y="104" on="0"/>
        <pt x="763" y="298" on="0"/>
        <pt x="723" y="357" on="1"/>
      </contour>
    </TTGlyph>
    <TTGlyph name="uni3077" xMin="64" yMin="-40" xMax="977" yMax="775">
      <contour>
        <pt x="304" y="775" on="1"/>
        <pt x="515" y="775" on="0"/>
        <pt x="688" y="707" on="1"/>
        <pt x="688" y="641" on="1"/>
        <pt x="599" y="586" on="0"/>
        <pt x="511" y="480" on="0"/>
        <pt x="511" y="423" on="1"/>
        <pt x="511" y="392" on="0"/>
        <pt x="541" y="340" on="0"/>
        <pt x="572" y="301" on="1"/>
        <pt x="612" y="252" on="0"/>
        <pt x="654" y="172" on="0"/>
        <pt x="654" y="117" on="1"/>
        <pt x="654" y="44" on="0"/>
        <pt x="556" y="-40" on="0"/>
        <pt x="465" y="-40" on="1"/>
        <pt x="369" y="-40" on="0"/>
        <pt x="276" y="-3" on="1"/>
        <pt x="293" y="73" on="1"/>
        <pt x="333" y="55" on="0"/>
        <pt x="421" y="37" on="0"/>
        <pt x="460" y="37" on="1"/>
        <pt x="574" y="37" on="0"/>
        <pt x="574" y="129" on="1"/>
        <pt x="574" y="164" on="0"/>
        <pt x="540" y="225" on="0"/>
        <pt x="505" y="269" on="1"/>
        <pt x="468" y="315" on="0"/>
        <pt x="431" y="381" on="0"/>
        <pt x="431" y="421" on="1"/>
        <pt x="431" y="550" on="0"/>
        <pt x="591" y="660" on="1"/>
        <pt x="523" y="679" on="0"/>
        <pt x="386" y="697" on="0"/>
        <pt x="304" y="697" on="1"/>
      </contour>
      <contour>
        <pt x="913" y="745" on="0"/>
        <pt x="977" y="681" on="0"/>
        <pt x="977" y="634" on="1"/>
        <pt x="977" y="587" on="0"/>
        <pt x="913" y="523" on="0"/>
        <pt x="865" y="523" on="1"/>
        <pt x="817" y="523" on="0"/>
        <pt x="753" y="587" on="0"/>
        <pt x="753" y="634" on="1"/>
        <pt x="753" y="681" on="0"/>
        <pt x="817" y="745" on="0"/>
        <pt x="865" y="745" on="1"/>
      </contour>
      <contour>
        <pt x="894" y="566" on="0"/>
        <pt x="932" y="605" on="0"/>
        <pt x="932" y="634" on="1"/>
        <pt x="932" y="662" on="0"/>
        <pt x="894" y="700" on="0"/>
        <pt x="865" y="700" on="1"/>
        <pt x="836" y="700" on="0"/>
        <pt x="798" y="662" on="0"/>
        <pt x="798" y="634" on="1"/>
        <pt x="798" y="605" on="0"/>
        <pt x="836" y="566" on="0"/>
        <pt x="865" y="566" on="1"/>
      </contour>
      <contour>
        <pt x="278" y="365" on="1"/>
        <pt x="257" y="283" on="0"/>
        <pt x="179" y="81" on="0"/>
        <pt x="139" y="11" on="1"/>
        <pt x="64" y="42" on="1"/>
        <pt x="103" y="110" on="0"/>
        <pt x="183" y="306" on="0"/>
        <pt x="202" y="385" on="1"/>
      </contour>
      <contour>
        <pt x="796" y="385" on="1"/>
        <pt x="834" y="331" on="0"/>
        <pt x="919" y="132" on="0"/>
        <pt x="939" y="54" on="1"/>
        <pt x="861" y="28" on="1"/>
        <pt x="844" y="104" on="0"/>
        <pt x="763" y="298" on="0"/>
        <pt x="723" y="357" on="1"/>
      </contour>
    </TTGlyph>
    <TTGlyph name="uni3078" xMin="54" yMin="47" xMax="948" yMax="569">
      <contour>
        <pt x="903" y="47" on="1"/>
        <pt x="800" y="120" on="0"/>
        <pt x="552" y="351" on="0"/>
        <pt x="489" y="425" on="1"/>
        <pt x="464" y="454" on="0"/>
        <pt x="435" y="476" on="0"/>
        <pt x="419" y="476" on="1"/>
        <pt x="404" y="476" on="0"/>
        <pt x="378" y="458" on="0"/>
        <pt x="358" y="435" on="1"/>
        <pt x="304" y="373" on="0"/>
        <pt x="164" y="229" on="0"/>
        <pt x="105" y="178" on="1"/>
        <pt x="54" y="249" on="1"/>
        <pt x="111" y="294" on="0"/>
        <pt x="258" y="441" on="0"/>
        <pt x="316" y="508" on="1"/>
        <pt x="372" y="569" on="0"/>
        <pt x="420" y="569" on="1"/>
        <pt x="449" y="569" on="0"/>
        <pt x="502" y="535" on="0"/>
        <pt x="534" y="498" on="1"/>
        <pt x="602" y="416" on="0"/>
        <pt x="840" y="195" on="0"/>
        <pt x="948" y="120" on="1"/>
      </contour>
    </TTGlyph>
    <TTGlyph name="uni3079" xMin="54" yMin="47" xMax="948" yMax="694">
      <contour>
        <pt x="857" y="512" on="1"/>
        <pt x="815" y="615" on="0"/>
        <pt x="771" y="671" on="1"/>
        <pt x="826" y="694" on="1"/>
        <pt x="849" y="663" on="0"/>
        <pt x="898" y="573" on="0"/>
        <pt x="913" y="534" on="1"/>
      </contour>
      <contour>
        <pt x="733" y="459" on="1"/>
        <pt x="717" y="500" on="0"/>
        <pt x="670" y="586" on="0"/>
        <pt x="647" y="618" on="1"/>
        <pt x="700" y="640" on="1"/>
        <pt x="746" y="581" on="0"/>
        <pt x="789" y="481" on="1"/>
      </contour>
      <contour>
        <pt x="903" y="47" on="1"/>
        <pt x="800" y="120" on="0"/>
        <pt x="552" y="351" on="0"/>
        <pt x="489" y="425" on="1"/>
        <pt x="464" y="454" on="0"/>
        <pt x="435" y="476" on="0"/>
        <pt x="419" y="476" on="1"/>
        <pt x="404" y="476" on="0"/>
        <pt x="378" y="458" on="0"/>
        <pt x="358" y="435" on="1"/>
        <pt x="304" y="373" on="0"/>
        <pt x="164" y="229" on="0"/>
        <pt x="105" y="178" on="1"/>
        <pt x="54" y="249" on="1"/>
        <pt x="111" y="294" on="0"/>
        <pt x="258" y="441" on="0"/>
        <pt x="316" y="508" on="1"/>
        <pt x="372" y="569" on="0"/>
        <pt x="420" y="569" on="1"/>
        <pt x="449" y="569" on="0"/>
        <pt x="502" y="535" on="0"/>
        <pt x="534" y="498" on="1"/>
        <pt x="602" y="416" on="0"/>
        <pt x="840" y="195" on="0"/>
        <pt x="948" y="120" on="1"/>
      </contour>
    </TTGlyph>
    <TTGlyph name="uni307A" xMin="54" yMin="47" xMax="948" yMax="688">
      <contour>
        <pt x="732" y="467" on="0"/>
        <pt x="668" y="531" on="0"/>
        <pt x="668" y="578" on="1"/>
        <pt x="668" y="625" on="0"/>
        <pt x="732" y="688" on="0"/>
        <pt x="781" y="688" on="1"/>
        <pt x="829" y="688" on="0"/>
        <pt x="892" y="625" on="0"/>
        <pt x="893" y="578" on="1"/>
        <pt x="893" y="531" on="0"/>
        <pt x="829" y="467" on="0"/>
        <pt x="781" y="467" on="1"/>
      </contour>
      <contour>
        <pt x="809" y="510" on="0"/>
        <pt x="847" y="549" on="0"/>
        <pt x="847" y="578" on="1"/>
        <pt x="847" y="607" on="0"/>
        <pt x="810" y="644" on="0"/>
        <pt x="781" y="644" on="1"/>
        <pt x="752" y="644" on="0"/>
        <pt x="714" y="607" on="0"/>
        <pt x="714" y="578" on="1"/>
        <pt x="714" y="549" on="0"/>
        <pt x="752" y="510" on="0"/>
        <pt x="781" y="510" on="1"/>
      </contour>
      <contour>
        <pt x="903" y="47" on="1"/>
        <pt x="800" y="120" on="0"/>
        <pt x="552" y="351" on="0"/>
        <pt x="489" y="425" on="1"/>
        <pt x="464" y="454" on="0"/>
        <pt x="435" y="476" on="0"/>
        <pt x="419" y="476" on="1"/>
        <pt x="404" y="476" on="0"/>
        <pt x="378" y="458" on="0"/>
        <pt x="358" y="435" on="1"/>
        <pt x="304" y="373" on="0"/>
        <pt x="164" y="229" on="0"/>
        <pt x="105" y="178" on="1"/>
        <pt x="54" y="249" on="1"/>
        <pt x="111" y="294" on="0"/>
        <pt x="258" y="441" on="0"/>
        <pt x="316" y="508" on="1"/>
        <pt x="372" y="569" on="0"/>
        <pt x="420" y="569" on="1"/>
        <pt x="449" y="569" on="0"/>
        <pt x="502" y="535" on="0"/>
        <pt x="534" y="498" on="1"/>
        <pt x="602" y="416" on="0"/>
        <pt x="840" y="195" on="0"/>
        <pt x="948" y="120" on="1"/>
      </contour>
    </TTGlyph>
    <TTGlyph name="uni307B" xMin="109" yMin="-57" xMax="903" yMax="743">
      <contour>
        <pt x="218" y="743" on="1"/>
        <pt x="189" y="598" on="0"/>
        <pt x="189" y="361" on="1"/>
        <pt x="189" y="249" on="0"/>
        <pt x="210" y="24" on="0"/>
        <pt x="231" y="-56" on="1"/>
        <pt x="152" y="-56" on="1"/>
        <pt x="131" y="20" on="0"/>
        <pt x="109" y="242" on="0"/>
        <pt x="109" y="356" on="1"/>
        <pt x="109" y="595" on="0"/>
        <pt x="136" y="743" on="1"/>
      </contour>
      <contour>
        <pt x="866" y="10" on="1"/>
        <pt x="788" y="81" on="0"/>
        <pt x="725" y="119" on="1"/>
        <pt x="722" y="38" on="0"/>
        <pt x="616" y="-57" on="0"/>
        <pt x="530" y="-57" on="1"/>
        <pt x="470" y="-57" on="0"/>
        <pt x="381" y="-18" on="0"/>
        <pt x="333" y="52" on="0"/>
        <pt x="333" y="96" on="1"/>
        <pt x="333" y="165" on="0"/>
        <pt x="441" y="248" on="0"/>
        <pt x="534" y="248" on="1"/>
        <pt x="593" y="248" on="0"/>
        <pt x="645" y="233" on="1"/>
        <pt x="645" y="416" on="1"/>
        <pt x="337" y="416" on="1"/>
        <pt x="337" y="490" on="1"/>
        <pt x="645" y="490" on="1"/>
        <pt x="645" y="653" on="1"/>
        <pt x="361" y="653" on="1"/>
        <pt x="361" y="727" on="1"/>
        <pt x="870" y="727" on="1"/>
        <pt x="870" y="653" on="1"/>
        <pt x="725" y="653" on="1"/>
        <pt x="725" y="490" on="1"/>
        <pt x="887" y="490" on="1"/>
        <pt x="887" y="416" on="1"/>
        <pt x="725" y="416" on="1"/>
        <pt x="725" y="204" on="1"/>
        <pt x="813" y="161" on="0"/>
        <pt x="903" y="78" on="1"/>
      </contour>
      <contour>
        <pt x="645" y="157" on="1"/>
        <pt x="590" y="176" on="0"/>
        <pt x="533" y="176" on="1"/>
        <pt x="474" y="176" on="0"/>
        <pt x="411" y="132" on="0"/>
        <pt x="411" y="94" on="1"/>
        <pt x="411" y="59" on="0"/>
        <pt x="474" y="15" on="0"/>
        <pt x="531" y="15" on="1"/>
        <pt x="587" y="15" on="0"/>
        <pt x="645" y="70" on="0"/>
        <pt x="645" y="122" on="1"/>
      </contour>
    </TTGlyph>
    <TTGlyph name="uni307C" xMin="81" yMin="-57" xMax="997" yMax="825">
      <contour>
        <pt x="943" y="825" on="1"/>
        <pt x="960" y="792" on="0"/>
        <pt x="990" y="695" on="0"/>
        <pt x="997" y="652" on="1"/>
        <pt x="938" y="644" on="1"/>
        <pt x="917" y="752" on="0"/>
        <pt x="886" y="817" on="1"/>
      </contour>
      <contour>
        <pt x="697" y="416" on="1"/>
        <pt x="697" y="204" on="1"/>
        <pt x="785" y="161" on="0"/>
        <pt x="875" y="78" on="1"/>
        <pt x="838" y="10" on="1"/>
        <pt x="760" y="81" on="0"/>
        <pt x="697" y="119" on="1"/>
        <pt x="694" y="38" on="0"/>
        <pt x="588" y="-57" on="0"/>
        <pt x="502" y="-57" on="1"/>
        <pt x="442" y="-57" on="0"/>
        <pt x="353" y="-18" on="0"/>
        <pt x="305" y="52" on="0"/>
        <pt x="305" y="96" on="1"/>
        <pt x="305" y="165" on="0"/>
        <pt x="413" y="248" on="0"/>
        <pt x="506" y="248" on="1"/>
        <pt x="565" y="248" on="0"/>
        <pt x="617" y="233" on="1"/>
        <pt x="617" y="416" on="1"/>
        <pt x="309" y="416" on="1"/>
        <pt x="309" y="490" on="1"/>
        <pt x="617" y="490" on="1"/>
        <pt x="617" y="653" on="1"/>
        <pt x="333" y="653" on="1"/>
        <pt x="333" y="727" on="1"/>
        <pt x="780" y="727" on="1"/>
        <pt x="765" y="774" on="0"/>
        <pt x="752" y="801" on="1"/>
        <pt x="809" y="810" on="1"/>
        <pt x="839" y="750" on="0"/>
        <pt x="865" y="636" on="1"/>
        <pt x="805" y="629" on="1"/>
        <pt x="800" y="653" on="1"/>
        <pt x="697" y="653" on="1"/>
        <pt x="697" y="490" on="1"/>
        <pt x="859" y="490" on="1"/>
        <pt x="859" y="416" on="1"/>
      </contour>
      <contour>
        <pt x="190" y="743" on="1"/>
        <pt x="161" y="598" on="0"/>
        <pt x="161" y="361" on="1"/>
        <pt x="161" y="249" on="0"/>
        <pt x="182" y="24" on="0"/>
        <pt x="203" y="-56" on="1"/>
        <pt x="124" y="-56" on="1"/>
        <pt x="103" y="20" on="0"/>
        <pt x="81" y="242" on="0"/>
        <pt x="81" y="356" on="1"/>
        <pt x="81" y="595" on="0"/>
        <pt x="108" y="743" on="1"/>
      </contour>
      <contour>
        <pt x="617" y="157" on="1"/>
        <pt x="562" y="176" on="0"/>
        <pt x="505" y="176" on="1"/>
        <pt x="446" y="176" on="0"/>
        <pt x="383" y="132" on="0"/>
        <pt x="383" y="94" on="1"/>
        <pt x="383" y="59" on="0"/>
        <pt x="446" y="15" on="0"/>
        <pt x="503" y="15" on="1"/>
        <pt x="559" y="15" on="0"/>
        <pt x="617" y="70" on="0"/>
        <pt x="617" y="122" on="1"/>
      </contour>
    </TTGlyph>
    <TTGlyph name="uni307D" xMin="79" yMin="-57" xMax="988" yMax="828">
      <contour>
        <pt x="923" y="828" on="0"/>
        <pt x="987" y="765" on="0"/>
        <pt x="988" y="717" on="1"/>
        <pt x="988" y="670" on="0"/>
        <pt x="924" y="606" on="0"/>
        <pt x="875" y="606" on="1"/>
        <pt x="846" y="606" on="0"/>
        <pt x="797" y="631" on="0"/>
        <pt x="782" y="653" on="1"/>
        <pt x="695" y="653" on="1"/>
        <pt x="695" y="490" on="1"/>
        <pt x="857" y="490" on="1"/>
        <pt x="857" y="416" on="1"/>
        <pt x="695" y="416" on="1"/>
        <pt x="695" y="204" on="1"/>
        <pt x="779" y="165" on="0"/>
        <pt x="873" y="81" on="1"/>
        <pt x="836" y="10" on="1"/>
        <pt x="761" y="80" on="0"/>
        <pt x="695" y="120" on="1"/>
        <pt x="693" y="38" on="0"/>
        <pt x="586" y="-57" on="0"/>
        <pt x="500" y="-57" on="1"/>
        <pt x="440" y="-57" on="0"/>
        <pt x="351" y="-18" on="0"/>
        <pt x="303" y="52" on="0"/>
        <pt x="303" y="96" on="1"/>
        <pt x="303" y="165" on="0"/>
        <pt x="411" y="248" on="0"/>
        <pt x="504" y="248" on="1"/>
        <pt x="562" y="248" on="0"/>
        <pt x="615" y="233" on="1"/>
        <pt x="615" y="416" on="1"/>
        <pt x="307" y="416" on="1"/>
        <pt x="307" y="490" on="1"/>
        <pt x="615" y="490" on="1"/>
        <pt x="615" y="653" on="1"/>
        <pt x="331" y="653" on="1"/>
        <pt x="331" y="727" on="1"/>
        <pt x="763" y="727" on="1"/>
        <pt x="767" y="771" on="0"/>
        <pt x="830" y="828" on="0"/>
        <pt x="875" y="828" on="1"/>
      </contour>
      <contour>
        <pt x="904" y="649" on="0"/>
        <pt x="942" y="688" on="0"/>
        <pt x="942" y="717" on="1"/>
        <pt x="942" y="746" on="0"/>
        <pt x="904" y="783" on="0"/>
        <pt x="875" y="783" on="1"/>
        <pt x="847" y="783" on="0"/>
        <pt x="809" y="746" on="0"/>
        <pt x="809" y="717" on="1"/>
        <pt x="809" y="688" on="0"/>
        <pt x="847" y="649" on="0"/>
        <pt x="875" y="649" on="1"/>
      </contour>
      <contour>
        <pt x="188" y="743" on="1"/>
        <pt x="159" y="598" on="0"/>
        <pt x="159" y="361" on="1"/>
        <pt x="159" y="249" on="0"/>
        <pt x="180" y="24" on="0"/>
        <pt x="201" y="-56" on="1"/>
        <pt x="122" y="-56" on="1"/>
        <pt x="101" y="20" on="0"/>
        <pt x="79" y="242" on="0"/>
        <pt x="79" y="356" on="1"/>
        <pt x="79" y="595" on="0"/>
        <pt x="106" y="743" on="1"/>
      </contour>
      <contour>
        <pt x="615" y="157" on="1"/>
        <pt x="560" y="176" on="0"/>
        <pt x="503" y="176" on="1"/>
        <pt x="444" y="176" on="0"/>
        <pt x="381" y="132" on="0"/>
        <pt x="381" y="94" on="1"/>
        <pt x="381" y="59" on="0"/>
        <pt x="444" y="15" on="0"/>
        <pt x="501" y="15" on="1"/>
        <pt x="557" y="15" on="0"/>
        <pt x="615" y="70" on="0"/>
        <pt x="615" y="122" on="1"/>
      </contour>
    </TTGlyph>
    <TTGlyph name="uni307E" xMin="145" yMin="-58" xMax="863" yMax="787">
      <contour>
        <pt x="822" y="-18" on="1"/>
        <pt x="767" y="32" on="0"/>
        <pt x="629" y="121" on="0"/>
        <pt x="551" y="147" on="1"/>
        <pt x="551" y="130" on="1"/>
        <pt x="551" y="34" on="0"/>
        <pt x="443" y="-58" on="0"/>
        <pt x="353" y="-58" on="1"/>
        <pt x="257" y="-58" on="0"/>
        <pt x="145" y="21" on="0"/>
        <pt x="145" y="89" on="1"/>
        <pt x="145" y="163" on="0"/>
        <pt x="272" y="250" on="0"/>
        <pt x="381" y="250" on="1"/>
        <pt x="428" y="250" on="0"/>
        <pt x="469" y="243" on="1"/>
        <pt x="469" y="384" on="1"/>
        <pt x="212" y="384" on="1"/>
        <pt x="212" y="458" on="1"/>
        <pt x="469" y="458" on="1"/>
        <pt x="469" y="608" on="1"/>
        <pt x="152" y="608" on="1"/>
        <pt x="152" y="682" on="1"/>
        <pt x="469" y="682" on="1"/>
        <pt x="469" y="787" on="1"/>
        <pt x="551" y="787" on="1"/>
        <pt x="551" y="682" on="1"/>
        <pt x="856" y="682" on="1"/>
        <pt x="856" y="608" on="1"/>
        <pt x="551" y="608" on="1"/>
        <pt x="551" y="458" on="1"/>
        <pt x="817" y="458" on="1"/>
        <pt x="817" y="384" on="1"/>
        <pt x="551" y="384" on="1"/>
        <pt x="551" y="225" on="1"/>
        <pt x="640" y="199" on="0"/>
        <pt x="798" y="106" on="0"/>
        <pt x="863" y="52" on="1"/>
      </contour>
      <contour>
        <pt x="469" y="169" on="1"/>
        <pt x="422" y="178" on="0"/>
        <pt x="373" y="178" on="1"/>
        <pt x="305" y="178" on="0"/>
        <pt x="225" y="132" on="0"/>
        <pt x="225" y="92" on="1"/>
        <pt x="225" y="57" on="0"/>
        <pt x="294" y="14" on="0"/>
        <pt x="353" y="14" on="1"/>
        <pt x="412" y="14" on="0"/>
        <pt x="469" y="71" on="0"/>
        <pt x="469" y="128" on="1"/>
      </contour>
    </TTGlyph>
    <TTGlyph name="uni307F" xMin="77" yMin="-78" xMax="922" yMax="731">
      <contour>
        <pt x="872" y="307" on="0"/>
        <pt x="922" y="94" on="1"/>
        <pt x="854" y="66" on="1"/>
        <pt x="814" y="236" on="0"/>
        <pt x="724" y="318" on="1"/>
        <pt x="704" y="184" on="0"/>
        <pt x="619" y="-12" on="0"/>
        <pt x="552" y="-78" on="1"/>
        <pt x="486" y="-33" on="1"/>
        <pt x="557" y="42" on="0"/>
        <pt x="636" y="229" on="0"/>
        <pt x="652" y="365" on="1"/>
        <pt x="580" y="398" on="0"/>
        <pt x="479" y="398" on="1"/>
        <pt x="465" y="398" on="1"/>
        <pt x="437" y="214" on="0"/>
        <pt x="313" y="24" on="0"/>
        <pt x="220" y="24" on="1"/>
        <pt x="158" y="24" on="0"/>
        <pt x="77" y="102" on="0"/>
        <pt x="77" y="163" on="1"/>
        <pt x="77" y="240" on="0"/>
        <pt x="157" y="367" on="0"/>
        <pt x="302" y="450" on="0"/>
        <pt x="397" y="464" on="1"/>
        <pt x="407" y="550" on="0"/>
        <pt x="407" y="657" on="1"/>
        <pt x="153" y="657" on="1"/>
        <pt x="153" y="731" on="1"/>
        <pt x="487" y="731" on="1"/>
        <pt x="487" y="586" on="0"/>
        <pt x="475" y="470" on="1"/>
        <pt x="487" y="470" on="1"/>
        <pt x="581" y="470" on="0"/>
        <pt x="659" y="440" on="1"/>
        <pt x="664" y="513" on="0"/>
        <pt x="664" y="633" on="1"/>
        <pt x="744" y="633" on="1"/>
        <pt x="744" y="501" on="0"/>
        <pt x="734" y="400" on="1"/>
      </contour>
      <contour>
        <pt x="279" y="93" on="0"/>
        <pt x="365" y="253" on="0"/>
        <pt x="387" y="389" on="1"/>
        <pt x="283" y="369" on="0"/>
        <pt x="153" y="249" on="0"/>
        <pt x="153" y="167" on="1"/>
        <pt x="153" y="134" on="0"/>
        <pt x="190" y="93" on="0"/>
        <pt x="221" y="93" on="1"/>
      </contour>
    </TTGlyph>
    <TTGlyph name="uni3080" xMin="72" yMin="-58" xMax="943" yMax="789">
      <contour>
        <pt x="836" y="335" on="1"/>
        <pt x="869" y="243" on="0"/>
        <pt x="869" y="167" on="1"/>
        <pt x="869" y="44" on="0"/>
        <pt x="709" y="-58" on="0"/>
        <pt x="539" y="-58" on="1"/>
        <pt x="408" y="-58" on="0"/>
        <pt x="288" y="9" on="0"/>
        <pt x="288" y="82" on="1"/>
        <pt x="288" y="127" on="0"/>
        <pt x="301" y="181" on="1"/>
        <pt x="265" y="153" on="0"/>
        <pt x="219" y="153" on="1"/>
        <pt x="151" y="153" on="0"/>
        <pt x="72" y="236" on="0"/>
        <pt x="72" y="306" on="1"/>
        <pt x="72" y="381" on="0"/>
        <pt x="151" y="468" on="0"/>
        <pt x="219" y="468" on="1"/>
        <pt x="281" y="468" on="0"/>
        <pt x="323" y="421" on="1"/>
        <pt x="323" y="595" on="1"/>
        <pt x="95" y="595" on="1"/>
        <pt x="95" y="671" on="1"/>
        <pt x="323" y="671" on="1"/>
        <pt x="323" y="789" on="1"/>
        <pt x="403" y="789" on="1"/>
        <pt x="403" y="671" on="1"/>
        <pt x="629" y="671" on="1"/>
        <pt x="629" y="595" on="1"/>
        <pt x="403" y="595" on="1"/>
        <pt x="403" y="332" on="1"/>
        <pt x="403" y="294" on="0"/>
        <pt x="394" y="235" on="0"/>
        <pt x="386" y="198" on="1"/>
        <pt x="373" y="142" on="0"/>
        <pt x="373" y="106" on="1"/>
        <pt x="373" y="58" on="0"/>
        <pt x="454" y="18" on="0"/>
        <pt x="546" y="18" on="1"/>
        <pt x="672" y="18" on="0"/>
        <pt x="791" y="86" on="0"/>
        <pt x="791" y="170" on="1"/>
        <pt x="791" y="226" on="0"/>
        <pt x="760" y="319" on="1"/>
      </contour>
      <contour>
        <pt x="759" y="738" on="1"/>
        <pt x="809" y="697" on="0"/>
        <pt x="908" y="582" on="0"/>
        <pt x="943" y="526" on="1"/>
        <pt x="880" y="478" on="1"/>
        <pt x="847" y="531" on="0"/>
        <pt x="750" y="642" on="0"/>
        <pt x="698" y="688" on="1"/>
      </contour>
      <contour>
        <pt x="265" y="219" on="0"/>
        <pt x="315" y="267" on="0"/>
        <pt x="321" y="308" on="1"/>
        <pt x="316" y="351" on="0"/>
        <pt x="267" y="401" on="0"/>
        <pt x="228" y="401" on="1"/>
        <pt x="191" y="401" on="0"/>
        <pt x="148" y="350" on="0"/>
        <pt x="148" y="307" on="1"/>
        <pt x="148" y="267" on="0"/>
        <pt x="191" y="219" on="0"/>
        <pt x="228" y="219" on="1"/>
      </contour>
    </TTGlyph>
    <TTGlyph name="uni3081" xMin="72" yMin="-80" xMax="916" yMax="794">
      <contour>
        <pt x="757" y="583" on="0"/>
        <pt x="916" y="410" on="0"/>
        <pt x="916" y="272" on="1"/>
        <pt x="916" y="187" on="0"/>
        <pt x="841" y="43" on="0"/>
        <pt x="700" y="-58" on="0"/>
        <pt x="605" y="-80" on="1"/>
        <pt x="574" y="-9" on="1"/>
        <pt x="697" y="14" on="0"/>
        <pt x="840" y="163" on="0"/>
        <pt x="840" y="272" on="1"/>
        <pt x="840" y="377" on="0"/>
        <pt x="716" y="512" on="0"/>
        <pt x="608" y="526" on="1"/>
        <pt x="582" y="357" on="0"/>
        <pt x="476" y="114" on="0"/>
        <pt x="323" y="-16" on="0"/>
        <pt x="228" y="-16" on="1"/>
        <pt x="158" y="-16" on="0"/>
        <pt x="72" y="81" on="0"/>
        <pt x="72" y="166" on="1"/>
        <pt x="72" y="259" on="0"/>
        <pt x="166" y="432" on="0"/>
        <pt x="247" y="495" on="1"/>
        <pt x="232" y="597" on="0"/>
        <pt x="230" y="721" on="1"/>
        <pt x="308" y="721" on="1"/>
        <pt x="308" y="627" on="0"/>
        <pt x="318" y="541" on="1"/>
        <pt x="422" y="599" on="0"/>
        <pt x="542" y="603" on="1"/>
        <pt x="552" y="699" on="0"/>
        <pt x="553" y="794" on="1"/>
        <pt x="631" y="794" on="1"/>
        <pt x="628" y="685" on="0"/>
        <pt x="618" y="600" on="1"/>
      </contour>
      <contour>
        <pt x="422" y="522" on="0"/>
        <pt x="329" y="463" on="1"/>
        <pt x="358" y="298" on="0"/>
        <pt x="420" y="186" on="1"/>
        <pt x="497" y="308" on="0"/>
        <pt x="532" y="528" on="1"/>
      </contour>
      <contour>
        <pt x="312" y="60" on="0"/>
        <pt x="373" y="124" on="1"/>
        <pt x="299" y="241" on="0"/>
        <pt x="262" y="412" on="1"/>
        <pt x="209" y="362" on="0"/>
        <pt x="148" y="237" on="0"/>
        <pt x="148" y="171" on="1"/>
        <pt x="148" y="120" on="0"/>
        <pt x="199" y="60" on="0"/>
        <pt x="241" y="60" on="1"/>
      </contour>
    </TTGlyph>
    <TTGlyph name="uni3082" xMin="102" yMin="-59" xMax="892" yMax="791">
      <contour>
        <pt x="842" y="393" on="1"/>
        <pt x="867" y="353" on="0"/>
        <pt x="892" y="251" on="0"/>
        <pt x="892" y="196" on="1"/>
        <pt x="892" y="74" on="0"/>
        <pt x="728" y="-59" on="0"/>
        <pt x="576" y="-59" on="1"/>
        <pt x="440" y="-59" on="0"/>
        <pt x="307" y="63" on="0"/>
        <pt x="307" y="188" on="1"/>
        <pt x="307" y="208" on="0"/>
        <pt x="308" y="219" on="1"/>
        <pt x="313" y="311" on="1"/>
        <pt x="102" y="311" on="1"/>
        <pt x="102" y="387" on="1"/>
        <pt x="318" y="387" on="1"/>
        <pt x="329" y="583" on="1"/>
        <pt x="119" y="583" on="1"/>
        <pt x="119" y="659" on="1"/>
        <pt x="333" y="659" on="1"/>
        <pt x="341" y="791" on="1"/>
        <pt x="423" y="791" on="1"/>
        <pt x="416" y="659" on="1"/>
        <pt x="746" y="659" on="1"/>
        <pt x="746" y="583" on="1"/>
        <pt x="411" y="583" on="1"/>
        <pt x="400" y="387" on="1"/>
        <pt x="654" y="387" on="1"/>
        <pt x="654" y="311" on="1"/>
        <pt x="396" y="311" on="1"/>
        <pt x="391" y="220" on="1"/>
        <pt x="380" y="21" on="0"/>
        <pt x="576" y="21" on="1"/>
        <pt x="686" y="21" on="0"/>
        <pt x="810" y="119" on="0"/>
        <pt x="810" y="206" on="1"/>
        <pt x="810" y="255" on="0"/>
        <pt x="782" y="352" on="0"/>
        <pt x="756" y="393" on="1"/>
      </contour>
    </TTGlyph>
    <TTGlyph name="uni3083" xMin="136" yMin="-74" xMax="843" yMax="637">
      <contour>
        <pt x="737" y="474" on="0"/>
        <pt x="843" y="376" on="0"/>
        <pt x="843" y="296" on="1"/>
        <pt x="843" y="217" on="0"/>
        <pt x="742" y="126" on="0"/>
        <pt x="655" y="126" on="1"/>
        <pt x="577" y="126" on="1"/>
        <pt x="577" y="200" on="1"/>
        <pt x="644" y="200" on="1"/>
        <pt x="699" y="200" on="0"/>
        <pt x="765" y="252" on="0"/>
        <pt x="765" y="295" on="1"/>
        <pt x="765" y="342" on="0"/>
        <pt x="698" y="400" on="0"/>
        <pt x="643" y="400" on="1"/>
        <pt x="615" y="400" on="0"/>
        <pt x="515" y="377" on="0"/>
        <pt x="456" y="357" on="1"/>
        <pt x="392" y="335" on="1"/>
        <pt x="507" y="-52" on="1"/>
        <pt x="431" y="-74" on="1"/>
        <pt x="316" y="310" on="1"/>
        <pt x="161" y="257" on="1"/>
        <pt x="136" y="329" on="1"/>
        <pt x="295" y="382" on="1"/>
        <pt x="243" y="556" on="1"/>
        <pt x="319" y="579" on="1"/>
        <pt x="370" y="408" on="1"/>
        <pt x="437" y="430" on="1"/>
        <pt x="481" y="445" on="0"/>
        <pt x="530" y="457" on="1"/>
        <pt x="508" y="628" on="1"/>
        <pt x="590" y="637" on="1"/>
        <pt x="606" y="471" on="1"/>
        <pt x="630" y="474" on="0"/>
        <pt x="649" y="474" on="1"/>
      </contour>
    </TTGlyph>
    <TTGlyph name="uni3084" xMin="60" yMin="-75" xMax="923" yMax="794">
      <contour>
        <pt x="758" y="590" on="0"/>
        <pt x="864" y="538" on="0"/>
        <pt x="923" y="442" on="0"/>
        <pt x="923" y="377" on="1"/>
        <pt x="923" y="282" on="0"/>
        <pt x="800" y="171" on="0"/>
        <pt x="696" y="171" on="1"/>
        <pt x="608" y="171" on="1"/>
        <pt x="608" y="249" on="1"/>
        <pt x="683" y="249" on="1"/>
        <pt x="755" y="249" on="0"/>
        <pt x="841" y="319" on="0"/>
        <pt x="841" y="376" on="1"/>
        <pt x="841" y="438" on="0"/>
        <pt x="754" y="512" on="0"/>
        <pt x="681" y="512" on="1"/>
        <pt x="645" y="512" on="0"/>
        <pt x="517" y="483" on="0"/>
        <pt x="444" y="459" on="1"/>
        <pt x="356" y="429" on="1"/>
        <pt x="500" y="-53" on="1"/>
        <pt x="421" y="-75" on="1"/>
        <pt x="278" y="403" on="1"/>
        <pt x="84" y="338" on="1"/>
        <pt x="60" y="413" on="1"/>
        <pt x="255" y="478" on="1"/>
        <pt x="190" y="697" on="1"/>
        <pt x="269" y="720" on="1"/>
        <pt x="333" y="505" on="1"/>
        <pt x="427" y="536" on="1"/>
        <pt x="494" y="558" on="0"/>
        <pt x="551" y="571" on="1"/>
        <pt x="523" y="784" on="1"/>
        <pt x="606" y="794" on="1"/>
        <pt x="627" y="585" on="1"/>
        <pt x="664" y="590" on="0"/>
        <pt x="688" y="590" on="1"/>
      </contour>
    </TTGlyph>
    <TTGlyph name="uni3085" xMin="214" yMin="-90" xMax="815" yMax="641">
      <contour>
        <pt x="815" y="231" on="0"/>
        <pt x="751" y="117" on="0"/>
        <pt x="633" y="55" on="0"/>
        <pt x="554" y="55" on="1"/>
        <pt x="538" y="13" on="0"/>
        <pt x="488" y="-56" on="0"/>
        <pt x="450" y="-90" on="1"/>
        <pt x="389" y="-45" on="1"/>
        <pt x="421" y="-18" on="0"/>
        <pt x="463" y="35" on="0"/>
        <pt x="477" y="67" on="1"/>
        <pt x="413" y="86" on="0"/>
        <pt x="347" y="139" on="1"/>
        <pt x="375" y="204" on="1"/>
        <pt x="437" y="152" on="0"/>
        <pt x="498" y="135" on="1"/>
        <pt x="512" y="205" on="0"/>
        <pt x="512" y="330" on="1"/>
        <pt x="512" y="471" on="1"/>
        <pt x="447" y="459" on="0"/>
        <pt x="347" y="366" on="0"/>
        <pt x="292" y="242" on="0"/>
        <pt x="291" y="184" on="1"/>
        <pt x="290" y="96" on="1"/>
        <pt x="214" y="96" on="1"/>
        <pt x="214" y="546" on="1"/>
        <pt x="290" y="546" on="1"/>
        <pt x="290" y="381" on="1"/>
        <pt x="326" y="446" on="0"/>
        <pt x="442" y="531" on="0"/>
        <pt x="512" y="544" on="1"/>
        <pt x="512" y="641" on="1"/>
        <pt x="588" y="641" on="1"/>
        <pt x="588" y="548" on="1"/>
        <pt x="692" y="542" on="0"/>
        <pt x="815" y="412" on="0"/>
        <pt x="815" y="307" on="1"/>
      </contour>
      <contour>
        <pt x="651" y="134" on="0"/>
        <pt x="739" y="228" on="0"/>
        <pt x="739" y="307" on="1"/>
        <pt x="739" y="376" on="0"/>
        <pt x="659" y="464" on="0"/>
        <pt x="588" y="473" on="1"/>
        <pt x="588" y="330" on="1"/>
        <pt x="588" y="205" on="0"/>
        <pt x="574" y="129" on="1"/>
      </contour>
    </TTGlyph>
    <TTGlyph name="uni3086" xMin="159" yMin="-92" xMax="885" yMax="795">
      <contour>
        <pt x="604" y="685" on="1"/>
        <pt x="690" y="681" on="0"/>
        <pt x="817" y="607" on="0"/>
        <pt x="885" y="476" on="0"/>
        <pt x="885" y="390" on="1"/>
        <pt x="885" y="298" on="0"/>
        <pt x="808" y="159" on="0"/>
        <pt x="664" y="83" on="0"/>
        <pt x="567" y="83" on="1"/>
        <pt x="563" y="83" on="1"/>
        <pt x="544" y="32" on="0"/>
        <pt x="484" y="-52" on="0"/>
        <pt x="439" y="-92" on="1"/>
        <pt x="372" y="-46" on="1"/>
        <pt x="411" y="-12" on="0"/>
        <pt x="463" y="56" on="0"/>
        <pt x="480" y="96" on="1"/>
        <pt x="400" y="119" on="0"/>
        <pt x="319" y="184" on="1"/>
        <pt x="348" y="252" on="1"/>
        <pt x="426" y="188" on="0"/>
        <pt x="504" y="170" on="1"/>
        <pt x="524" y="255" on="0"/>
        <pt x="524" y="421" on="1"/>
        <pt x="524" y="604" on="1"/>
        <pt x="440" y="590" on="0"/>
        <pt x="311" y="472" on="0"/>
        <pt x="241" y="312" on="0"/>
        <pt x="240" y="238" on="1"/>
        <pt x="239" y="134" on="1"/>
        <pt x="159" y="134" on="1"/>
        <pt x="159" y="682" on="1"/>
        <pt x="239" y="682" on="1"/>
        <pt x="239" y="466" on="1"/>
        <pt x="283" y="554" on="0"/>
        <pt x="432" y="666" on="0"/>
        <pt x="524" y="680" on="1"/>
        <pt x="524" y="795" on="1"/>
        <pt x="604" y="795" on="1"/>
      </contour>
      <contour>
        <pt x="688" y="167" on="0"/>
        <pt x="805" y="289" on="0"/>
        <pt x="805" y="390" on="1"/>
        <pt x="805" y="481" on="0"/>
        <pt x="697" y="595" on="0"/>
        <pt x="604" y="605" on="1"/>
        <pt x="604" y="421" on="1"/>
        <pt x="604" y="256" on="0"/>
        <pt x="585" y="162" on="1"/>
      </contour>
    </TTGlyph>
    <TTGlyph name="uni3087" xMin="202" yMin="-64" xMax="799" yMax="625">
      <contour>
        <pt x="799" y="380" on="1"/>
        <pt x="543" y="380" on="1"/>
        <pt x="543" y="176" on="1"/>
        <pt x="616" y="153" on="0"/>
        <pt x="751" y="76" on="0"/>
        <pt x="799" y="35" on="1"/>
        <pt x="754" y="-34" on="1"/>
        <pt x="714" y="3" on="0"/>
        <pt x="604" y="75" on="0"/>
        <pt x="543" y="99" on="1"/>
        <pt x="541" y="19" on="0"/>
        <pt x="456" y="-64" on="0"/>
        <pt x="377" y="-64" on="1"/>
        <pt x="296" y="-64" on="0"/>
        <pt x="202" y="6" on="0"/>
        <pt x="202" y="65" on="1"/>
        <pt x="202" y="125" on="0"/>
        <pt x="309" y="200" on="0"/>
        <pt x="396" y="200" on="1"/>
        <pt x="431" y="200" on="0"/>
        <pt x="465" y="194" on="1"/>
        <pt x="465" y="625" on="1"/>
        <pt x="543" y="625" on="1"/>
        <pt x="543" y="452" on="1"/>
        <pt x="799" y="452" on="1"/>
      </contour>
      <contour>
        <pt x="465" y="122" on="1"/>
        <pt x="425" y="130" on="0"/>
        <pt x="388" y="130" on="1"/>
        <pt x="340" y="130" on="0"/>
        <pt x="280" y="94" on="0"/>
        <pt x="280" y="66" on="1"/>
        <pt x="280" y="38" on="0"/>
        <pt x="332" y="5" on="0"/>
        <pt x="377" y="5" on="1"/>
        <pt x="419" y="5" on="0"/>
        <pt x="465" y="51" on="0"/>
        <pt x="465" y="94" on="1"/>
      </contour>
    </TTGlyph>
    <TTGlyph name="uni3088" xMin="135" yMin="-64" xMax="864" yMax="783">
      <contour>
        <pt x="864" y="490" on="1"/>
        <pt x="545" y="490" on="1"/>
        <pt x="545" y="224" on="1"/>
        <pt x="634" y="196" on="0"/>
        <pt x="799" y="103" on="0"/>
        <pt x="860" y="53" on="1"/>
        <pt x="815" y="-19" on="1"/>
        <pt x="762" y="28" on="0"/>
        <pt x="622" y="116" on="0"/>
        <pt x="545" y="144" on="1"/>
        <pt x="545" y="141" on="1"/>
        <pt x="545" y="38" on="0"/>
        <pt x="440" y="-64" on="0"/>
        <pt x="345" y="-64" on="1"/>
        <pt x="249" y="-64" on="0"/>
        <pt x="135" y="20" on="0"/>
        <pt x="135" y="89" on="1"/>
        <pt x="135" y="164" on="0"/>
        <pt x="261" y="252" on="0"/>
        <pt x="368" y="252" on="1"/>
        <pt x="411" y="252" on="0"/>
        <pt x="461" y="244" on="1"/>
        <pt x="461" y="783" on="1"/>
        <pt x="545" y="783" on="1"/>
        <pt x="545" y="568" on="1"/>
        <pt x="864" y="568" on="1"/>
      </contour>
      <contour>
        <pt x="461" y="169" on="1"/>
        <pt x="408" y="180" on="0"/>
        <pt x="357" y="180" on="1"/>
        <pt x="292" y="180" on="0"/>
        <pt x="215" y="131" on="0"/>
        <pt x="215" y="90" on="1"/>
        <pt x="215" y="52" on="0"/>
        <pt x="285" y="8" on="0"/>
        <pt x="346" y="8" on="1"/>
        <pt x="402" y="8" on="0"/>
        <pt x="461" y="69" on="0"/>
        <pt x="461" y="127" on="1"/>
      </contour>
    </TTGlyph>
    <TTGlyph name="uni3089" xMin="165" yMin="-65" xMax="844" yMax="793">
      <contour>
        <pt x="742" y="612" on="1"/>
        <pt x="638" y="627" on="0"/>
        <pt x="369" y="687" on="0"/>
        <pt x="276" y="718" on="1"/>
        <pt x="295" y="793" on="1"/>
        <pt x="380" y="765" on="0"/>
        <pt x="655" y="704" on="0"/>
        <pt x="757" y="689" on="1"/>
      </contour>
      <contour>
        <pt x="650" y="435" on="0"/>
        <pt x="775" y="380" on="0"/>
        <pt x="844" y="279" on="0"/>
        <pt x="844" y="211" on="1"/>
        <pt x="844" y="66" on="0"/>
        <pt x="574" y="-65" on="0"/>
        <pt x="340" y="-65" on="1"/>
        <pt x="326" y="11" on="1"/>
        <pt x="530" y="11" on="0"/>
        <pt x="760" y="100" on="0"/>
        <pt x="760" y="207" on="1"/>
        <pt x="760" y="277" on="0"/>
        <pt x="651" y="359" on="0"/>
        <pt x="557" y="359" on="1"/>
        <pt x="482" y="359" on="0"/>
        <pt x="305" y="287" on="0"/>
        <pt x="230" y="225" on="1"/>
        <pt x="165" y="257" on="1"/>
        <pt x="277" y="599" on="1"/>
        <pt x="359" y="574" on="1"/>
        <pt x="279" y="345" on="1"/>
        <pt x="342" y="386" on="0"/>
        <pt x="496" y="435" on="0"/>
        <pt x="568" y="435" on="1"/>
      </contour>
    </TTGlyph>
    <TTGlyph name="uni308A" xMin="220" yMin="-82" xMax="783" yMax="803">
      <contour>
        <pt x="622" y="727" on="0"/>
        <pt x="726" y="654" on="0"/>
        <pt x="783" y="520" on="0"/>
        <pt x="783" y="430" on="1"/>
        <pt x="783" y="233" on="0"/>
        <pt x="630" y="-22" on="0"/>
        <pt x="442" y="-82" on="1"/>
        <pt x="410" y="-5" on="1"/>
        <pt x="521" y="30" on="0"/>
        <pt x="648" y="150" on="0"/>
        <pt x="699" y="313" on="0"/>
        <pt x="699" y="424" on="1"/>
        <pt x="699" y="526" on="0"/>
        <pt x="609" y="646" on="0"/>
        <pt x="532" y="646" on="1"/>
        <pt x="468" y="646" on="0"/>
        <pt x="363" y="561" on="0"/>
        <pt x="303" y="425" on="0"/>
        <pt x="303" y="354" on="1"/>
        <pt x="303" y="243" on="1"/>
        <pt x="220" y="243" on="1"/>
        <pt x="220" y="803" on="1"/>
        <pt x="304" y="803" on="1"/>
        <pt x="304" y="580" on="1"/>
        <pt x="339" y="646" on="0"/>
        <pt x="470" y="727" on="0"/>
        <pt x="554" y="727" on="1"/>
      </contour>
    </TTGlyph>
    <TTGlyph name="uni308B" xMin="117" yMin="-54" xMax="894" yMax="751">
      <contour>
        <pt x="699" y="462" on="0"/>
        <pt x="823" y="399" on="0"/>
        <pt x="894" y="286" on="0"/>
        <pt x="894" y="215" on="1"/>
        <pt x="894" y="137" on="0"/>
        <pt x="802" y="14" on="0"/>
        <pt x="639" y="-54" on="0"/>
        <pt x="536" y="-54" on="1"/>
        <pt x="435" y="-54" on="0"/>
        <pt x="315" y="27" on="0"/>
        <pt x="315" y="93" on="1"/>
        <pt x="315" y="136" on="0"/>
        <pt x="363" y="203" on="0"/>
        <pt x="447" y="240" on="0"/>
        <pt x="499" y="240" on="1"/>
        <pt x="583" y="240" on="0"/>
        <pt x="688" y="139" on="0"/>
        <pt x="706" y="58" on="1"/>
        <pt x="756" y="84" on="0"/>
        <pt x="813" y="165" on="0"/>
        <pt x="813" y="214" on="1"/>
        <pt x="813" y="266" on="0"/>
        <pt x="754" y="347" on="0"/>
        <pt x="648" y="392" on="0"/>
        <pt x="582" y="392" on="1"/>
        <pt x="528" y="392" on="0"/>
        <pt x="416" y="359" on="0"/>
        <pt x="350" y="324" on="1"/>
        <pt x="165" y="165" on="1"/>
        <pt x="117" y="227" on="1"/>
        <pt x="643" y="673" on="1"/>
        <pt x="249" y="673" on="1"/>
        <pt x="249" y="751" on="1"/>
        <pt x="763" y="751" on="1"/>
        <pt x="773" y="687" on="1"/>
        <pt x="489" y="443" on="1"/>
        <pt x="555" y="462" on="0"/>
        <pt x="622" y="462" on="1"/>
      </contour>
      <contour>
        <pt x="585" y="19" on="0"/>
        <pt x="639" y="33" on="1"/>
        <pt x="626" y="93" on="0"/>
        <pt x="554" y="168" on="0"/>
        <pt x="499" y="168" on="1"/>
        <pt x="451" y="168" on="0"/>
        <pt x="393" y="126" on="0"/>
        <pt x="393" y="92" on="1"/>
        <pt x="393" y="59" on="0"/>
        <pt x="465" y="19" on="0"/>
        <pt x="525" y="19" on="1"/>
      </contour>
    </TTGlyph>
    <TTGlyph name="uni308C" xMin="38" yMin="-58" xMax="951" yMax="792">
      <contour>
        <pt x="828" y="48" on="0"/>
        <pt x="916" y="80" on="0"/>
        <pt x="951" y="106" on="1"/>
        <pt x="948" y="15" on="1"/>
        <pt x="859" y="-32" on="0"/>
        <pt x="777" y="-32" on="1"/>
        <pt x="722" y="-32" on="0"/>
        <pt x="661" y="37" on="0"/>
        <pt x="661" y="98" on="1"/>
        <pt x="661" y="156" on="0"/>
        <pt x="673" y="284" on="1"/>
        <pt x="685" y="416" on="0"/>
        <pt x="685" y="482" on="1"/>
        <pt x="685" y="548" on="0"/>
        <pt x="659" y="608" on="0"/>
        <pt x="631" y="608" on="1"/>
        <pt x="580" y="608" on="0"/>
        <pt x="420" y="478" on="0"/>
        <pt x="322" y="360" on="1"/>
        <pt x="322" y="-58" on="1"/>
        <pt x="242" y="-58" on="1"/>
        <pt x="242" y="259" on="1"/>
        <pt x="176" y="173" on="0"/>
        <pt x="92" y="46" on="1"/>
        <pt x="38" y="108" on="1"/>
        <pt x="164" y="284" on="0"/>
        <pt x="242" y="380" on="1"/>
        <pt x="242" y="524" on="1"/>
        <pt x="68" y="524" on="1"/>
        <pt x="68" y="602" on="1"/>
        <pt x="242" y="602" on="1"/>
        <pt x="242" y="792" on="1"/>
        <pt x="322" y="792" on="1"/>
        <pt x="322" y="475" on="1"/>
        <pt x="420" y="584" on="0"/>
        <pt x="577" y="693" on="0"/>
        <pt x="645" y="693" on="1"/>
        <pt x="767" y="693" on="0"/>
        <pt x="767" y="522" on="1"/>
        <pt x="767" y="476" on="0"/>
        <pt x="759" y="358" on="0"/>
        <pt x="754" y="303" on="1"/>
        <pt x="743" y="184" on="0"/>
        <pt x="743" y="123" on="1"/>
        <pt x="743" y="86" on="0"/>
        <pt x="774" y="48" on="0"/>
        <pt x="802" y="48" on="1"/>
      </contour>
    </TTGlyph>
    <TTGlyph name="uni308D" xMin="143" yMin="-67" xMax="868" yMax="751">
      <contour>
        <pt x="727" y="443" on="0"/>
        <pt x="868" y="325" on="0"/>
        <pt x="868" y="222" on="1"/>
        <pt x="868" y="75" on="0"/>
        <pt x="631" y="-67" on="0"/>
        <pt x="382" y="-67" on="1"/>
        <pt x="367" y="6" on="1"/>
        <pt x="580" y="6" on="0"/>
        <pt x="787" y="111" on="0"/>
        <pt x="787" y="217" on="1"/>
        <pt x="787" y="290" on="0"/>
        <pt x="673" y="373" on="0"/>
        <pt x="574" y="373" on="1"/>
        <pt x="522" y="373" on="0"/>
        <pt x="426" y="347" on="0"/>
        <pt x="356" y="313" on="1"/>
        <pt x="192" y="165" on="1"/>
        <pt x="143" y="227" on="1"/>
        <pt x="643" y="673" on="1"/>
        <pt x="249" y="671" on="1"/>
        <pt x="249" y="751" on="1"/>
        <pt x="763" y="751" on="1"/>
        <pt x="773" y="687" on="1"/>
        <pt x="481" y="425" on="1"/>
        <pt x="551" y="443" on="0"/>
        <pt x="606" y="443" on="1"/>
      </contour>
    </TTGlyph>
    <TTGlyph name="uni308E" xMin="133" yMin="-68" xMax="846" yMax="627">
      <contour>
        <pt x="729" y="483" on="0"/>
        <pt x="846" y="364" on="0"/>
        <pt x="846" y="261" on="1"/>
        <pt x="846" y="143" on="0"/>
        <pt x="689" y="-1" on="0"/>
        <pt x="533" y="-24" on="1"/>
        <pt x="500" y="49" on="1"/>
        <pt x="770" y="85" on="0"/>
        <pt x="770" y="258" on="1"/>
        <pt x="770" y="326" on="0"/>
        <pt x="688" y="407" on="0"/>
        <pt x="619" y="407" on="1"/>
        <pt x="560" y="407" on="0"/>
        <pt x="434" y="331" on="0"/>
        <pt x="359" y="253" on="1"/>
        <pt x="359" y="-68" on="1"/>
        <pt x="278" y="-68" on="1"/>
        <pt x="278" y="162" on="1"/>
        <pt x="232" y="106" on="0"/>
        <pt x="183" y="43" on="1"/>
        <pt x="133" y="104" on="1"/>
        <pt x="217" y="209" on="0"/>
        <pt x="278" y="273" on="1"/>
        <pt x="278" y="397" on="1"/>
        <pt x="140" y="397" on="1"/>
        <pt x="140" y="475" on="1"/>
        <pt x="278" y="475" on="1"/>
        <pt x="278" y="627" on="1"/>
        <pt x="359" y="627" on="1"/>
        <pt x="359" y="353" on="1"/>
        <pt x="432" y="419" on="0"/>
        <pt x="564" y="483" on="0"/>
        <pt x="628" y="483" on="1"/>
      </contour>
    </TTGlyph>
    <TTGlyph name="uni308F" xMin="61" yMin="-58" xMax="935" yMax="792">
      <contour>
        <pt x="792" y="614" on="0"/>
        <pt x="935" y="469" on="0"/>
        <pt x="935" y="343" on="1"/>
        <pt x="935" y="206" on="0"/>
        <pt x="748" y="28" on="0"/>
        <pt x="553" y="-3" on="1"/>
        <pt x="522" y="72" on="1"/>
        <pt x="855" y="122" on="0"/>
        <pt x="855" y="339" on="1"/>
        <pt x="855" y="428" on="0"/>
        <pt x="749" y="534" on="0"/>
        <pt x="657" y="534" on="1"/>
        <pt x="582" y="534" on="0"/>
        <pt x="419" y="431" on="0"/>
        <pt x="321" y="327" on="1"/>
        <pt x="321" y="-58" on="1"/>
        <pt x="241" y="-58" on="1"/>
        <pt x="241" y="238" on="1"/>
        <pt x="189" y="177" on="0"/>
        <pt x="117" y="85" on="1"/>
        <pt x="61" y="148" on="1"/>
        <pt x="157" y="268" on="0"/>
        <pt x="241" y="358" on="1"/>
        <pt x="241" y="524" on="1"/>
        <pt x="68" y="524" on="1"/>
        <pt x="68" y="602" on="1"/>
        <pt x="241" y="602" on="1"/>
        <pt x="241" y="792" on="1"/>
        <pt x="321" y="792" on="1"/>
        <pt x="321" y="438" on="1"/>
        <pt x="416" y="526" on="0"/>
        <pt x="585" y="614" on="0"/>
        <pt x="668" y="614" on="1"/>
      </contour>
    </TTGlyph>
    <TTGlyph name="uni3090" xMin="90" yMin="-42" xMax="901" yMax="735">
      <contour>
        <pt x="671" y="532" on="0"/>
        <pt x="820" y="460" on="0"/>
        <pt x="901" y="326" on="0"/>
        <pt x="901" y="236" on="1"/>
        <pt x="901" y="154" on="0"/>
        <pt x="840" y="28" on="0"/>
        <pt x="729" y="-42" on="0"/>
        <pt x="656" y="-42" on="1"/>
        <pt x="588" y="-42" on="0"/>
        <pt x="496" y="22" on="0"/>
        <pt x="496" y="73" on="1"/>
        <pt x="496" y="124" on="0"/>
        <pt x="576" y="193" on="0"/>
        <pt x="637" y="193" on="1"/>
        <pt x="731" y="193" on="0"/>
        <pt x="796" y="109" on="1"/>
        <pt x="823" y="160" on="0"/>
        <pt x="823" y="236" on="1"/>
        <pt x="823" y="339" on="0"/>
        <pt x="683" y="458" on="0"/>
        <pt x="564" y="458" on="1"/>
        <pt x="526" y="458" on="0"/>
        <pt x="490" y="452" on="1"/>
        <pt x="465" y="243" on="0"/>
        <pt x="335" y="4" on="0"/>
        <pt x="232" y="4" on="1"/>
        <pt x="168" y="4" on="0"/>
        <pt x="90" y="84" on="0"/>
        <pt x="90" y="150" on="1"/>
        <pt x="90" y="231" on="0"/>
        <pt x="173" y="377" on="0"/>
        <pt x="323" y="485" on="0"/>
        <pt x="418" y="511" on="1"/>
        <pt x="423" y="593" on="0"/>
        <pt x="423" y="665" on="1"/>
        <pt x="169" y="665" on="1"/>
        <pt x="169" y="735" on="1"/>
        <pt x="505" y="735" on="1"/>
        <pt x="505" y="633" on="0"/>
        <pt x="497" y="527" on="1"/>
        <pt x="537" y="532" on="0"/>
        <pt x="571" y="532" on="1"/>
      </contour>
      <contour>
        <pt x="298" y="76" on="0"/>
        <pt x="390" y="268" on="0"/>
        <pt x="410" y="433" on="1"/>
        <pt x="304" y="396" on="0"/>
        <pt x="168" y="247" on="0"/>
        <pt x="168" y="160" on="1"/>
        <pt x="168" y="121" on="0"/>
        <pt x="205" y="76" on="0"/>
        <pt x="237" y="76" on="1"/>
      </contour>
      <contour>
        <pt x="570" y="51" on="0"/>
        <pt x="615" y="24" on="0"/>
        <pt x="656" y="24" on="1"/>
        <pt x="717" y="24" on="0"/>
        <pt x="757" y="59" on="1"/>
        <pt x="712" y="127" on="0"/>
        <pt x="639" y="127" on="1"/>
        <pt x="607" y="127" on="0"/>
        <pt x="570" y="100" on="0"/>
        <pt x="570" y="76" on="1"/>
      </contour>
    </TTGlyph>
    <TTGlyph name="uni3091" xMin="60" yMin="-76" xMax="943" yMax="764">
      <contour>
        <pt x="817" y="187" on="0"/>
        <pt x="926" y="58" on="0"/>
        <pt x="943" y="-68" on="1"/>
        <pt x="867" y="-68" on="1"/>
        <pt x="857" y="27" on="0"/>
        <pt x="780" y="120" on="0"/>
        <pt x="722" y="120" on="1"/>
        <pt x="667" y="120" on="0"/>
        <pt x="583" y="27" on="0"/>
        <pt x="565" y="-68" on="1"/>
        <pt x="489" y="-68" on="1"/>
        <pt x="489" y="25" on="0"/>
        <pt x="449" y="117" on="0"/>
        <pt x="397" y="117" on="1"/>
        <pt x="373" y="117" on="0"/>
        <pt x="349" y="107" on="1"/>
        <pt x="109" y="-76" on="1"/>
        <pt x="60" y="-14" on="1"/>
        <pt x="409" y="232" on="1"/>
        <pt x="353" y="244" on="0"/>
        <pt x="292" y="299" on="0"/>
        <pt x="292" y="333" on="1"/>
        <pt x="292" y="366" on="0"/>
        <pt x="337" y="422" on="0"/>
        <pt x="413" y="454" on="0"/>
        <pt x="458" y="454" on="1"/>
        <pt x="515" y="454" on="0"/>
        <pt x="594" y="398" on="0"/>
        <pt x="594" y="354" on="1"/>
        <pt x="594" y="321" on="0"/>
        <pt x="567" y="286" on="1"/>
        <pt x="662" y="294" on="0"/>
        <pt x="761" y="356" on="0"/>
        <pt x="761" y="416" on="1"/>
        <pt x="761" y="470" on="0"/>
        <pt x="673" y="527" on="0"/>
        <pt x="591" y="527" on="1"/>
        <pt x="495" y="527" on="0"/>
        <pt x="387" y="494" on="1"/>
        <pt x="162" y="363" on="1"/>
        <pt x="125" y="430" on="1"/>
        <pt x="616" y="699" on="1"/>
        <pt x="254" y="692" on="1"/>
        <pt x="254" y="764" on="1"/>
        <pt x="732" y="764" on="1"/>
        <pt x="743" y="702" on="1"/>
        <pt x="519" y="571" on="1"/>
        <pt x="563" y="581" on="0"/>
        <pt x="604" y="581" on="1"/>
        <pt x="715" y="581" on="0"/>
        <pt x="835" y="497" on="0"/>
        <pt x="835" y="420" on="1"/>
        <pt x="835" y="319" on="0"/>
        <pt x="652" y="224" on="0"/>
        <pt x="501" y="223" on="1"/>
        <pt x="435" y="173" on="1"/>
        <pt x="476" y="169" on="0"/>
        <pt x="533" y="108" on="0"/>
        <pt x="544" y="55" on="1"/>
        <pt x="572" y="118" on="0"/>
        <pt x="673" y="187" on="0"/>
        <pt x="736" y="187" on="1"/>
      </contour>
      <contour>
        <pt x="360" y="286" on="0"/>
        <pt x="480" y="283" on="1"/>
        <pt x="506" y="304" on="0"/>
        <pt x="526" y="334" on="0"/>
        <pt x="526" y="351" on="1"/>
        <pt x="526" y="371" on="0"/>
        <pt x="481" y="394" on="0"/>
        <pt x="447" y="394" on="1"/>
        <pt x="411" y="394" on="0"/>
        <pt x="360" y="362" on="0"/>
        <pt x="360" y="339" on="1"/>
      </contour>
    </TTGlyph>
    <TTGlyph name="uni3092" xMin="93" yMin="-47" xMax="898" yMax="811">
      <contour>
        <pt x="382" y="74" on="0"/>
        <pt x="493" y="27" on="0"/>
        <pt x="611" y="27" on="1"/>
        <pt x="808" y="27" on="1"/>
        <pt x="808" y="-47" on="1"/>
        <pt x="612" y="-47" on="1"/>
        <pt x="297" y="-47" on="0"/>
        <pt x="297" y="119" on="1"/>
        <pt x="297" y="244" on="0"/>
        <pt x="538" y="368" on="1"/>
        <pt x="503" y="430" on="0"/>
        <pt x="436" y="430" on="1"/>
        <pt x="349" y="430" on="0"/>
        <pt x="261" y="352" on="1"/>
        <pt x="217" y="285" on="0"/>
        <pt x="165" y="219" on="1"/>
        <pt x="93" y="257" on="1"/>
        <pt x="155" y="331" on="0"/>
        <pt x="278" y="522" on="0"/>
        <pt x="326" y="620" on="1"/>
        <pt x="152" y="620" on="1"/>
        <pt x="152" y="694" on="1"/>
        <pt x="360" y="694" on="1"/>
        <pt x="384" y="748" on="0"/>
        <pt x="403" y="811" on="1"/>
        <pt x="484" y="798" on="1"/>
        <pt x="470" y="751" on="0"/>
        <pt x="446" y="694" on="1"/>
        <pt x="766" y="694" on="1"/>
        <pt x="766" y="620" on="1"/>
        <pt x="413" y="620" on="1"/>
        <pt x="380" y="549" on="0"/>
        <pt x="334" y="469" on="1"/>
        <pt x="395" y="501" on="0"/>
        <pt x="457" y="501" on="1"/>
        <pt x="555" y="501" on="0"/>
        <pt x="607" y="401" on="1"/>
        <pt x="729" y="455" on="0"/>
        <pt x="873" y="500" on="1"/>
        <pt x="898" y="429" on="1"/>
        <pt x="750" y="383" on="0"/>
        <pt x="632" y="332" on="1"/>
        <pt x="655" y="248" on="0"/>
        <pt x="655" y="126" on="1"/>
        <pt x="578" y="126" on="1"/>
        <pt x="578" y="230" on="0"/>
        <pt x="563" y="299" on="1"/>
        <pt x="382" y="207" on="0"/>
        <pt x="382" y="121" on="1"/>
      </contour>
    </TTGlyph>
    <TTGlyph name="uni3093" xMin="90" yMin="-56" xMax="924" yMax="787">
      <contour>
        <pt x="924" y="294" on="1"/>
        <pt x="870" y="124" on="0"/>
        <pt x="722" y="-56" on="0"/>
        <pt x="637" y="-56" on="1"/>
        <pt x="562" y="-56" on="0"/>
        <pt x="486" y="51" on="0"/>
        <pt x="479" y="168" on="1"/>
        <pt x="475" y="259" on="0"/>
        <pt x="436" y="340" on="0"/>
        <pt x="395" y="340" on="1"/>
        <pt x="362" y="340" on="0"/>
        <pt x="282" y="280" on="0"/>
        <pt x="247" y="229" on="1"/>
        <pt x="168" y="-53" on="1"/>
        <pt x="90" y="-28" on="1"/>
        <pt x="318" y="787" on="1"/>
        <pt x="397" y="767" on="1"/>
        <pt x="280" y="346" on="1"/>
        <pt x="345" y="416" on="0"/>
        <pt x="417" y="416" on="1"/>
        <pt x="484" y="416" on="0"/>
        <pt x="552" y="311" on="0"/>
        <pt x="559" y="188" on="1"/>
        <pt x="561" y="104" on="0"/>
        <pt x="602" y="24" on="0"/>
        <pt x="646" y="24" on="1"/>
        <pt x="700" y="24" on="0"/>
        <pt x="807" y="177" on="0"/>
        <pt x="851" y="317" on="1"/>
      </contour>
    </TTGlyph>
    <TTGlyph name="uni3094" xMin="160" yMin="-61" xMax="1024" yMax="793">
      <contour>
        <pt x="702" y="624" on="1"/>
        <pt x="621" y="654" on="0"/>
        <pt x="400" y="705" on="0"/>
        <pt x="301" y="718" on="1"/>
        <pt x="316" y="793" on="1"/>
        <pt x="416" y="778" on="0"/>
        <pt x="636" y="728" on="0"/>
        <pt x="721" y="699" on="1"/>
      </contour>
      <contour>
        <pt x="967" y="531" on="1"/>
        <pt x="929" y="640" on="0"/>
        <pt x="892" y="696" on="1"/>
        <pt x="948" y="714" on="1"/>
        <pt x="969" y="682" on="0"/>
        <pt x="1011" y="590" on="0"/>
        <pt x="1024" y="548" on="1"/>
      </contour>
      <contour>
        <pt x="838" y="487" on="1"/>
        <pt x="825" y="528" on="0"/>
        <pt x="785" y="617" on="0"/>
        <pt x="764" y="652" on="1"/>
        <pt x="819" y="669" on="1"/>
        <pt x="862" y="604" on="0"/>
        <pt x="896" y="504" on="1"/>
      </contour>
      <contour>
        <pt x="294" y="15" on="1"/>
        <pt x="424" y="15" on="0"/>
        <pt x="617" y="90" on="0"/>
        <pt x="721" y="221" on="0"/>
        <pt x="721" y="302" on="1"/>
        <pt x="721" y="380" on="0"/>
        <pt x="631" y="451" on="0"/>
        <pt x="542" y="451" on="1"/>
        <pt x="471" y="451" on="0"/>
        <pt x="276" y="421" on="0"/>
        <pt x="178" y="395" on="1"/>
        <pt x="160" y="476" on="1"/>
        <pt x="266" y="499" on="0"/>
        <pt x="472" y="529" on="0"/>
        <pt x="547" y="529" on="1"/>
        <pt x="680" y="529" on="0"/>
        <pt x="804" y="420" on="0"/>
        <pt x="804" y="311" on="1"/>
        <pt x="804" y="200" on="0"/>
        <pt x="685" y="31" on="0"/>
        <pt x="462" y="-61" on="0"/>
        <pt x="309" y="-61" on="1"/>
      </contour>
    </TTGlyph>
    <TTGlyph name="uni309D" xMin="232" yMin="55" xMax="740" yMax="665">
      <contour>
        <pt x="301" y="665" on="1"/>
        <pt x="375" y="551" on="0"/>
        <pt x="606" y="336" on="0"/>
        <pt x="740" y="255" on="1"/>
        <pt x="729" y="177" on="1"/>
        <pt x="317" y="55" on="1"/>
        <pt x="293" y="135" on="1"/>
        <pt x="621" y="230" on="1"/>
        <pt x="510" y="304" on="0"/>
        <pt x="303" y="506" on="0"/>
        <pt x="232" y="613" on="1"/>
      </contour>
    </TTGlyph>
    <TTGlyph name="uni309E" xMin="232" yMin="55" xMax="802" yMax="763">
      <contour>
        <pt x="699" y="763" on="1"/>
        <pt x="753" y="706" on="0"/>
        <pt x="802" y="612" on="1"/>
        <pt x="748" y="584" on="1"/>
        <pt x="729" y="623" on="0"/>
        <pt x="675" y="706" on="0"/>
        <pt x="648" y="736" on="1"/>
      </contour>
      <contour>
        <pt x="625" y="522" on="1"/>
        <pt x="606" y="562" on="0"/>
        <pt x="552" y="644" on="0"/>
        <pt x="526" y="673" on="1"/>
        <pt x="577" y="700" on="1"/>
        <pt x="633" y="639" on="0"/>
        <pt x="680" y="549" on="1"/>
      </contour>
      <contour>
        <pt x="301" y="665" on="1"/>
        <pt x="375" y="551" on="0"/>
        <pt x="606" y="336" on="0"/>
        <pt x="740" y="255" on="1"/>
        <pt x="729" y="177" on="1"/>
        <pt x="317" y="55" on="1"/>
        <pt x="293" y="135" on="1"/>
        <pt x="621" y="230" on="1"/>
        <pt x="510" y="304" on="0"/>
        <pt x="303" y="506" on="0"/>
        <pt x="232" y="613" on="1"/>
      </contour>
    </TTGlyph>
    <TTGlyph name="uni30A1" xMin="189" yMin="-74" xMax="828" yMax="569">
      <contour>
        <pt x="189" y="493" on="1"/>
        <pt x="189" y="569" on="1"/>
        <pt x="828" y="569" on="1"/>
        <pt x="828" y="498" on="1"/>
        <pt x="638" y="257" on="1"/>
        <pt x="576" y="302" on="1"/>
        <pt x="734" y="493" on="1"/>
      </contour>
      <contour>
        <pt x="536" y="427" on="1"/>
        <pt x="537" y="295" on="0"/>
        <pt x="494" y="111" on="0"/>
        <pt x="400" y="-21" on="0"/>
        <pt x="320" y="-74" on="1"/>
        <pt x="265" y="-14" on="1"/>
        <pt x="342" y="33" on="0"/>
        <pt x="423" y="140" on="0"/>
        <pt x="457" y="298" on="0"/>
        <pt x="456" y="427" on="1"/>
      </contour>
    </TTGlyph>
    <TTGlyph name="uni30A2" xMin="118" yMin="-44" xMax="899" yMax="734">
      <contour>
        <pt x="118" y="654" on="1"/>
        <pt x="118" y="734" on="1"/>
        <pt x="899" y="734" on="1"/>
        <pt x="899" y="658" on="1"/>
        <pt x="671" y="365" on="1"/>
        <pt x="604" y="411" on="1"/>
        <pt x="800" y="654" on="1"/>
      </contour>
      <contour>
        <pt x="217" y="18" on="1"/>
        <pt x="311" y="75" on="0"/>
        <pt x="410" y="209" on="0"/>
        <pt x="451" y="404" on="0"/>
        <pt x="451" y="562" on="1"/>
        <pt x="535" y="562" on="1"/>
        <pt x="535" y="393" on="0"/>
        <pt x="489" y="177" on="0"/>
        <pt x="377" y="23" on="0"/>
        <pt x="274" y="-44" on="1"/>
      </contour>
    </TTGlyph>
    <TTGlyph name="uni30A3" xMin="182" yMin="-71" xMax="799" yMax="629">
      <contour>
        <pt x="799" y="570" on="1"/>
        <pt x="710" y="468" on="0"/>
        <pt x="580" y="370" on="1"/>
        <pt x="580" y="-71" on="1"/>
        <pt x="500" y="-71" on="1"/>
        <pt x="500" y="313" on="1"/>
        <pt x="359" y="219" on="0"/>
        <pt x="221" y="160" on="1"/>
        <pt x="182" y="231" on="1"/>
        <pt x="339" y="296" on="0"/>
        <pt x="646" y="512" on="0"/>
        <pt x="744" y="629" on="1"/>
      </contour>
    </TTGlyph>
    <TTGlyph name="uni30A4" xMin="128" yMin="-63" xMax="874" yMax="791">
      <contour>
        <pt x="874" y="730" on="1"/>
        <pt x="768" y="609" on="0"/>
        <pt x="604" y="484" on="1"/>
        <pt x="604" y="-63" on="1"/>
        <pt x="520" y="-63" on="1"/>
        <pt x="520" y="424" on="1"/>
        <pt x="342" y="304" on="0"/>
        <pt x="167" y="229" on="1"/>
        <pt x="128" y="301" on="1"/>
        <pt x="320" y="383" on="0"/>
        <pt x="694" y="646" on="0"/>
        <pt x="818" y="791" on="1"/>
      </contour>
    </TTGlyph>
    <TTGlyph name="uni30A5" xMin="211" yMin="-57" xMax="793" yMax="635">
      <contour>
        <pt x="411" y="18" on="1"/>
        <pt x="504" y="30" on="0"/>
        <pt x="641" y="116" on="0"/>
        <pt x="715" y="252" on="0"/>
        <pt x="715" y="338" on="1"/>
        <pt x="715" y="424" on="1"/>
        <pt x="289" y="424" on="1"/>
        <pt x="289" y="240" on="1"/>
        <pt x="211" y="240" on="1"/>
        <pt x="211" y="498" on="1"/>
        <pt x="460" y="498" on="1"/>
        <pt x="460" y="635" on="1"/>
        <pt x="542" y="635" on="1"/>
        <pt x="542" y="498" on="1"/>
        <pt x="793" y="498" on="1"/>
        <pt x="793" y="339" on="1"/>
        <pt x="793" y="234" on="0"/>
        <pt x="704" y="64" on="0"/>
        <pt x="539" y="-43" on="0"/>
        <pt x="428" y="-57" on="1"/>
      </contour>
    </TTGlyph>
    <TTGlyph name="uni30A6" xMin="145" yMin="-57" xMax="859" yMax="793">
      <contour>
        <pt x="398" y="22" on="1"/>
        <pt x="522" y="41" on="0"/>
        <pt x="692" y="155" on="0"/>
        <pt x="777" y="327" on="0"/>
        <pt x="777" y="431" on="1"/>
        <pt x="777" y="543" on="1"/>
        <pt x="228" y="543" on="1"/>
        <pt x="228" y="316" on="1"/>
        <pt x="145" y="316" on="1"/>
        <pt x="145" y="622" on="1"/>
        <pt x="458" y="622" on="1"/>
        <pt x="458" y="793" on="1"/>
        <pt x="544" y="793" on="1"/>
        <pt x="544" y="622" on="1"/>
        <pt x="859" y="622" on="1"/>
        <pt x="859" y="432" on="1"/>
        <pt x="859" y="303" on="0"/>
        <pt x="751" y="92" on="0"/>
        <pt x="551" y="-41" on="0"/>
        <pt x="418" y="-57" on="1"/>
      </contour>
    </TTGlyph>
    <TTGlyph name="uni30A7" xMin="163" yMin="6" xMax="836" yMax="538">
      <contour>
        <pt x="537" y="462" on="1"/>
        <pt x="537" y="82" on="1"/>
        <pt x="836" y="82" on="1"/>
        <pt x="836" y="6" on="1"/>
        <pt x="163" y="6" on="1"/>
        <pt x="163" y="82" on="1"/>
        <pt x="457" y="82" on="1"/>
        <pt x="457" y="462" on="1"/>
        <pt x="223" y="462" on="1"/>
        <pt x="223" y="538" on="1"/>
        <pt x="775" y="538" on="1"/>
        <pt x="775" y="462" on="1"/>
      </contour>
    </TTGlyph>
    <TTGlyph name="uni30A8" xMin="88" yMin="15" xMax="912" yMax="665">
      <contour>
        <pt x="542" y="585" on="1"/>
        <pt x="542" y="95" on="1"/>
        <pt x="912" y="95" on="1"/>
        <pt x="912" y="15" on="1"/>
        <pt x="88" y="15" on="1"/>
        <pt x="88" y="95" on="1"/>
        <pt x="458" y="95" on="1"/>
        <pt x="458" y="585" on="1"/>
        <pt x="163" y="585" on="1"/>
        <pt x="163" y="665" on="1"/>
        <pt x="837" y="665" on="1"/>
        <pt x="837" y="585" on="1"/>
      </contour>
    </TTGlyph>
    <TTGlyph name="uni30A9" xMin="152" yMin="-58" xMax="824" yMax="634">
      <contour>
        <pt x="824" y="479" on="1"/>
        <pt x="824" y="405" on="1"/>
        <pt x="632" y="405" on="1"/>
        <pt x="632" y="75" on="1"/>
        <pt x="632" y="6" on="0"/>
        <pt x="574" y="-58" on="0"/>
        <pt x="512" y="-58" on="1"/>
        <pt x="396" y="-58" on="1"/>
        <pt x="384" y="16" on="1"/>
        <pt x="499" y="16" on="1"/>
        <pt x="529" y="16" on="0"/>
        <pt x="554" y="43" on="0"/>
        <pt x="554" y="75" on="1"/>
        <pt x="554" y="377" on="1"/>
        <pt x="497" y="272" on="0"/>
        <pt x="311" y="68" on="0"/>
        <pt x="205" y="2" on="1"/>
        <pt x="152" y="62" on="1"/>
        <pt x="255" y="124" on="0"/>
        <pt x="435" y="314" on="0"/>
        <pt x="486" y="405" on="1"/>
        <pt x="178" y="405" on="1"/>
        <pt x="178" y="479" on="1"/>
        <pt x="554" y="479" on="1"/>
        <pt x="554" y="634" on="1"/>
        <pt x="632" y="634" on="1"/>
        <pt x="632" y="479" on="1"/>
      </contour>
    </TTGlyph>
    <TTGlyph name="uni30AA" xMin="81" yMin="-55" xMax="899" yMax="793">
      <contour>
        <pt x="899" y="600" on="1"/>
        <pt x="899" y="522" on="1"/>
        <pt x="660" y="522" on="1"/>
        <pt x="660" y="103" on="1"/>
        <pt x="660" y="22" on="0"/>
        <pt x="592" y="-55" on="0"/>
        <pt x="517" y="-55" on="1"/>
        <pt x="380" y="-55" on="1"/>
        <pt x="368" y="24" on="1"/>
        <pt x="501" y="24" on="1"/>
        <pt x="543" y="24" on="0"/>
        <pt x="578" y="62" on="0"/>
        <pt x="578" y="103" on="1"/>
        <pt x="578" y="511" on="1"/>
        <pt x="509" y="376" on="0"/>
        <pt x="271" y="110" on="0"/>
        <pt x="137" y="26" on="1"/>
        <pt x="81" y="86" on="1"/>
        <pt x="210" y="166" on="0"/>
        <pt x="432" y="407" on="0"/>
        <pt x="494" y="522" on="1"/>
        <pt x="108" y="522" on="1"/>
        <pt x="108" y="600" on="1"/>
        <pt x="578" y="600" on="1"/>
        <pt x="578" y="793" on="1"/>
        <pt x="660" y="793" on="1"/>
        <pt x="660" y="600" on="1"/>
      </contour>
    </TTGlyph>
    <TTGlyph name="uni30AB" xMin="135" yMin="-67" xMax="865" yMax="790">
      <contour>
        <pt x="865" y="593" on="1"/>
        <pt x="846" y="180" on="1"/>
        <pt x="840" y="62" on="0"/>
        <pt x="749" y="-45" on="0"/>
        <pt x="655" y="-45" on="1"/>
        <pt x="533" y="-45" on="1"/>
        <pt x="520" y="33" on="1"/>
        <pt x="632" y="33" on="1"/>
        <pt x="698" y="33" on="0"/>
        <pt x="761" y="105" on="0"/>
        <pt x="765" y="184" on="1"/>
        <pt x="779" y="515" on="1"/>
        <pt x="498" y="515" on="1"/>
        <pt x="484" y="377" on="0"/>
        <pt x="416" y="174" on="0"/>
        <pt x="297" y="11" on="0"/>
        <pt x="203" y="-67" on="1"/>
        <pt x="135" y="-13" on="1"/>
        <pt x="224" y="58" on="0"/>
        <pt x="337" y="205" on="0"/>
        <pt x="402" y="389" on="0"/>
        <pt x="416" y="515" on="1"/>
        <pt x="151" y="515" on="1"/>
        <pt x="151" y="593" on="1"/>
        <pt x="422" y="593" on="1"/>
        <pt x="428" y="682" on="0"/>
        <pt x="428" y="790" on="1"/>
        <pt x="510" y="790" on="1"/>
        <pt x="510" y="693" on="0"/>
        <pt x="505" y="593" on="1"/>
      </contour>
    </TTGlyph>
    <TTGlyph name="uni30AC" xMin="135" yMin="-67" xMax="939" yMax="844">
      <contour>
        <pt x="874" y="844" on="1"/>
        <pt x="892" y="813" on="0"/>
        <pt x="928" y="719" on="0"/>
        <pt x="939" y="675" on="1"/>
        <pt x="880" y="666" on="1"/>
        <pt x="850" y="778" on="0"/>
        <pt x="817" y="834" on="1"/>
      </contour>
      <contour>
        <pt x="748" y="643" on="1"/>
        <pt x="721" y="745" on="0"/>
        <pt x="685" y="811" on="1"/>
        <pt x="742" y="821" on="1"/>
        <pt x="775" y="763" on="0"/>
        <pt x="807" y="652" on="1"/>
      </contour>
      <contour>
        <pt x="510" y="790" on="1"/>
        <pt x="510" y="693" on="0"/>
        <pt x="505" y="593" on="1"/>
        <pt x="865" y="593" on="1"/>
        <pt x="846" y="180" on="1"/>
        <pt x="840" y="62" on="0"/>
        <pt x="749" y="-45" on="0"/>
        <pt x="655" y="-45" on="1"/>
        <pt x="533" y="-45" on="1"/>
        <pt x="520" y="33" on="1"/>
        <pt x="632" y="33" on="1"/>
        <pt x="698" y="33" on="0"/>
        <pt x="761" y="105" on="0"/>
        <pt x="765" y="184" on="1"/>
        <pt x="779" y="515" on="1"/>
        <pt x="498" y="515" on="1"/>
        <pt x="484" y="377" on="0"/>
        <pt x="416" y="174" on="0"/>
        <pt x="297" y="11" on="0"/>
        <pt x="203" y="-67" on="1"/>
        <pt x="135" y="-13" on="1"/>
        <pt x="224" y="58" on="0"/>
        <pt x="337" y="205" on="0"/>
        <pt x="402" y="389" on="0"/>
        <pt x="416" y="515" on="1"/>
        <pt x="151" y="515" on="1"/>
        <pt x="151" y="593" on="1"/>
        <pt x="422" y="593" on="1"/>
        <pt x="428" y="682" on="0"/>
        <pt x="428" y="790" on="1"/>
      </contour>
    </TTGlyph>
    <TTGlyph name="uni30AD" xMin="96" yMin="-67" xMax="913" yMax="798">
      <contour>
        <pt x="905" y="336" on="1"/>
        <pt x="913" y="259" on="1"/>
        <pt x="558" y="219" on="1"/>
        <pt x="600" y="-57" on="1"/>
        <pt x="515" y="-67" on="1"/>
        <pt x="473" y="210" on="1"/>
        <pt x="106" y="169" on="1"/>
        <pt x="96" y="247" on="1"/>
        <pt x="462" y="287" on="1"/>
        <pt x="426" y="520" on="1"/>
        <pt x="121" y="487" on="1"/>
        <pt x="112" y="565" on="1"/>
        <pt x="415" y="598" on="1"/>
        <pt x="386" y="788" on="1"/>
        <pt x="471" y="798" on="1"/>
        <pt x="500" y="607" on="1"/>
        <pt x="805" y="640" on="1"/>
        <pt x="814" y="562" on="1"/>
        <pt x="512" y="529" on="1"/>
        <pt x="547" y="297" on="1"/>
      </contour>
    </TTGlyph>
    <TTGlyph name="uni30AE" xMin="89" yMin="-67" xMax="925" yMax="872">
      <contour>
        <pt x="866" y="692" on="1"/>
        <pt x="832" y="802" on="0"/>
        <pt x="797" y="858" on="1"/>
        <pt x="853" y="872" on="1"/>
        <pt x="873" y="841" on="0"/>
        <pt x="912" y="748" on="0"/>
        <pt x="925" y="705" on="1"/>
      </contour>
      <contour>
        <pt x="735" y="663" on="1"/>
        <pt x="704" y="764" on="0"/>
        <pt x="665" y="830" on="1"/>
        <pt x="722" y="843" on="1"/>
        <pt x="757" y="787" on="0"/>
        <pt x="793" y="676" on="1"/>
      </contour>
      <contour>
        <pt x="539" y="297" on="1"/>
        <pt x="897" y="336" on="1"/>
        <pt x="906" y="259" on="1"/>
        <pt x="551" y="219" on="1"/>
        <pt x="593" y="-57" on="1"/>
        <pt x="508" y="-67" on="1"/>
        <pt x="466" y="210" on="1"/>
        <pt x="98" y="169" on="1"/>
        <pt x="89" y="247" on="1"/>
        <pt x="455" y="287" on="1"/>
        <pt x="419" y="520" on="1"/>
        <pt x="113" y="487" on="1"/>
        <pt x="104" y="565" on="1"/>
        <pt x="408" y="598" on="1"/>
        <pt x="379" y="788" on="1"/>
        <pt x="463" y="798" on="1"/>
        <pt x="492" y="607" on="1"/>
        <pt x="798" y="640" on="1"/>
        <pt x="807" y="562" on="1"/>
        <pt x="504" y="529" on="1"/>
      </contour>
    </TTGlyph>
    <TTGlyph name="uni30AF" xMin="114" yMin="-68" xMax="825" yMax="792">
      <contour>
        <pt x="825" y="628" on="1"/>
        <pt x="825" y="538" on="1"/>
        <pt x="825" y="397" on="0"/>
        <pt x="711" y="154" on="0"/>
        <pt x="499" y="-23" on="0"/>
        <pt x="357" y="-68" on="1"/>
        <pt x="321" y="2" on="1"/>
        <pt x="447" y="42" on="0"/>
        <pt x="637" y="196" on="0"/>
        <pt x="741" y="403" on="0"/>
        <pt x="741" y="520" on="1"/>
        <pt x="741" y="548" on="1"/>
        <pt x="372" y="548" on="1"/>
        <pt x="334" y="473" on="0"/>
        <pt x="236" y="340" on="0"/>
        <pt x="183" y="290" on="1"/>
        <pt x="114" y="337" on="1"/>
        <pt x="200" y="417" on="0"/>
        <pt x="342" y="661" on="0"/>
        <pt x="376" y="792" on="1"/>
        <pt x="459" y="779" on="1"/>
        <pt x="442" y="706" on="0"/>
        <pt x="410" y="628" on="1"/>
      </contour>
    </TTGlyph>
    <TTGlyph name="uni30B0" xMin="107" yMin="-68" xMax="977" yMax="868">
      <contour>
        <pt x="926" y="868" on="1"/>
        <pt x="942" y="834" on="0"/>
        <pt x="970" y="736" on="0"/>
        <pt x="977" y="693" on="1"/>
        <pt x="917" y="686" on="1"/>
        <pt x="898" y="792" on="0"/>
        <pt x="868" y="860" on="1"/>
      </contour>
      <contour>
        <pt x="794" y="843" on="1"/>
        <pt x="824" y="777" on="0"/>
        <pt x="845" y="668" on="1"/>
        <pt x="786" y="661" on="1"/>
        <pt x="769" y="761" on="0"/>
        <pt x="737" y="835" on="1"/>
      </contour>
      <contour>
        <pt x="451" y="779" on="1"/>
        <pt x="434" y="706" on="0"/>
        <pt x="402" y="628" on="1"/>
        <pt x="818" y="628" on="1"/>
        <pt x="818" y="538" on="1"/>
        <pt x="818" y="397" on="0"/>
        <pt x="703" y="154" on="0"/>
        <pt x="492" y="-23" on="0"/>
        <pt x="350" y="-68" on="1"/>
        <pt x="314" y="2" on="1"/>
        <pt x="439" y="42" on="0"/>
        <pt x="630" y="196" on="0"/>
        <pt x="734" y="403" on="0"/>
        <pt x="734" y="520" on="1"/>
        <pt x="734" y="548" on="1"/>
        <pt x="365" y="548" on="1"/>
        <pt x="325" y="472" on="0"/>
        <pt x="228" y="339" on="0"/>
        <pt x="176" y="290" on="1"/>
        <pt x="107" y="337" on="1"/>
        <pt x="192" y="417" on="0"/>
        <pt x="334" y="661" on="0"/>
        <pt x="369" y="792" on="1"/>
      </contour>
    </TTGlyph>
    <TTGlyph name="uni30B1" xMin="67" yMin="-72" xMax="926" yMax="795">
      <contour>
        <pt x="926" y="585" on="1"/>
        <pt x="926" y="506" on="1"/>
        <pt x="701" y="506" on="1"/>
        <pt x="697" y="298" on="0"/>
        <pt x="522" y="2" on="0"/>
        <pt x="327" y="-72" on="1"/>
        <pt x="278" y="-6" on="1"/>
        <pt x="611" y="116" on="0"/>
        <pt x="619" y="506" on="1"/>
        <pt x="313" y="506" on="1"/>
        <pt x="237" y="364" on="0"/>
        <pt x="134" y="256" on="1"/>
        <pt x="67" y="303" on="1"/>
        <pt x="161" y="400" on="0"/>
        <pt x="306" y="663" on="0"/>
        <pt x="341" y="795" on="1"/>
        <pt x="423" y="779" on="1"/>
        <pt x="395" y="677" on="0"/>
        <pt x="353" y="585" on="1"/>
      </contour>
    </TTGlyph>
    <TTGlyph name="uni30B2" xMin="67" yMin="-72" xMax="991" yMax="841">
      <contour>
        <pt x="939" y="841" on="1"/>
        <pt x="955" y="808" on="0"/>
        <pt x="983" y="712" on="0"/>
        <pt x="991" y="666" on="1"/>
        <pt x="930" y="659" on="1"/>
        <pt x="923" y="705" on="0"/>
        <pt x="898" y="798" on="0"/>
        <pt x="882" y="833" on="1"/>
      </contour>
      <contour>
        <pt x="799" y="634" on="1"/>
        <pt x="792" y="679" on="0"/>
        <pt x="766" y="772" on="0"/>
        <pt x="750" y="808" on="1"/>
        <pt x="808" y="816" on="1"/>
        <pt x="838" y="750" on="0"/>
        <pt x="859" y="641" on="1"/>
      </contour>
      <contour>
        <pt x="423" y="779" on="1"/>
        <pt x="395" y="677" on="0"/>
        <pt x="353" y="585" on="1"/>
        <pt x="926" y="585" on="1"/>
        <pt x="926" y="506" on="1"/>
        <pt x="701" y="506" on="1"/>
        <pt x="697" y="298" on="0"/>
        <pt x="522" y="2" on="0"/>
        <pt x="327" y="-72" on="1"/>
        <pt x="278" y="-6" on="1"/>
        <pt x="611" y="116" on="0"/>
        <pt x="619" y="506" on="1"/>
        <pt x="313" y="506" on="1"/>
        <pt x="237" y="364" on="0"/>
        <pt x="134" y="256" on="1"/>
        <pt x="67" y="303" on="1"/>
        <pt x="161" y="400" on="0"/>
        <pt x="306" y="663" on="0"/>
        <pt x="341" y="795" on="1"/>
      </contour>
    </TTGlyph>
    <TTGlyph name="uni30B3" xMin="171" yMin="25" xMax="829" yMax="673">
      <contour>
        <pt x="829" y="25" on="1"/>
        <pt x="171" y="25" on="1"/>
        <pt x="171" y="105" on="1"/>
        <pt x="745" y="105" on="1"/>
        <pt x="745" y="593" on="1"/>
        <pt x="171" y="593" on="1"/>
        <pt x="171" y="673" on="1"/>
        <pt x="829" y="673" on="1"/>
      </contour>
    </TTGlyph>
    <TTGlyph name="uni30B4" xMin="121" yMin="25" xMax="1023" yMax="847">
      <contour>
        <pt x="964" y="667" on="1"/>
        <pt x="933" y="774" on="0"/>
        <pt x="896" y="833" on="1"/>
        <pt x="952" y="847" on="1"/>
        <pt x="972" y="815" on="0"/>
        <pt x="1011" y="721" on="0"/>
        <pt x="1023" y="680" on="1"/>
      </contour>
      <contour>
        <pt x="833" y="638" on="1"/>
        <pt x="821" y="681" on="0"/>
        <pt x="784" y="770" on="0"/>
        <pt x="764" y="805" on="1"/>
        <pt x="820" y="818" on="1"/>
        <pt x="857" y="759" on="0"/>
        <pt x="892" y="651" on="1"/>
      </contour>
      <contour>
        <pt x="779" y="25" on="1"/>
        <pt x="121" y="25" on="1"/>
        <pt x="121" y="105" on="1"/>
        <pt x="695" y="105" on="1"/>
        <pt x="695" y="593" on="1"/>
        <pt x="121" y="593" on="1"/>
        <pt x="121" y="673" on="1"/>
        <pt x="779" y="673" on="1"/>
      </contour>
    </TTGlyph>
    <TTGlyph name="uni30B5" xMin="78" yMin="-61" xMax="922" yMax="790">
      <contour>
        <pt x="922" y="601" on="1"/>
        <pt x="922" y="522" on="1"/>
        <pt x="739" y="522" on="1"/>
        <pt x="739" y="413" on="1"/>
        <pt x="739" y="205" on="0"/>
        <pt x="572" y="-26" on="0"/>
        <pt x="395" y="-61" on="1"/>
        <pt x="362" y="18" on="1"/>
        <pt x="516" y="50" on="0"/>
        <pt x="656" y="233" on="0"/>
        <pt x="656" y="404" on="1"/>
        <pt x="656" y="522" on="1"/>
        <pt x="343" y="522" on="1"/>
        <pt x="343" y="270" on="1"/>
        <pt x="260" y="270" on="1"/>
        <pt x="260" y="522" on="1"/>
        <pt x="78" y="522" on="1"/>
        <pt x="78" y="601" on="1"/>
        <pt x="260" y="601" on="1"/>
        <pt x="260" y="790" on="1"/>
        <pt x="343" y="790" on="1"/>
        <pt x="343" y="601" on="1"/>
        <pt x="656" y="601" on="1"/>
        <pt x="656" y="790" on="1"/>
        <pt x="739" y="790" on="1"/>
        <pt x="739" y="601" on="1"/>
      </contour>
    </TTGlyph>
    <TTGlyph name="uni30B6" xMin="64" yMin="-61" xMax="1026" yMax="850">
      <contour>
        <pt x="960" y="850" on="1"/>
        <pt x="979" y="819" on="0"/>
        <pt x="1014" y="726" on="0"/>
        <pt x="1026" y="682" on="1"/>
        <pt x="966" y="673" on="1"/>
        <pt x="940" y="778" on="0"/>
        <pt x="904" y="841" on="1"/>
      </contour>
      <contour>
        <pt x="835" y="649" on="1"/>
        <pt x="809" y="749" on="0"/>
        <pt x="771" y="817" on="1"/>
        <pt x="828" y="827" on="1"/>
        <pt x="859" y="774" on="0"/>
        <pt x="894" y="658" on="1"/>
      </contour>
      <contour>
        <pt x="725" y="790" on="1"/>
        <pt x="725" y="601" on="1"/>
        <pt x="908" y="601" on="1"/>
        <pt x="908" y="522" on="1"/>
        <pt x="725" y="522" on="1"/>
        <pt x="725" y="413" on="1"/>
        <pt x="725" y="206" on="0"/>
        <pt x="558" y="-26" on="0"/>
        <pt x="381" y="-61" on="1"/>
        <pt x="348" y="18" on="1"/>
        <pt x="502" y="50" on="0"/>
        <pt x="642" y="233" on="0"/>
        <pt x="642" y="404" on="1"/>
        <pt x="642" y="522" on="1"/>
        <pt x="329" y="522" on="1"/>
        <pt x="329" y="270" on="1"/>
        <pt x="246" y="270" on="1"/>
        <pt x="246" y="522" on="1"/>
        <pt x="64" y="522" on="1"/>
        <pt x="64" y="601" on="1"/>
        <pt x="246" y="601" on="1"/>
        <pt x="246" y="790" on="1"/>
        <pt x="329" y="790" on="1"/>
        <pt x="329" y="601" on="1"/>
        <pt x="642" y="601" on="1"/>
        <pt x="642" y="790" on="1"/>
      </contour>
    </TTGlyph>
    <TTGlyph name="uni30B7" xMin="105" yMin="-35" xMax="901" yMax="759">
      <contour>
        <pt x="504" y="543" on="1"/>
        <pt x="442" y="580" on="0"/>
        <pt x="269" y="660" on="0"/>
        <pt x="200" y="685" on="1"/>
        <pt x="234" y="759" on="1"/>
        <pt x="304" y="734" on="0"/>
        <pt x="479" y="653" on="0"/>
        <pt x="542" y="616" on="1"/>
      </contour>
      <contour>
        <pt x="170" y="46" on="1"/>
        <pt x="408" y="65" on="0"/>
        <pt x="739" y="311" on="0"/>
        <pt x="827" y="533" on="1"/>
        <pt x="901" y="496" on="1"/>
        <pt x="842" y="341" on="0"/>
        <pt x="636" y="110" on="0"/>
        <pt x="355" y="-25" on="0"/>
        <pt x="186" y="-35" on="1"/>
      </contour>
      <contour>
        <pt x="423" y="296" on="1"/>
        <pt x="356" y="325" on="0"/>
        <pt x="178" y="380" on="0"/>
        <pt x="105" y="395" on="1"/>
        <pt x="125" y="474" on="1"/>
        <pt x="193" y="460" on="0"/>
        <pt x="376" y="404" on="0"/>
        <pt x="448" y="375" on="1"/>
      </contour>
    </TTGlyph>
    <TTGlyph name="uni30B8" xMin="105" yMin="-35" xMax="962" yMax="806">
      <contour>
        <pt x="903" y="629" on="1"/>
        <pt x="877" y="733" on="0"/>
        <pt x="841" y="797" on="1"/>
        <pt x="897" y="806" on="1"/>
        <pt x="916" y="775" on="0"/>
        <pt x="951" y="681" on="0"/>
        <pt x="962" y="638" on="1"/>
      </contour>
      <contour>
        <pt x="772" y="605" on="1"/>
        <pt x="745" y="706" on="0"/>
        <pt x="708" y="773" on="1"/>
        <pt x="765" y="783" on="1"/>
        <pt x="784" y="751" on="0"/>
        <pt x="814" y="669" on="0"/>
        <pt x="831" y="614" on="1"/>
      </contour>
      <contour>
        <pt x="504" y="543" on="1"/>
        <pt x="442" y="580" on="0"/>
        <pt x="269" y="660" on="0"/>
        <pt x="200" y="685" on="1"/>
        <pt x="234" y="759" on="1"/>
        <pt x="304" y="734" on="0"/>
        <pt x="479" y="653" on="0"/>
        <pt x="542" y="616" on="1"/>
      </contour>
      <contour>
        <pt x="170" y="46" on="1"/>
        <pt x="408" y="65" on="0"/>
        <pt x="739" y="311" on="0"/>
        <pt x="827" y="533" on="1"/>
        <pt x="901" y="496" on="1"/>
        <pt x="842" y="341" on="0"/>
        <pt x="636" y="110" on="0"/>
        <pt x="355" y="-25" on="0"/>
        <pt x="186" y="-35" on="1"/>
      </contour>
      <contour>
        <pt x="423" y="296" on="1"/>
        <pt x="356" y="325" on="0"/>
        <pt x="178" y="380" on="0"/>
        <pt x="105" y="395" on="1"/>
        <pt x="125" y="474" on="1"/>
        <pt x="193" y="460" on="0"/>
        <pt x="376" y="404" on="0"/>
        <pt x="448" y="375" on="1"/>
      </contour>
    </TTGlyph>
    <TTGlyph name="uni30B9" xMin="86" yMin="-52" xMax="914" yMax="732">
      <contour>
        <pt x="677" y="254" on="0"/>
        <pt x="846" y="85" on="0"/>
        <pt x="914" y="5" on="1"/>
        <pt x="849" y="-52" on="1"/>
        <pt x="785" y="25" on="0"/>
        <pt x="617" y="197" on="0"/>
        <pt x="549" y="254" on="1"/>
        <pt x="383" y="71" on="0"/>
        <pt x="128" y="-43" on="1"/>
        <pt x="86" y="30" on="1"/>
        <pt x="245" y="103" on="0"/>
        <pt x="491" y="300" on="0"/>
        <pt x="645" y="530" on="0"/>
        <pt x="668" y="652" on="1"/>
        <pt x="171" y="652" on="1"/>
        <pt x="171" y="732" on="1"/>
        <pt x="768" y="732" on="1"/>
        <pt x="761" y="685" on="1"/>
        <pt x="733" y="491" on="0"/>
        <pt x="601" y="317" on="1"/>
      </contour>
    </TTGlyph>
    <TTGlyph name="uni30BA" xMin="79" yMin="-52" xMax="1008" yMax="868">
      <contour>
        <pt x="943" y="868" on="1"/>
        <pt x="961" y="837" on="0"/>
        <pt x="996" y="744" on="0"/>
        <pt x="1008" y="700" on="1"/>
        <pt x="949" y="691" on="1"/>
        <pt x="919" y="803" on="0"/>
        <pt x="886" y="859" on="1"/>
      </contour>
      <contour>
        <pt x="817" y="667" on="1"/>
        <pt x="790" y="770" on="0"/>
        <pt x="754" y="835" on="1"/>
        <pt x="810" y="845" on="1"/>
        <pt x="845" y="785" on="0"/>
        <pt x="876" y="676" on="1"/>
      </contour>
      <contour>
        <pt x="670" y="254" on="0"/>
        <pt x="839" y="85" on="0"/>
        <pt x="907" y="5" on="1"/>
        <pt x="842" y="-52" on="1"/>
        <pt x="777" y="26" on="0"/>
        <pt x="610" y="198" on="0"/>
        <pt x="541" y="254" on="1"/>
        <pt x="377" y="71" on="0"/>
        <pt x="121" y="-43" on="1"/>
        <pt x="79" y="30" on="1"/>
        <pt x="238" y="103" on="0"/>
        <pt x="484" y="300" on="0"/>
        <pt x="638" y="530" on="0"/>
        <pt x="661" y="652" on="1"/>
        <pt x="164" y="652" on="1"/>
        <pt x="164" y="732" on="1"/>
        <pt x="761" y="732" on="1"/>
        <pt x="754" y="685" on="1"/>
        <pt x="724" y="488" on="0"/>
        <pt x="594" y="317" on="1"/>
      </contour>
    </TTGlyph>
    <TTGlyph name="uni30BB" xMin="94" yMin="-47" xMax="928" yMax="779">
      <contour>
        <pt x="414" y="168" on="1"/>
        <pt x="414" y="98" on="0"/>
        <pt x="478" y="33" on="0"/>
        <pt x="548" y="33" on="1"/>
        <pt x="866" y="33" on="1"/>
        <pt x="856" y="-47" on="1"/>
        <pt x="535" y="-47" on="1"/>
        <pt x="429" y="-47" on="0"/>
        <pt x="331" y="51" on="0"/>
        <pt x="331" y="158" on="1"/>
        <pt x="331" y="430" on="1"/>
        <pt x="103" y="399" on="1"/>
        <pt x="94" y="481" on="1"/>
        <pt x="331" y="511" on="1"/>
        <pt x="331" y="779" on="1"/>
        <pt x="414" y="779" on="1"/>
        <pt x="414" y="522" on="1"/>
        <pt x="912" y="586" on="1"/>
        <pt x="928" y="503" on="1"/>
        <pt x="722" y="205" on="1"/>
        <pt x="654" y="253" on="1"/>
        <pt x="831" y="498" on="1"/>
        <pt x="414" y="441" on="1"/>
      </contour>
    </TTGlyph>
    <TTGlyph name="uni30BC" xMin="91" yMin="-47" xMax="989" yMax="841">
      <contour>
        <pt x="920" y="841" on="1"/>
        <pt x="939" y="811" on="0"/>
        <pt x="977" y="717" on="0"/>
        <pt x="989" y="674" on="1"/>
        <pt x="930" y="663" on="1"/>
        <pt x="898" y="772" on="0"/>
        <pt x="863" y="830" on="1"/>
      </contour>
      <contour>
        <pt x="799" y="636" on="1"/>
        <pt x="772" y="731" on="0"/>
        <pt x="732" y="803" on="1"/>
        <pt x="788" y="815" on="1"/>
        <pt x="823" y="758" on="0"/>
        <pt x="857" y="647" on="1"/>
      </contour>
      <contour>
        <pt x="719" y="205" on="1"/>
        <pt x="651" y="253" on="1"/>
        <pt x="828" y="498" on="1"/>
        <pt x="411" y="441" on="1"/>
        <pt x="411" y="168" on="1"/>
        <pt x="411" y="98" on="0"/>
        <pt x="475" y="33" on="0"/>
        <pt x="545" y="33" on="1"/>
        <pt x="863" y="33" on="1"/>
        <pt x="853" y="-47" on="1"/>
        <pt x="532" y="-47" on="1"/>
        <pt x="426" y="-47" on="0"/>
        <pt x="328" y="51" on="0"/>
        <pt x="328" y="158" on="1"/>
        <pt x="328" y="430" on="1"/>
        <pt x="100" y="399" on="1"/>
        <pt x="91" y="481" on="1"/>
        <pt x="328" y="511" on="1"/>
        <pt x="328" y="779" on="1"/>
        <pt x="411" y="779" on="1"/>
        <pt x="411" y="522" on="1"/>
        <pt x="909" y="586" on="1"/>
        <pt x="925" y="503" on="1"/>
      </contour>
    </TTGlyph>
    <TTGlyph name="uni30BD" xMin="140" yMin="-47" xMax="892" yMax="716">
      <contour>
        <pt x="282" y="31" on="1"/>
        <pt x="456" y="74" on="0"/>
        <pt x="680" y="253" on="0"/>
        <pt x="796" y="526" on="0"/>
        <pt x="810" y="716" on="1"/>
        <pt x="892" y="709" on="1"/>
        <pt x="847" y="80" on="0"/>
        <pt x="310" y="-47" on="1"/>
      </contour>
      <contour>
        <pt x="330" y="292" on="1"/>
        <pt x="297" y="392" on="0"/>
        <pt x="195" y="598" on="0"/>
        <pt x="140" y="673" on="1"/>
        <pt x="217" y="710" on="1"/>
        <pt x="273" y="627" on="0"/>
        <pt x="376" y="418" on="0"/>
        <pt x="407" y="326" on="1"/>
      </contour>
    </TTGlyph>
    <TTGlyph name="uni30BE" xMin="140" yMin="-47" xMax="946" yMax="844">
      <contour>
        <pt x="890" y="659" on="1"/>
        <pt x="874" y="702" on="0"/>
        <pt x="830" y="788" on="0"/>
        <pt x="807" y="820" on="1"/>
        <pt x="861" y="844" on="1"/>
        <pt x="883" y="814" on="0"/>
        <pt x="930" y="724" on="0"/>
        <pt x="946" y="683" on="1"/>
      </contour>
      <contour>
        <pt x="762" y="619" on="1"/>
        <pt x="747" y="659" on="0"/>
        <pt x="702" y="746" on="0"/>
        <pt x="678" y="779" on="1"/>
        <pt x="731" y="803" on="1"/>
        <pt x="777" y="740" on="0"/>
        <pt x="818" y="642" on="1"/>
      </contour>
      <contour>
        <pt x="330" y="292" on="1"/>
        <pt x="297" y="392" on="0"/>
        <pt x="195" y="598" on="0"/>
        <pt x="140" y="673" on="1"/>
        <pt x="217" y="710" on="1"/>
        <pt x="273" y="627" on="0"/>
        <pt x="376" y="418" on="0"/>
        <pt x="407" y="326" on="1"/>
      </contour>
      <contour>
        <pt x="282" y="31" on="1"/>
        <pt x="504" y="85" on="0"/>
        <pt x="751" y="353" on="0"/>
        <pt x="792" y="569" on="1"/>
        <pt x="876" y="560" on="1"/>
        <pt x="829" y="317" on="0"/>
        <pt x="548" y="8" on="0"/>
        <pt x="310" y="-47" on="1"/>
      </contour>
    </TTGlyph>
    <TTGlyph name="uni30BF" xMin="125" yMin="-68" xMax="836" yMax="792">
      <contour>
        <pt x="836" y="636" on="1"/>
        <pt x="836" y="545" on="1"/>
        <pt x="836" y="404" on="0"/>
        <pt x="721" y="157" on="0"/>
        <pt x="509" y="-23" on="0"/>
        <pt x="368" y="-68" on="1"/>
        <pt x="332" y="2" on="1"/>
        <pt x="505" y="58" on="0"/>
        <pt x="616" y="181" on="1"/>
        <pt x="478" y="301" on="0"/>
        <pt x="357" y="373" on="1"/>
        <pt x="404" y="436" on="1"/>
        <pt x="539" y="354" on="0"/>
        <pt x="666" y="245" on="1"/>
        <pt x="708" y="308" on="0"/>
        <pt x="752" y="451" on="0"/>
        <pt x="752" y="527" on="1"/>
        <pt x="752" y="556" on="1"/>
        <pt x="387" y="556" on="1"/>
        <pt x="348" y="478" on="0"/>
        <pt x="248" y="341" on="0"/>
        <pt x="194" y="290" on="1"/>
        <pt x="125" y="337" on="1"/>
        <pt x="211" y="417" on="0"/>
        <pt x="353" y="661" on="0"/>
        <pt x="387" y="792" on="1"/>
        <pt x="470" y="779" on="1"/>
        <pt x="455" y="712" on="0"/>
        <pt x="424" y="636" on="1"/>
      </contour>
    </TTGlyph>
    <TTGlyph name="uni30C0" xMin="110" yMin="-68" xMax="955" yMax="875">
      <contour>
        <pt x="890" y="875" on="1"/>
        <pt x="908" y="843" on="0"/>
        <pt x="944" y="749" on="0"/>
        <pt x="955" y="706" on="1"/>
        <pt x="896" y="697" on="1"/>
        <pt x="866" y="809" on="0"/>
        <pt x="833" y="865" on="1"/>
      </contour>
      <contour>
        <pt x="758" y="851" on="1"/>
        <pt x="791" y="793" on="0"/>
        <pt x="823" y="682" on="1"/>
        <pt x="764" y="674" on="1"/>
        <pt x="736" y="777" on="0"/>
        <pt x="701" y="841" on="1"/>
      </contour>
      <contour>
        <pt x="455" y="779" on="1"/>
        <pt x="440" y="712" on="0"/>
        <pt x="409" y="636" on="1"/>
        <pt x="821" y="636" on="1"/>
        <pt x="821" y="545" on="1"/>
        <pt x="821" y="404" on="0"/>
        <pt x="706" y="157" on="0"/>
        <pt x="494" y="-23" on="0"/>
        <pt x="353" y="-68" on="1"/>
        <pt x="317" y="2" on="1"/>
        <pt x="490" y="58" on="0"/>
        <pt x="601" y="181" on="1"/>
        <pt x="463" y="301" on="0"/>
        <pt x="342" y="373" on="1"/>
        <pt x="389" y="436" on="1"/>
        <pt x="524" y="354" on="0"/>
        <pt x="651" y="245" on="1"/>
        <pt x="693" y="308" on="0"/>
        <pt x="737" y="451" on="0"/>
        <pt x="737" y="527" on="1"/>
        <pt x="737" y="556" on="1"/>
        <pt x="372" y="556" on="1"/>
        <pt x="333" y="478" on="0"/>
        <pt x="233" y="341" on="0"/>
        <pt x="179" y="290" on="1"/>
        <pt x="110" y="337" on="1"/>
        <pt x="196" y="417" on="0"/>
        <pt x="338" y="661" on="0"/>
        <pt x="372" y="792" on="1"/>
      </contour>
    </TTGlyph>
    <TTGlyph name="uni30C1" xMin="86" yMin="-70" xMax="914" yMax="786">
      <contour>
        <pt x="914" y="418" on="1"/>
        <pt x="914" y="340" on="1"/>
        <pt x="557" y="340" on="1"/>
        <pt x="552" y="171" on="0"/>
        <pt x="399" y="-30" on="0"/>
        <pt x="244" y="-70" on="1"/>
        <pt x="208" y="7" on="1"/>
        <pt x="344" y="42" on="0"/>
        <pt x="469" y="196" on="0"/>
        <pt x="473" y="340" on="1"/>
        <pt x="86" y="340" on="1"/>
        <pt x="86" y="418" on="1"/>
        <pt x="473" y="418" on="1"/>
        <pt x="473" y="632" on="1"/>
        <pt x="325" y="607" on="0"/>
        <pt x="205" y="598" on="1"/>
        <pt x="196" y="675" on="1"/>
        <pt x="333" y="686" on="0"/>
        <pt x="674" y="749" on="0"/>
        <pt x="797" y="786" on="1"/>
        <pt x="815" y="710" on="1"/>
        <pt x="694" y="675" on="0"/>
        <pt x="557" y="648" on="1"/>
        <pt x="557" y="418" on="1"/>
      </contour>
    </TTGlyph>
    <TTGlyph name="uni30C2" xMin="75" yMin="-70" xMax="981" yMax="786">
      <contour>
        <pt x="546" y="418" on="1"/>
        <pt x="903" y="418" on="1"/>
        <pt x="903" y="340" on="1"/>
        <pt x="546" y="340" on="1"/>
        <pt x="541" y="171" on="0"/>
        <pt x="388" y="-30" on="0"/>
        <pt x="233" y="-70" on="1"/>
        <pt x="197" y="7" on="1"/>
        <pt x="333" y="42" on="0"/>
        <pt x="458" y="196" on="0"/>
        <pt x="462" y="340" on="1"/>
        <pt x="75" y="340" on="1"/>
        <pt x="75" y="418" on="1"/>
        <pt x="462" y="418" on="1"/>
        <pt x="462" y="632" on="1"/>
        <pt x="314" y="607" on="0"/>
        <pt x="194" y="598" on="1"/>
        <pt x="185" y="675" on="1"/>
        <pt x="322" y="686" on="0"/>
        <pt x="663" y="749" on="0"/>
        <pt x="786" y="786" on="1"/>
        <pt x="804" y="710" on="1"/>
        <pt x="683" y="675" on="0"/>
        <pt x="546" y="648" on="1"/>
      </contour>
      <contour>
        <pt x="916" y="677" on="1"/>
        <pt x="934" y="646" on="0"/>
        <pt x="969" y="553" on="0"/>
        <pt x="981" y="509" on="1"/>
        <pt x="922" y="500" on="1"/>
        <pt x="892" y="609" on="0"/>
        <pt x="859" y="668" on="1"/>
      </contour>
      <contour>
        <pt x="783" y="654" on="1"/>
        <pt x="818" y="594" on="0"/>
        <pt x="849" y="485" on="1"/>
        <pt x="790" y="476" on="1"/>
        <pt x="762" y="581" on="0"/>
        <pt x="727" y="644" on="1"/>
      </contour>
    </TTGlyph>
    <TTGlyph name="uni30C3" xMin="152" yMin="-70" xMax="829" yMax="590">
      <contour>
        <pt x="493" y="270" on="1"/>
        <pt x="485" y="348" on="0"/>
        <pt x="444" y="510" on="0"/>
        <pt x="418" y="572" on="1"/>
        <pt x="497" y="590" on="1"/>
        <pt x="523" y="522" on="0"/>
        <pt x="562" y="358" on="0"/>
        <pt x="570" y="282" on="1"/>
      </contour>
      <contour>
        <pt x="325" y="3" on="1"/>
        <pt x="535" y="53" on="0"/>
        <pt x="736" y="320" on="0"/>
        <pt x="751" y="549" on="1"/>
        <pt x="829" y="543" on="1"/>
        <pt x="796" y="31" on="0"/>
        <pt x="352" y="-70" on="1"/>
      </contour>
      <contour>
        <pt x="286" y="202" on="1"/>
        <pt x="265" y="270" on="0"/>
        <pt x="186" y="445" on="0"/>
        <pt x="152" y="486" on="1"/>
        <pt x="226" y="516" on="1"/>
        <pt x="263" y="464" on="0"/>
        <pt x="342" y="289" on="0"/>
        <pt x="360" y="224" on="1"/>
      </contour>
    </TTGlyph>
</ttFont>
